<svg width="176" height="240" viewBox="0 0 176 240" fill="none" xmlns="http://www.w3.org/2000/svg">
<path d="M1.00426 15V4.81818H4.82244C5.60464 4.81818 6.26089 4.96401 6.79119 5.25568C7.32481 5.54735 7.72751 5.94839 7.99929 6.45881C8.27438 6.96591 8.41193 7.54261 8.41193 8.18892C8.41193 8.84186 8.27438 9.42187 7.99929 9.92898C7.7242 10.4361 7.31818 10.8355 6.78125 11.1271C6.24432 11.4155 5.5831 11.5597 4.79759 11.5597H2.26705V10.0433H4.54901C5.00639 10.0433 5.38092 9.96378 5.67259 9.80469C5.96425 9.6456 6.17969 9.42685 6.31889 9.14844C6.46141 8.87003 6.53267 8.55019 6.53267 8.18892C6.53267 7.82765 6.46141 7.50947 6.31889 7.23438C6.17969 6.95928 5.9626 6.7455 5.66761 6.59304C5.37595 6.43726 4.99976 6.35938 4.53906 6.35938H2.84872V15H1.00426ZM9.93448 15V7.36364H11.6795V8.63636H11.7591C11.8983 8.19555 12.1369 7.85582 12.475 7.61719C12.8163 7.37524 13.2058 7.25426 13.6433 7.25426C13.7427 7.25426 13.8538 7.25923 13.9764 7.26918C14.1023 7.2758 14.2067 7.2874 14.2896 7.30398V8.95952C14.2134 8.933 14.0924 8.9098 13.9267 8.88991C13.7643 8.86671 13.6068 8.85511 13.4544 8.85511C13.1262 8.85511 12.8313 8.92637 12.5694 9.06889C12.3109 9.2081 12.1071 9.40199 11.9579 9.65057C11.8088 9.89915 11.7342 10.1858 11.7342 10.5107V15H9.93448ZM18.5018 15.1491C17.756 15.1491 17.1097 14.9851 16.5629 14.657C16.016 14.3288 15.5917 13.8698 15.2901 13.2798C14.9918 12.6899 14.8427 12.0005 14.8427 11.2116C14.8427 10.4228 14.9918 9.73177 15.2901 9.13849C15.5917 8.54522 16.016 8.08452 16.5629 7.75639C17.1097 7.42827 17.756 7.2642 18.5018 7.2642C19.2475 7.2642 19.8938 7.42827 20.4407 7.75639C20.9876 8.08452 21.4102 8.54522 21.7085 9.13849C22.0101 9.73177 22.1609 10.4228 22.1609 11.2116C22.1609 12.0005 22.0101 12.6899 21.7085 13.2798C21.4102 13.8698 20.9876 14.3288 20.4407 14.657C19.8938 14.9851 19.2475 15.1491 18.5018 15.1491ZM18.5117 13.7074C18.9161 13.7074 19.2541 13.5964 19.5259 13.3743C19.7977 13.1489 19.9999 12.8473 20.1325 12.4695C20.2683 12.0916 20.3363 11.6707 20.3363 11.2067C20.3363 10.7393 20.2683 10.3168 20.1325 9.93892C19.9999 9.55777 19.7977 9.2545 19.5259 9.02912C19.2541 8.80374 18.9161 8.69105 18.5117 8.69105C18.0974 8.69105 17.7527 8.80374 17.4776 9.02912C17.2058 9.2545 17.002 9.55777 16.8661 9.93892C16.7335 10.3168 16.6673 10.7393 16.6673 11.2067C16.6673 11.6707 16.7335 12.0916 16.8661 12.4695C17.002 12.8473 17.2058 13.1489 17.4776 13.3743C17.7527 13.5964 18.0974 13.7074 18.5117 13.7074ZM26.5222 15.1342C25.9223 15.1342 25.3854 14.9801 24.9114 14.6719C24.4374 14.3636 24.0629 13.9162 23.7878 13.3295C23.5127 12.7429 23.3752 12.0303 23.3752 11.1918C23.3752 10.3433 23.5144 9.62737 23.7928 9.04403C24.0745 8.45739 24.454 8.01491 24.9313 7.71662C25.4086 7.41501 25.9405 7.2642 26.5272 7.2642C26.9746 7.2642 27.3425 7.34044 27.6309 7.4929C27.9192 7.64205 28.1479 7.82268 28.3169 8.0348C28.486 8.24361 28.6169 8.44081 28.7097 8.62642H28.7843V4.81818H30.589V15H28.8191V13.7969H28.7097C28.6169 13.9825 28.4827 14.1797 28.307 14.3885C28.1313 14.594 27.8993 14.7696 27.611 14.9155C27.3226 15.0613 26.9597 15.1342 26.5222 15.1342ZM27.0243 13.6577C27.4055 13.6577 27.7303 13.5549 27.9988 13.3494C28.2672 13.1406 28.4711 12.8506 28.6103 12.4794C28.7495 12.1082 28.8191 11.6757 28.8191 11.1818C28.8191 10.688 28.7495 10.2588 28.6103 9.89418C28.4744 9.52959 28.2722 9.24621 28.0037 9.04403C27.7386 8.84186 27.4121 8.74077 27.0243 8.74077C26.6233 8.74077 26.2885 8.84517 26.0201 9.05398C25.7516 9.26278 25.5494 9.55114 25.4135 9.91903C25.2776 10.2869 25.2097 10.7079 25.2097 11.1818C25.2097 11.6591 25.2776 12.085 25.4135 12.4595C25.5527 12.8307 25.7566 13.1241 26.025 13.3395C26.2968 13.5516 26.6299 13.6577 27.0243 13.6577ZM37.3739 11.7884V7.36364H39.1737V15H37.4286V13.6428H37.3491C37.1767 14.0703 36.8933 14.42 36.4989 14.6918C36.1078 14.9635 35.6256 15.0994 35.0522 15.0994C34.5517 15.0994 34.1093 14.9884 33.7248 14.7663C33.3436 14.541 33.0453 14.2145 32.8299 13.7869C32.6145 13.3561 32.5067 12.8357 32.5067 12.2259V7.36364H34.3065V11.9474C34.3065 12.4313 34.439 12.8158 34.7042 13.1009C34.9693 13.3859 35.3174 13.5284 35.7482 13.5284C36.0134 13.5284 36.2702 13.4638 36.5188 13.3345C36.7674 13.2053 36.9712 13.013 37.1303 12.7578C37.2927 12.4993 37.3739 12.1761 37.3739 11.7884ZM44.3553 15.1491C43.593 15.1491 42.9384 14.9818 42.3915 14.647C41.848 14.3123 41.4287 13.8499 41.1337 13.2599C40.842 12.6667 40.6962 11.9839 40.6962 11.2116C40.6962 10.4361 40.8453 9.75166 41.1436 9.15838C41.4419 8.56179 41.8629 8.09777 42.4064 7.76633C42.9533 7.43158 43.5996 7.2642 44.3453 7.2642C44.9651 7.2642 45.5137 7.37855 45.9909 7.60724C46.4715 7.83262 46.8543 8.15246 47.1394 8.56676C47.4244 8.97775 47.5868 9.45833 47.6266 10.0085H45.9064C45.8368 9.64062 45.6711 9.33404 45.4093 9.08878C45.1507 8.8402 44.8044 8.71591 44.3702 8.71591C44.0023 8.71591 43.6792 8.81534 43.4007 9.0142C43.1223 9.20975 42.9052 9.49148 42.7495 9.85938C42.597 10.2273 42.5208 10.6681 42.5208 11.1818C42.5208 11.7022 42.597 12.1496 42.7495 12.5241C42.9019 12.8954 43.1157 13.1821 43.3908 13.3842C43.6692 13.5831 43.9957 13.6825 44.3702 13.6825C44.6354 13.6825 44.8723 13.6328 45.0811 13.5334C45.2933 13.4306 45.4706 13.2831 45.6131 13.0909C45.7556 12.8987 45.8534 12.665 45.9064 12.3899H47.6266C47.5835 12.9302 47.4244 13.4091 47.1493 13.8267C46.8742 14.241 46.4997 14.5658 46.0257 14.8011C45.5518 15.0331 44.995 15.1491 44.3553 15.1491ZM52.9176 7.36364V8.75568H48.5277V7.36364H52.9176ZM49.6115 5.53409H51.4112V12.7031C51.4112 12.9451 51.4477 13.1307 51.5206 13.2599C51.5968 13.3859 51.6963 13.4721 51.8189 13.5185C51.9415 13.5649 52.0774 13.5881 52.2266 13.5881C52.3393 13.5881 52.442 13.5798 52.5348 13.5632C52.6309 13.5466 52.7038 13.5317 52.7536 13.5185L53.0568 14.9254C52.9607 14.9586 52.8232 14.995 52.6442 15.0348C52.4685 15.0746 52.2531 15.0978 51.9979 15.1044C51.5471 15.1177 51.1411 15.0497 50.7798 14.9006C50.4186 14.7481 50.1319 14.5128 49.9197 14.1946C49.7109 13.8764 49.6082 13.4787 49.6115 13.0014V5.53409Z" fill="white"/>
<g clip-path="url(#clip0_0_5351)">
<path d="M11.3864 48.1818C11.3864 49.4242 11.1591 50.4924 10.7045 51.3864C10.25 52.2765 9.62689 52.9621 8.83523 53.4432C8.04735 53.9205 7.15152 54.1591 6.14773 54.1591C5.14015 54.1591 4.24053 53.9205 3.44886 53.4432C2.66098 52.9621 2.03977 52.2746 1.58523 51.3807C1.13068 50.4867 0.903409 49.4205 0.903409 48.1818C0.903409 46.9394 1.13068 45.8731 1.58523 44.983C2.03977 44.089 2.66098 43.4034 3.44886 42.9261C4.24053 42.4451 5.14015 42.2045 6.14773 42.2045C7.15152 42.2045 8.04735 42.4451 8.83523 42.9261C9.62689 43.4034 10.25 44.089 10.7045 44.983C11.1591 45.8731 11.3864 46.9394 11.3864 48.1818ZM9.64773 48.1818C9.64773 47.2348 9.49432 46.4375 9.1875 45.7898C8.88447 45.1383 8.4678 44.6458 7.9375 44.3125C7.41098 43.9754 6.81439 43.8068 6.14773 43.8068C5.47727 43.8068 4.87879 43.9754 4.35227 44.3125C3.82576 44.6458 3.40909 45.1383 3.10227 45.7898C2.79924 46.4375 2.64773 47.2348 2.64773 48.1818C2.64773 49.1288 2.79924 49.928 3.10227 50.5795C3.40909 51.2273 3.82576 51.7197 4.35227 52.0568C4.87879 52.3902 5.47727 52.5568 6.14773 52.5568C6.81439 52.5568 7.41098 52.3902 7.9375 52.0568C8.4678 51.7197 8.88447 51.2273 9.1875 50.5795C9.49432 49.928 9.64773 49.1288 9.64773 48.1818ZM20.9048 45.2727L17.7401 54H15.9219L12.7514 45.2727H14.5753L16.7855 51.9886H16.8764L19.081 45.2727H20.9048ZM25.9659 54.1761C25.1061 54.1761 24.3655 53.9924 23.7443 53.625C23.1269 53.2538 22.6496 52.733 22.3125 52.0625C21.9792 51.3883 21.8125 50.5985 21.8125 49.6932C21.8125 48.7992 21.9792 48.0114 22.3125 47.3295C22.6496 46.6477 23.1193 46.1155 23.7216 45.733C24.3277 45.3504 25.036 45.1591 25.8466 45.1591C26.339 45.1591 26.8163 45.2405 27.2784 45.4034C27.7405 45.5663 28.1553 45.822 28.5227 46.1705C28.8902 46.5189 29.1799 46.9716 29.392 47.5284C29.6042 48.0814 29.7102 48.7538 29.7102 49.5455V50.1477H22.7727V48.875H28.0455C28.0455 48.428 27.9545 48.0322 27.7727 47.6875C27.5909 47.339 27.3352 47.0644 27.0057 46.8636C26.6799 46.6629 26.2973 46.5625 25.858 46.5625C25.3807 46.5625 24.964 46.6799 24.608 46.9148C24.2557 47.1458 23.983 47.4489 23.7898 47.8239C23.6004 48.1951 23.5057 48.5985 23.5057 49.0341V50.0284C23.5057 50.6117 23.608 51.108 23.8125 51.517C24.0208 51.9261 24.3106 52.2386 24.6818 52.4545C25.053 52.6667 25.4867 52.7727 25.983 52.7727C26.3049 52.7727 26.5985 52.7273 26.8636 52.6364C27.1288 52.5417 27.358 52.4015 27.5511 52.2159C27.7443 52.0303 27.892 51.8011 27.9943 51.5284L29.6023 51.8182C29.4735 52.2917 29.2424 52.7064 28.9091 53.0625C28.5795 53.4148 28.1648 53.6894 27.6648 53.8864C27.1686 54.0795 26.6023 54.1761 25.9659 54.1761ZM31.5952 54V45.2727H33.2372V46.6591H33.3281C33.4872 46.1894 33.7675 45.8201 34.169 45.5511C34.5743 45.2784 35.0327 45.142 35.544 45.142C35.6501 45.142 35.7751 45.1458 35.919 45.1534C36.0668 45.161 36.1823 45.1705 36.2656 45.1818V46.8068C36.1974 46.7879 36.0762 46.767 35.902 46.7443C35.7277 46.7178 35.5535 46.7045 35.3793 46.7045C34.9777 46.7045 34.6198 46.7898 34.3054 46.9602C33.9948 47.1269 33.7486 47.3598 33.5668 47.6591C33.3849 47.9545 33.294 48.2917 33.294 48.6705V54H31.5952ZM45.4673 45.2727L42.3026 54H40.4844L37.3139 45.2727H39.1378L41.348 51.9886H41.4389L43.6435 45.2727H45.4673ZM47.0639 54V45.2727H48.7628V54H47.0639ZM47.9219 43.9261C47.6264 43.9261 47.3726 43.8277 47.1605 43.6307C46.9522 43.4299 46.848 43.1913 46.848 42.9148C46.848 42.6345 46.9522 42.3958 47.1605 42.1989C47.3726 41.9981 47.6264 41.8977 47.9219 41.8977C48.2173 41.8977 48.4692 41.9981 48.6776 42.1989C48.8897 42.3958 48.9957 42.6345 48.9957 42.9148C48.9957 43.1913 48.8897 43.4299 48.6776 43.6307C48.4692 43.8277 48.2173 43.9261 47.9219 43.9261ZM54.8097 54.1761C53.9498 54.1761 53.2093 53.9924 52.5881 53.625C51.9706 53.2538 51.4934 52.733 51.1562 52.0625C50.8229 51.3883 50.6562 50.5985 50.6562 49.6932C50.6562 48.7992 50.8229 48.0114 51.1562 47.3295C51.4934 46.6477 51.9631 46.1155 52.5653 45.733C53.1714 45.3504 53.8797 45.1591 54.6903 45.1591C55.1828 45.1591 55.66 45.2405 56.1222 45.4034C56.5843 45.5663 56.9991 45.822 57.3665 46.1705C57.7339 46.5189 58.0237 46.9716 58.2358 47.5284C58.4479 48.0814 58.554 48.7538 58.554 49.5455V50.1477H51.6165V48.875H56.8892C56.8892 48.428 56.7983 48.0322 56.6165 47.6875C56.4347 47.339 56.179 47.0644 55.8494 46.8636C55.5237 46.6629 55.1411 46.5625 54.7017 46.5625C54.2244 46.5625 53.8078 46.6799 53.4517 46.9148C53.0994 47.1458 52.8267 47.4489 52.6335 47.8239C52.4441 48.1951 52.3494 48.5985 52.3494 49.0341V50.0284C52.3494 50.6117 52.4517 51.108 52.6562 51.517C52.8646 51.9261 53.1544 52.2386 53.5256 52.4545C53.8968 52.6667 54.3305 52.7727 54.8267 52.7727C55.1487 52.7727 55.4422 52.7273 55.7074 52.6364C55.9725 52.5417 56.2017 52.4015 56.3949 52.2159C56.5881 52.0303 56.7358 51.8011 56.8381 51.5284L58.446 51.8182C58.3172 52.2917 58.0862 52.7064 57.7528 53.0625C57.4233 53.4148 57.0085 53.6894 56.5085 53.8864C56.0123 54.0795 55.446 54.1761 54.8097 54.1761ZM62.3153 54L59.7472 45.2727H61.5028L63.2131 51.6818H63.2983L65.0142 45.2727H66.7699L68.4744 51.6534H68.5597L70.2585 45.2727H72.0142L69.4517 54H67.7188L65.946 47.6989H65.8153L64.0426 54H62.3153Z" fill="#535862"/>
</g>
<g clip-path="url(#clip1_0_5351)">
<path d="M1.27841 90V78.3636H8.49432V79.875H3.03409V83.4205H7.97727V84.9261H3.03409V90H1.27841ZM13.6378 90.1761C12.7779 90.1761 12.0374 89.9924 11.4162 89.625C10.7988 89.2538 10.3215 88.733 9.98438 88.0625C9.65104 87.3883 9.48438 86.5985 9.48438 85.6932C9.48438 84.7992 9.65104 84.0114 9.98438 83.3295C10.3215 82.6477 10.7912 82.1155 11.3935 81.733C11.9995 81.3504 12.7079 81.1591 13.5185 81.1591C14.0109 81.1591 14.4882 81.2405 14.9503 81.4034C15.4124 81.5663 15.8272 81.822 16.1946 82.1705C16.562 82.5189 16.8518 82.9716 17.0639 83.5284C17.276 84.0814 17.3821 84.7538 17.3821 85.5455V86.1477H10.4446V84.875H15.7173C15.7173 84.428 15.6264 84.0322 15.4446 83.6875C15.2628 83.339 15.0071 83.0644 14.6776 82.8636C14.3518 82.6629 13.9692 82.5625 13.5298 82.5625C13.0526 82.5625 12.6359 82.6799 12.2798 82.9148C11.9276 83.1458 11.6548 83.4489 11.4616 83.8239C11.2723 84.1951 11.1776 84.5985 11.1776 85.0341V86.0284C11.1776 86.6117 11.2798 87.108 11.4844 87.517C11.6927 87.9261 11.9825 88.2386 12.3537 88.4545C12.7249 88.6667 13.1586 88.7727 13.6548 88.7727C13.9768 88.7727 14.2704 88.7273 14.5355 88.6364C14.8007 88.5417 15.0298 88.4015 15.223 88.2159C15.4162 88.0303 15.5639 87.8011 15.6662 87.5284L17.2741 87.8182C17.1454 88.2917 16.9143 88.7064 16.581 89.0625C16.2514 89.4148 15.8366 89.6894 15.3366 89.8864C14.8404 90.0795 14.2741 90.1761 13.6378 90.1761ZM21.8068 90.1932C21.2538 90.1932 20.7538 90.0909 20.3068 89.8864C19.8598 89.678 19.5057 89.3769 19.2443 88.983C18.9867 88.589 18.858 88.1061 18.858 87.5341C18.858 87.0417 18.9527 86.6364 19.142 86.3182C19.3314 86 19.5871 85.7481 19.9091 85.5625C20.2311 85.3769 20.5909 85.2367 20.9886 85.142C21.3864 85.0473 21.7917 84.9754 22.2045 84.9261C22.7273 84.8655 23.1515 84.8163 23.4773 84.7784C23.803 84.7367 24.0398 84.6705 24.1875 84.5795C24.3352 84.4886 24.4091 84.3409 24.4091 84.1364V84.0966C24.4091 83.6004 24.2689 83.2159 23.9886 82.9432C23.7121 82.6705 23.2992 82.5341 22.75 82.5341C22.178 82.5341 21.7273 82.661 21.3977 82.9148C21.072 83.1648 20.8466 83.4432 20.7216 83.75L19.125 83.3864C19.3144 82.8561 19.5909 82.428 19.9545 82.1023C20.322 81.7727 20.7443 81.5341 21.2216 81.3864C21.6989 81.2348 22.2008 81.1591 22.7273 81.1591C23.0758 81.1591 23.4451 81.2008 23.8352 81.2841C24.2292 81.3636 24.5966 81.5114 24.9375 81.7273C25.2822 81.9432 25.5644 82.2519 25.7841 82.6534C26.0038 83.0511 26.1136 83.5682 26.1136 84.2045V90H24.4545V88.8068H24.3864C24.2765 89.0265 24.1117 89.2424 23.892 89.4545C23.6723 89.6667 23.3902 89.8428 23.0455 89.983C22.7008 90.1231 22.2879 90.1932 21.8068 90.1932ZM22.1761 88.8295C22.6458 88.8295 23.0473 88.7367 23.3807 88.5511C23.7178 88.3655 23.9735 88.1231 24.1477 87.8239C24.3258 87.5208 24.4148 87.197 24.4148 86.8523V85.7273C24.3542 85.7879 24.2367 85.8447 24.0625 85.8977C23.892 85.947 23.697 85.9905 23.4773 86.0284C23.2576 86.0625 23.0436 86.0947 22.8352 86.125C22.6269 86.1515 22.4527 86.1742 22.3125 86.1932C21.983 86.2348 21.6818 86.3049 21.4091 86.4034C21.1402 86.5019 20.9242 86.6439 20.7614 86.8295C20.6023 87.0114 20.5227 87.2538 20.5227 87.5568C20.5227 87.9773 20.678 88.2955 20.9886 88.5114C21.2992 88.7235 21.6951 88.8295 22.1761 88.8295ZM32.4503 81.2727V82.6364H27.6832V81.2727H32.4503ZM28.9616 79.1818H30.6605V87.4375C30.6605 87.767 30.7098 88.0152 30.8082 88.1818C30.9067 88.3447 31.0336 88.4564 31.1889 88.517C31.348 88.5739 31.5204 88.6023 31.706 88.6023C31.8423 88.6023 31.9616 88.5928 32.0639 88.5739C32.1662 88.5549 32.2457 88.5398 32.3026 88.5284L32.6094 89.9318C32.5109 89.9697 32.3707 90.0076 32.1889 90.0455C32.0071 90.0871 31.7798 90.1098 31.5071 90.1136C31.0601 90.1212 30.6435 90.0417 30.2571 89.875C29.8707 89.7083 29.5582 89.4508 29.3196 89.1023C29.081 88.7538 28.9616 88.3163 28.9616 87.7898V79.1818ZM39.858 86.3807V81.2727H41.5625V90H39.892V88.4886H39.8011C39.6004 88.9545 39.2784 89.3428 38.8352 89.6534C38.3958 89.9602 37.8485 90.1136 37.1932 90.1136C36.6326 90.1136 36.1364 89.9905 35.7045 89.7443C35.2765 89.4943 34.9394 89.125 34.6932 88.6364C34.4508 88.1477 34.3295 87.5436 34.3295 86.8239V81.2727H36.0284V86.6193C36.0284 87.214 36.1932 87.6875 36.5227 88.0398C36.8523 88.392 37.2803 88.5682 37.8068 88.5682C38.125 88.5682 38.4413 88.4886 38.7557 88.3295C39.0739 88.1705 39.3371 87.9299 39.5455 87.608C39.7576 87.286 39.8617 86.8769 39.858 86.3807ZM43.8452 90V81.2727H45.4872V82.6591H45.5781C45.7372 82.1894 46.0175 81.8201 46.419 81.5511C46.8243 81.2784 47.2827 81.142 47.794 81.142C47.9001 81.142 48.0251 81.1458 48.169 81.1534C48.3168 81.161 48.4323 81.1705 48.5156 81.1818V82.8068C48.4474 82.7879 48.3262 82.767 48.152 82.7443C47.9777 82.7178 47.8035 82.7045 47.6293 82.7045C47.2277 82.7045 46.8698 82.7898 46.5554 82.9602C46.2448 83.1269 45.9986 83.3598 45.8168 83.6591C45.6349 83.9545 45.544 84.2917 45.544 84.6705V90H43.8452ZM53.4347 90.1761C52.5748 90.1761 51.8343 89.9924 51.2131 89.625C50.5956 89.2538 50.1184 88.733 49.7812 88.0625C49.4479 87.3883 49.2812 86.5985 49.2812 85.6932C49.2812 84.7992 49.4479 84.0114 49.7812 83.3295C50.1184 82.6477 50.5881 82.1155 51.1903 81.733C51.7964 81.3504 52.5047 81.1591 53.3153 81.1591C53.8078 81.1591 54.285 81.2405 54.7472 81.4034C55.2093 81.5663 55.6241 81.822 55.9915 82.1705C56.3589 82.5189 56.6487 82.9716 56.8608 83.5284C57.0729 84.0814 57.179 84.7538 57.179 85.5455V86.1477H50.2415V84.875H55.5142C55.5142 84.428 55.4233 84.0322 55.2415 83.6875C55.0597 83.339 54.804 83.0644 54.4744 82.8636C54.1487 82.6629 53.7661 82.5625 53.3267 82.5625C52.8494 82.5625 52.4328 82.6799 52.0767 82.9148C51.7244 83.1458 51.4517 83.4489 51.2585 83.8239C51.0691 84.1951 50.9744 84.5985 50.9744 85.0341V86.0284C50.9744 86.6117 51.0767 87.108 51.2812 87.517C51.4896 87.9261 51.7794 88.2386 52.1506 88.4545C52.5218 88.6667 52.9555 88.7727 53.4517 88.7727C53.7737 88.7727 54.0672 88.7273 54.3324 88.6364C54.5975 88.5417 54.8267 88.4015 55.0199 88.2159C55.2131 88.0303 55.3608 87.8011 55.4631 87.5284L57.071 87.8182C56.9422 88.2917 56.7112 88.7064 56.3778 89.0625C56.0483 89.4148 55.6335 89.6894 55.1335 89.8864C54.6373 90.0795 54.071 90.1761 53.4347 90.1761ZM65.6037 83.4034L64.0639 83.6761C63.9995 83.4792 63.8973 83.2917 63.7571 83.1136C63.6207 82.9356 63.4351 82.7898 63.2003 82.6761C62.9654 82.5625 62.6719 82.5057 62.3196 82.5057C61.8385 82.5057 61.437 82.6136 61.1151 82.8295C60.7931 83.0417 60.6321 83.3163 60.6321 83.6534C60.6321 83.9451 60.7401 84.1799 60.956 84.358C61.1719 84.536 61.5204 84.6818 62.0014 84.7955L63.3878 85.1136C64.1908 85.2992 64.7893 85.5852 65.1832 85.9716C65.5772 86.358 65.7741 86.8598 65.7741 87.4773C65.7741 88 65.6226 88.4659 65.3196 88.875C65.0204 89.2803 64.6018 89.5985 64.0639 89.8295C63.5298 90.0606 62.9105 90.1761 62.206 90.1761C61.2287 90.1761 60.4313 89.9678 59.8139 89.5511C59.1965 89.1307 58.8177 88.5341 58.6776 87.7614L60.3196 87.5114C60.4219 87.9394 60.6321 88.2633 60.9503 88.483C61.2685 88.6989 61.6832 88.8068 62.1946 88.8068C62.7514 88.8068 63.1965 88.6913 63.5298 88.4602C63.8632 88.2254 64.0298 87.9394 64.0298 87.6023C64.0298 87.3295 63.9276 87.1004 63.723 86.9148C63.5223 86.7292 63.2135 86.589 62.7969 86.4943L61.3196 86.1705C60.5052 85.9848 59.9029 85.6894 59.5128 85.2841C59.1264 84.8788 58.9332 84.3655 58.9332 83.7443C58.9332 83.2292 59.0772 82.7784 59.3651 82.392C59.6529 82.0057 60.0507 81.7045 60.5582 81.4886C61.0658 81.2689 61.6473 81.1591 62.3026 81.1591C63.2457 81.1591 63.9882 81.3636 64.5298 81.7727C65.0715 82.178 65.4295 82.7216 65.6037 83.4034Z" fill="#535862"/>
</g>
<g clip-path="url(#clip2_0_5351)">
<path d="M7.625 117.42C7.56439 116.883 7.31439 116.466 6.875 116.17C6.43561 115.871 5.88258 115.722 5.21591 115.722C4.73864 115.722 4.32576 115.797 3.97727 115.949C3.62879 116.097 3.35795 116.301 3.16477 116.562C2.97538 116.82 2.88068 117.114 2.88068 117.443C2.88068 117.72 2.94508 117.958 3.07386 118.159C3.20644 118.36 3.37879 118.528 3.59091 118.665C3.80682 118.797 4.03788 118.909 4.28409 119C4.5303 119.087 4.76705 119.159 4.99432 119.216L6.13068 119.511C6.50189 119.602 6.88258 119.725 7.27273 119.881C7.66288 120.036 8.02462 120.241 8.35795 120.494C8.69129 120.748 8.96023 121.062 9.16477 121.438C9.37311 121.812 9.47727 122.261 9.47727 122.784C9.47727 123.443 9.30682 124.028 8.96591 124.54C8.62879 125.051 8.13826 125.455 7.49432 125.75C6.85417 126.045 6.07955 126.193 5.17045 126.193C4.29924 126.193 3.54545 126.055 2.90909 125.778C2.27273 125.502 1.77462 125.11 1.41477 124.602C1.05492 124.091 0.856061 123.485 0.818182 122.784H2.57955C2.61364 123.205 2.75 123.555 2.98864 123.835C3.23106 124.112 3.53977 124.318 3.91477 124.455C4.29356 124.587 4.70833 124.653 5.15909 124.653C5.6553 124.653 6.09659 124.576 6.48295 124.42C6.87311 124.261 7.17992 124.042 7.40341 123.761C7.62689 123.477 7.73864 123.146 7.73864 122.767C7.73864 122.422 7.64015 122.14 7.44318 121.92C7.25 121.701 6.98674 121.519 6.65341 121.375C6.32386 121.231 5.95076 121.104 5.53409 120.994L4.15909 120.619C3.22727 120.366 2.48864 119.992 1.94318 119.5C1.40152 119.008 1.13068 118.356 1.13068 117.545C1.13068 116.875 1.3125 116.29 1.67614 115.79C2.03977 115.29 2.5322 114.902 3.15341 114.625C3.77462 114.345 4.47538 114.205 5.25568 114.205C6.04356 114.205 6.73864 114.343 7.34091 114.619C7.94697 114.896 8.42424 115.277 8.77273 115.761C9.12121 116.242 9.30303 116.795 9.31818 117.42H7.625ZM15.1151 126.176C14.2969 126.176 13.5829 125.989 12.973 125.614C12.3632 125.239 11.8897 124.714 11.5526 124.04C11.2154 123.366 11.0469 122.578 11.0469 121.676C11.0469 120.771 11.2154 119.979 11.5526 119.301C11.8897 118.623 12.3632 118.097 12.973 117.722C13.5829 117.347 14.2969 117.159 15.1151 117.159C15.9332 117.159 16.6473 117.347 17.2571 117.722C17.867 118.097 18.3404 118.623 18.6776 119.301C19.0147 119.979 19.1832 120.771 19.1832 121.676C19.1832 122.578 19.0147 123.366 18.6776 124.04C18.3404 124.714 17.867 125.239 17.2571 125.614C16.6473 125.989 15.9332 126.176 15.1151 126.176ZM15.1207 124.75C15.651 124.75 16.0904 124.61 16.4389 124.33C16.7874 124.049 17.045 123.676 17.2116 123.21C17.3821 122.744 17.4673 122.231 17.4673 121.67C17.4673 121.114 17.3821 120.602 17.2116 120.136C17.045 119.667 16.7874 119.29 16.4389 119.006C16.0904 118.722 15.651 118.58 15.1207 118.58C14.5866 118.58 14.1435 118.722 13.7912 119.006C13.4427 119.29 13.1832 119.667 13.0128 120.136C12.8461 120.602 12.7628 121.114 12.7628 121.67C12.7628 122.231 12.8461 122.744 13.0128 123.21C13.1832 123.676 13.4427 124.049 13.7912 124.33C14.1435 124.61 14.5866 124.75 15.1207 124.75ZM22.7784 114.364V126H21.0795V114.364H22.7784ZM30.5923 122.381V117.273H32.2969V126H30.6264V124.489H30.5355C30.3348 124.955 30.0128 125.343 29.5696 125.653C29.1302 125.96 28.5829 126.114 27.9276 126.114C27.367 126.114 26.8707 125.991 26.4389 125.744C26.0109 125.494 25.6738 125.125 25.4276 124.636C25.1851 124.148 25.0639 123.544 25.0639 122.824V117.273H26.7628V122.619C26.7628 123.214 26.9276 123.687 27.2571 124.04C27.5866 124.392 28.0147 124.568 28.5412 124.568C28.8594 124.568 29.1757 124.489 29.4901 124.33C29.8082 124.17 30.0715 123.93 30.2798 123.608C30.492 123.286 30.5961 122.877 30.5923 122.381ZM38.6534 117.273V118.636H33.8864V117.273H38.6534ZM35.1648 115.182H36.8636V123.438C36.8636 123.767 36.9129 124.015 37.0114 124.182C37.1098 124.345 37.2367 124.456 37.392 124.517C37.5511 124.574 37.7235 124.602 37.9091 124.602C38.0455 124.602 38.1648 124.593 38.267 124.574C38.3693 124.555 38.4489 124.54 38.5057 124.528L38.8125 125.932C38.714 125.97 38.5739 126.008 38.392 126.045C38.2102 126.087 37.983 126.11 37.7102 126.114C37.2633 126.121 36.8466 126.042 36.4602 125.875C36.0739 125.708 35.7614 125.451 35.5227 125.102C35.2841 124.754 35.1648 124.316 35.1648 123.79V115.182ZM40.5327 126V117.273H42.2315V126H40.5327ZM41.3906 115.926C41.0952 115.926 40.8414 115.828 40.6293 115.631C40.4209 115.43 40.3168 115.191 40.3168 114.915C40.3168 114.634 40.4209 114.396 40.6293 114.199C40.8414 113.998 41.0952 113.898 41.3906 113.898C41.6861 113.898 41.938 113.998 42.1463 114.199C42.3584 114.396 42.4645 114.634 42.4645 114.915C42.4645 115.191 42.3584 115.43 42.1463 115.631C41.938 115.828 41.6861 115.926 41.3906 115.926ZM48.1932 126.176C47.375 126.176 46.661 125.989 46.0511 125.614C45.4413 125.239 44.9678 124.714 44.6307 124.04C44.2936 123.366 44.125 122.578 44.125 121.676C44.125 120.771 44.2936 119.979 44.6307 119.301C44.9678 118.623 45.4413 118.097 46.0511 117.722C46.661 117.347 47.375 117.159 48.1932 117.159C49.0114 117.159 49.7254 117.347 50.3352 117.722C50.9451 118.097 51.4186 118.623 51.7557 119.301C52.0928 119.979 52.2614 120.771 52.2614 121.676C52.2614 122.578 52.0928 123.366 51.7557 124.04C51.4186 124.714 50.9451 125.239 50.3352 125.614C49.7254 125.989 49.0114 126.176 48.1932 126.176ZM48.1989 124.75C48.7292 124.75 49.1686 124.61 49.517 124.33C49.8655 124.049 50.1231 123.676 50.2898 123.21C50.4602 122.744 50.5455 122.231 50.5455 121.67C50.5455 121.114 50.4602 120.602 50.2898 120.136C50.1231 119.667 49.8655 119.29 49.517 119.006C49.1686 118.722 48.7292 118.58 48.1989 118.58C47.6648 118.58 47.2216 118.722 46.8693 119.006C46.5208 119.29 46.2614 119.667 46.0909 120.136C45.9242 120.602 45.8409 121.114 45.8409 121.67C45.8409 122.231 45.9242 122.744 46.0909 123.21C46.2614 123.676 46.5208 124.049 46.8693 124.33C47.2216 124.61 47.6648 124.75 48.1989 124.75ZM55.8565 120.818V126H54.1577V117.273H55.7884V118.693H55.8963C56.0971 118.231 56.4115 117.86 56.8395 117.58C57.2713 117.299 57.8149 117.159 58.4702 117.159C59.0649 117.159 59.5857 117.284 60.0327 117.534C60.4796 117.78 60.8262 118.148 61.0724 118.636C61.3187 119.125 61.4418 119.729 61.4418 120.449V126H59.7429V120.653C59.7429 120.021 59.5781 119.527 59.2486 119.17C58.919 118.811 58.4664 118.631 57.8906 118.631C57.4967 118.631 57.1463 118.716 56.8395 118.886C56.5365 119.057 56.2959 119.307 56.1179 119.636C55.9437 119.962 55.8565 120.356 55.8565 120.818ZM70.2599 119.403L68.7202 119.676C68.6558 119.479 68.5535 119.292 68.4134 119.114C68.277 118.936 68.0914 118.79 67.8565 118.676C67.6217 118.562 67.3281 118.506 66.9759 118.506C66.4948 118.506 66.0933 118.614 65.7713 118.83C65.4493 119.042 65.2884 119.316 65.2884 119.653C65.2884 119.945 65.3963 120.18 65.6122 120.358C65.8281 120.536 66.1766 120.682 66.6577 120.795L68.044 121.114C68.8471 121.299 69.4455 121.585 69.8395 121.972C70.2334 122.358 70.4304 122.86 70.4304 123.477C70.4304 124 70.2789 124.466 69.9759 124.875C69.6766 125.28 69.258 125.598 68.7202 125.83C68.1861 126.061 67.5668 126.176 66.8622 126.176C65.8849 126.176 65.0876 125.968 64.4702 125.551C63.8527 125.131 63.474 124.534 63.3338 123.761L64.9759 123.511C65.0781 123.939 65.2884 124.263 65.6065 124.483C65.9247 124.699 66.3395 124.807 66.8509 124.807C67.4077 124.807 67.8527 124.691 68.1861 124.46C68.5194 124.225 68.6861 123.939 68.6861 123.602C68.6861 123.33 68.5838 123.1 68.3793 122.915C68.1785 122.729 67.8698 122.589 67.4531 122.494L65.9759 122.17C65.1615 121.985 64.5592 121.689 64.169 121.284C63.7827 120.879 63.5895 120.366 63.5895 119.744C63.5895 119.229 63.7334 118.778 64.0213 118.392C64.3092 118.006 64.7069 117.705 65.2145 117.489C65.7221 117.269 66.3035 117.159 66.9588 117.159C67.902 117.159 68.6444 117.364 69.1861 117.773C69.7277 118.178 70.0857 118.722 70.2599 119.403Z" fill="#535862"/>
</g>
<path d="M80 115C80 111.686 82.6863 109 86 109H112C115.314 109 118 111.686 118 115V125C118 128.314 115.314 131 112 131H86C82.6863 131 80 128.314 80 125V115Z" fill="white" fill-opacity="0.1"/>
<path d="M80.5 115C80.5 111.962 82.9624 109.5 86 109.5H112C115.038 109.5 117.5 111.962 117.5 115V125C117.5 128.038 115.038 130.5 112 130.5H86C82.9624 130.5 80.5 128.038 80.5 125V115Z" stroke="white" stroke-opacity="0.3"/>
<path d="M94.0536 115.273V124H92.8434L88.4073 117.599H88.3263V124H87.0096V115.273H88.2283L92.6687 121.682H92.7496V115.273H94.0536ZM98.6932 124.132C98.0483 124.132 97.4929 123.994 97.027 123.719C96.5639 123.44 96.206 123.05 95.9531 122.547C95.7031 122.041 95.5781 121.449 95.5781 120.77C95.5781 120.099 95.7031 119.509 95.9531 118.997C96.206 118.486 96.5582 118.087 97.0099 117.8C97.4645 117.513 97.9957 117.369 98.6037 117.369C98.973 117.369 99.331 117.43 99.6776 117.553C100.024 117.675 100.335 117.866 100.611 118.128C100.886 118.389 101.104 118.729 101.263 119.146C101.422 119.561 101.501 120.065 101.501 120.659V121.111H96.2983V120.156H100.253C100.253 119.821 100.185 119.524 100.048 119.266C99.9119 119.004 99.7202 118.798 99.473 118.648C99.2287 118.497 98.9418 118.422 98.6122 118.422C98.2543 118.422 97.9418 118.51 97.6747 118.686C97.4105 118.859 97.206 119.087 97.0611 119.368C96.919 119.646 96.848 119.949 96.848 120.276V121.021C96.848 121.459 96.9247 121.831 97.0781 122.138C97.2344 122.445 97.4517 122.679 97.7301 122.841C98.0085 123 98.3338 123.08 98.706 123.08C98.9474 123.08 99.1676 123.045 99.3665 122.977C99.5653 122.906 99.7372 122.801 99.8821 122.662C100.027 122.523 100.138 122.351 100.214 122.146L101.42 122.364C101.324 122.719 101.151 123.03 100.901 123.297C100.653 123.561 100.342 123.767 99.9673 123.915C99.5952 124.06 99.1705 124.132 98.6932 124.132ZM104.322 124L102.396 117.455H103.713L104.996 122.261H105.06L106.347 117.455H107.663L108.942 122.24H109.006L110.28 117.455H111.597L109.675 124H108.375L107.045 119.274H106.947L105.618 124H104.322Z" fill="white"/>
<g clip-path="url(#clip3_0_5351)">
<path d="M0.704545 151.875V150.364H9.71023V151.875H6.07955V162H4.32955V151.875H0.704545ZM15.9048 158.381V153.273H17.6094V162H15.9389V160.489H15.848C15.6473 160.955 15.3253 161.343 14.8821 161.653C14.4427 161.96 13.8954 162.114 13.2401 162.114C12.6795 162.114 12.1832 161.991 11.7514 161.744C11.3234 161.494 10.9863 161.125 10.7401 160.636C10.4976 160.148 10.3764 159.544 10.3764 158.824V153.273H12.0753V158.619C12.0753 159.214 12.2401 159.687 12.5696 160.04C12.8991 160.392 13.3272 160.568 13.8537 160.568C14.1719 160.568 14.4882 160.489 14.8026 160.33C15.1207 160.17 15.384 159.93 15.5923 159.608C15.8045 159.286 15.9086 158.877 15.9048 158.381ZM23.9659 153.273V154.636H19.1989V153.273H23.9659ZM20.4773 151.182H22.1761V159.438C22.1761 159.767 22.2254 160.015 22.3239 160.182C22.4223 160.345 22.5492 160.456 22.7045 160.517C22.8636 160.574 23.036 160.602 23.2216 160.602C23.358 160.602 23.4773 160.593 23.5795 160.574C23.6818 160.555 23.7614 160.54 23.8182 160.528L24.125 161.932C24.0265 161.97 23.8864 162.008 23.7045 162.045C23.5227 162.087 23.2955 162.11 23.0227 162.114C22.5758 162.121 22.1591 162.042 21.7727 161.875C21.3864 161.708 21.0739 161.451 20.8352 161.102C20.5966 160.754 20.4773 160.316 20.4773 159.79V151.182ZM29.4276 162.176C28.6094 162.176 27.8954 161.989 27.2855 161.614C26.6757 161.239 26.2022 160.714 25.8651 160.04C25.5279 159.366 25.3594 158.578 25.3594 157.676C25.3594 156.771 25.5279 155.979 25.8651 155.301C26.2022 154.623 26.6757 154.097 27.2855 153.722C27.8954 153.347 28.6094 153.159 29.4276 153.159C30.2457 153.159 30.9598 153.347 31.5696 153.722C32.1795 154.097 32.6529 154.623 32.9901 155.301C33.3272 155.979 33.4957 156.771 33.4957 157.676C33.4957 158.578 33.3272 159.366 32.9901 160.04C32.6529 160.714 32.1795 161.239 31.5696 161.614C30.9598 161.989 30.2457 162.176 29.4276 162.176ZM29.4332 160.75C29.9635 160.75 30.4029 160.61 30.7514 160.33C31.0999 160.049 31.3575 159.676 31.5241 159.21C31.6946 158.744 31.7798 158.231 31.7798 157.67C31.7798 157.114 31.6946 156.602 31.5241 156.136C31.3575 155.667 31.0999 155.29 30.7514 155.006C30.4029 154.722 29.9635 154.58 29.4332 154.58C28.8991 154.58 28.456 154.722 28.1037 155.006C27.7552 155.29 27.4957 155.667 27.3253 156.136C27.1586 156.602 27.0753 157.114 27.0753 157.67C27.0753 158.231 27.1586 158.744 27.3253 159.21C27.4957 159.676 27.7552 160.049 28.1037 160.33C28.456 160.61 28.8991 160.75 29.4332 160.75ZM35.392 162V153.273H37.0341V154.659H37.125C37.2841 154.189 37.5644 153.82 37.9659 153.551C38.3712 153.278 38.8295 153.142 39.3409 153.142C39.447 153.142 39.572 153.146 39.7159 153.153C39.8636 153.161 39.9792 153.17 40.0625 153.182V154.807C39.9943 154.788 39.8731 154.767 39.6989 154.744C39.5246 154.718 39.3504 154.705 39.1761 154.705C38.7746 154.705 38.4167 154.79 38.1023 154.96C37.7917 155.127 37.5455 155.36 37.3636 155.659C37.1818 155.955 37.0909 156.292 37.0909 156.67V162H35.392ZM41.5327 162V153.273H43.2315V162H41.5327ZM42.3906 151.926C42.0952 151.926 41.8414 151.828 41.6293 151.631C41.4209 151.43 41.3168 151.191 41.3168 150.915C41.3168 150.634 41.4209 150.396 41.6293 150.199C41.8414 149.998 42.0952 149.898 42.3906 149.898C42.6861 149.898 42.938 149.998 43.1463 150.199C43.3584 150.396 43.4645 150.634 43.4645 150.915C43.4645 151.191 43.3584 151.43 43.1463 151.631C42.938 151.828 42.6861 151.926 42.3906 151.926ZM48.0568 162.193C47.5038 162.193 47.0038 162.091 46.5568 161.886C46.1098 161.678 45.7557 161.377 45.4943 160.983C45.2367 160.589 45.108 160.106 45.108 159.534C45.108 159.042 45.2027 158.636 45.392 158.318C45.5814 158 45.8371 157.748 46.1591 157.562C46.4811 157.377 46.8409 157.237 47.2386 157.142C47.6364 157.047 48.0417 156.975 48.4545 156.926C48.9773 156.866 49.4015 156.816 49.7273 156.778C50.053 156.737 50.2898 156.67 50.4375 156.58C50.5852 156.489 50.6591 156.341 50.6591 156.136V156.097C50.6591 155.6 50.5189 155.216 50.2386 154.943C49.9621 154.67 49.5492 154.534 49 154.534C48.428 154.534 47.9773 154.661 47.6477 154.915C47.322 155.165 47.0966 155.443 46.9716 155.75L45.375 155.386C45.5644 154.856 45.8409 154.428 46.2045 154.102C46.572 153.773 46.9943 153.534 47.4716 153.386C47.9489 153.235 48.4508 153.159 48.9773 153.159C49.3258 153.159 49.6951 153.201 50.0852 153.284C50.4792 153.364 50.8466 153.511 51.1875 153.727C51.5322 153.943 51.8144 154.252 52.0341 154.653C52.2538 155.051 52.3636 155.568 52.3636 156.205V162H50.7045V160.807H50.6364C50.5265 161.027 50.3617 161.242 50.142 161.455C49.9223 161.667 49.6402 161.843 49.2955 161.983C48.9508 162.123 48.5379 162.193 48.0568 162.193ZM48.4261 160.83C48.8958 160.83 49.2973 160.737 49.6307 160.551C49.9678 160.366 50.2235 160.123 50.3977 159.824C50.5758 159.521 50.6648 159.197 50.6648 158.852V157.727C50.6042 157.788 50.4867 157.845 50.3125 157.898C50.142 157.947 49.947 157.991 49.7273 158.028C49.5076 158.062 49.2936 158.095 49.0852 158.125C48.8769 158.152 48.7027 158.174 48.5625 158.193C48.233 158.235 47.9318 158.305 47.6591 158.403C47.3902 158.502 47.1742 158.644 47.0114 158.83C46.8523 159.011 46.7727 159.254 46.7727 159.557C46.7727 159.977 46.928 160.295 47.2386 160.511C47.5492 160.723 47.9451 160.83 48.4261 160.83ZM56.3253 150.364V162H54.6264V150.364H56.3253ZM65.1506 155.403L63.6108 155.676C63.5464 155.479 63.4441 155.292 63.304 155.114C63.1676 154.936 62.982 154.79 62.7472 154.676C62.5123 154.562 62.2188 154.506 61.8665 154.506C61.3854 154.506 60.9839 154.614 60.6619 154.83C60.34 155.042 60.179 155.316 60.179 155.653C60.179 155.945 60.2869 156.18 60.5028 156.358C60.7188 156.536 61.0672 156.682 61.5483 156.795L62.9347 157.114C63.7377 157.299 64.3362 157.585 64.7301 157.972C65.1241 158.358 65.321 158.86 65.321 159.477C65.321 160 65.1695 160.466 64.8665 160.875C64.5672 161.28 64.1487 161.598 63.6108 161.83C63.0767 162.061 62.4574 162.176 61.7528 162.176C60.7756 162.176 59.9782 161.968 59.3608 161.551C58.7434 161.131 58.3646 160.534 58.2244 159.761L59.8665 159.511C59.9688 159.939 60.179 160.263 60.4972 160.483C60.8153 160.699 61.2301 160.807 61.7415 160.807C62.2983 160.807 62.7434 160.691 63.0767 160.46C63.41 160.225 63.5767 159.939 63.5767 159.602C63.5767 159.33 63.4744 159.1 63.2699 158.915C63.0691 158.729 62.7604 158.589 62.3438 158.494L60.8665 158.17C60.0521 157.985 59.4498 157.689 59.0597 157.284C58.6733 156.879 58.4801 156.366 58.4801 155.744C58.4801 155.229 58.6241 154.778 58.9119 154.392C59.1998 154.006 59.5975 153.705 60.1051 153.489C60.6127 153.269 61.1941 153.159 61.8494 153.159C62.7926 153.159 63.535 153.364 64.0767 153.773C64.6184 154.178 64.9763 154.722 65.1506 155.403Z" fill="#535862"/>
</g>
<g clip-path="url(#clip4_0_5351)">
<path d="M1.27841 198V186.364H5.42614C6.33144 186.364 7.08144 186.528 7.67614 186.858C8.27083 187.187 8.71591 187.638 9.01136 188.21C9.30682 188.778 9.45455 189.419 9.45455 190.131C9.45455 190.847 9.30492 191.491 9.00568 192.062C8.71023 192.631 8.26326 193.081 7.66477 193.415C7.07008 193.744 6.32197 193.909 5.42045 193.909H2.56818V192.42H5.26136C5.83333 192.42 6.29735 192.322 6.65341 192.125C7.00947 191.924 7.27083 191.652 7.4375 191.307C7.60417 190.962 7.6875 190.57 7.6875 190.131C7.6875 189.691 7.60417 189.301 7.4375 188.96C7.27083 188.619 7.00758 188.352 6.64773 188.159C6.29167 187.966 5.82197 187.869 5.23864 187.869H3.03409V198H1.27841ZM11.3764 198V189.273H13.0185V190.659H13.1094C13.2685 190.189 13.5488 189.82 13.9503 189.551C14.3556 189.278 14.8139 189.142 15.3253 189.142C15.4313 189.142 15.5563 189.146 15.7003 189.153C15.848 189.161 15.9635 189.17 16.0469 189.182V190.807C15.9787 190.788 15.8575 190.767 15.6832 190.744C15.509 190.718 15.3348 190.705 15.1605 190.705C14.759 190.705 14.401 190.79 14.0866 190.96C13.776 191.127 13.5298 191.36 13.348 191.659C13.1662 191.955 13.0753 192.292 13.0753 192.67V198H11.3764ZM17.517 198V189.273H19.2159V198H17.517ZM18.375 187.926C18.0795 187.926 17.8258 187.828 17.6136 187.631C17.4053 187.43 17.3011 187.191 17.3011 186.915C17.3011 186.634 17.4053 186.396 17.6136 186.199C17.8258 185.998 18.0795 185.898 18.375 185.898C18.6705 185.898 18.9223 185.998 19.1307 186.199C19.3428 186.396 19.4489 186.634 19.4489 186.915C19.4489 187.191 19.3428 187.43 19.1307 187.631C18.9223 187.828 18.6705 187.926 18.375 187.926ZM25.1776 198.176C24.3329 198.176 23.6056 197.985 22.9957 197.602C22.3897 197.216 21.9238 196.684 21.598 196.006C21.2723 195.328 21.1094 194.551 21.1094 193.676C21.1094 192.79 21.276 192.008 21.6094 191.33C21.9427 190.648 22.4124 190.116 23.0185 189.733C23.6245 189.35 24.3385 189.159 25.1605 189.159C25.8234 189.159 26.4143 189.282 26.9332 189.528C27.4522 189.771 27.8707 190.112 28.1889 190.551C28.5109 190.991 28.7022 191.504 28.7628 192.091H27.1094C27.0185 191.682 26.8101 191.33 26.4844 191.034C26.1624 190.739 25.7306 190.591 25.1889 190.591C24.7154 190.591 24.3007 190.716 23.9446 190.966C23.5923 191.212 23.3177 191.564 23.1207 192.023C22.9238 192.477 22.8253 193.015 22.8253 193.636C22.8253 194.273 22.9219 194.822 23.1151 195.284C23.3082 195.746 23.581 196.104 23.9332 196.358C24.2893 196.612 24.7079 196.739 25.1889 196.739C25.5109 196.739 25.8026 196.68 26.0639 196.562C26.3291 196.441 26.5507 196.269 26.7287 196.045C26.9105 195.822 27.0374 195.553 27.1094 195.239H28.7628C28.7022 195.803 28.5185 196.307 28.2116 196.75C27.9048 197.193 27.4938 197.542 26.9787 197.795C26.4673 198.049 25.867 198.176 25.1776 198.176ZM30.5795 198V189.273H32.2784V198H30.5795ZM31.4375 187.926C31.142 187.926 30.8883 187.828 30.6761 187.631C30.4678 187.43 30.3636 187.191 30.3636 186.915C30.3636 186.634 30.4678 186.396 30.6761 186.199C30.8883 185.998 31.142 185.898 31.4375 185.898C31.733 185.898 31.9848 185.998 32.1932 186.199C32.4053 186.396 32.5114 186.634 32.5114 186.915C32.5114 187.191 32.4053 187.43 32.1932 187.631C31.9848 187.828 31.733 187.926 31.4375 187.926ZM36.2628 192.818V198H34.5639V189.273H36.1946V190.693H36.3026C36.5033 190.231 36.8177 189.86 37.2457 189.58C37.6776 189.299 38.2211 189.159 38.8764 189.159C39.4711 189.159 39.992 189.284 40.4389 189.534C40.8859 189.78 41.2325 190.148 41.4787 190.636C41.7249 191.125 41.848 191.729 41.848 192.449V198H40.1491V192.653C40.1491 192.021 39.9844 191.527 39.6548 191.17C39.3253 190.811 38.8726 190.631 38.2969 190.631C37.9029 190.631 37.5526 190.716 37.2457 190.886C36.9427 191.057 36.7022 191.307 36.5241 191.636C36.3499 191.962 36.2628 192.356 36.2628 192.818ZM47.7855 201.455C47.0923 201.455 46.4957 201.364 45.9957 201.182C45.4995 201 45.0942 200.759 44.7798 200.46C44.4654 200.161 44.2306 199.833 44.0753 199.477L45.5355 198.875C45.6378 199.042 45.7741 199.218 45.9446 199.403C46.1188 199.593 46.3537 199.754 46.6491 199.886C46.9484 200.019 47.3329 200.085 47.8026 200.085C48.4465 200.085 48.9787 199.928 49.3991 199.614C49.8196 199.303 50.0298 198.807 50.0298 198.125V196.409H49.9219C49.8196 196.595 49.6719 196.801 49.4787 197.028C49.2893 197.256 49.0279 197.453 48.6946 197.619C48.3613 197.786 47.9276 197.869 47.3935 197.869C46.7041 197.869 46.0829 197.708 45.5298 197.386C44.9806 197.061 44.545 196.581 44.223 195.949C43.9048 195.312 43.7457 194.53 43.7457 193.602C43.7457 192.674 43.9029 191.879 44.2173 191.216C44.5355 190.553 44.9711 190.045 45.5241 189.693C46.0772 189.337 46.7041 189.159 47.4048 189.159C47.9465 189.159 48.384 189.25 48.7173 189.432C49.0507 189.61 49.3101 189.818 49.4957 190.057C49.6851 190.295 49.831 190.506 49.9332 190.688H50.0582V189.273H51.723V198.193C51.723 198.943 51.5488 199.559 51.2003 200.04C50.8518 200.521 50.3802 200.877 49.7855 201.108C49.1946 201.339 48.5279 201.455 47.7855 201.455ZM47.7685 196.46C48.2571 196.46 48.67 196.347 49.0071 196.119C49.348 195.888 49.6056 195.559 49.7798 195.131C49.9579 194.699 50.0469 194.182 50.0469 193.58C50.0469 192.992 49.9598 192.475 49.7855 192.028C49.6113 191.581 49.3556 191.233 49.0185 190.983C48.6813 190.729 48.2647 190.602 47.7685 190.602C47.2571 190.602 46.831 190.735 46.4901 191C46.1491 191.261 45.8916 191.617 45.7173 192.068C45.5469 192.519 45.4616 193.023 45.4616 193.58C45.4616 194.152 45.5488 194.653 45.723 195.085C45.8973 195.517 46.1548 195.854 46.4957 196.097C46.8404 196.339 47.2647 196.46 47.7685 196.46Z" fill="#535862"/>
</g>
<g clip-path="url(#clip5_0_5351)">
<path d="M1.27841 234V222.364H5.42614C6.32765 222.364 7.07576 222.519 7.67045 222.83C8.26894 223.14 8.71591 223.57 9.01136 224.119C9.30682 224.665 9.45455 225.295 9.45455 226.011C9.45455 226.723 9.30492 227.35 9.00568 227.892C8.71023 228.43 8.26326 228.848 7.66477 229.148C7.07008 229.447 6.32197 229.597 5.42045 229.597H2.27841V228.085H5.26136C5.82955 228.085 6.29167 228.004 6.64773 227.841C7.00758 227.678 7.27083 227.441 7.4375 227.131C7.60417 226.82 7.6875 226.447 7.6875 226.011C7.6875 225.572 7.60227 225.191 7.43182 224.869C7.26515 224.547 7.00189 224.301 6.64205 224.131C6.28598 223.956 5.81818 223.869 5.23864 223.869H3.03409V234H1.27841ZM7.02273 228.75L9.89773 234H7.89773L5.07955 228.75H7.02273ZM15.1065 234.176C14.2467 234.176 13.5062 233.992 12.8849 233.625C12.2675 233.254 11.7902 232.733 11.4531 232.062C11.1198 231.388 10.9531 230.598 10.9531 229.693C10.9531 228.799 11.1198 228.011 11.4531 227.33C11.7902 226.648 12.2599 226.116 12.8622 225.733C13.4683 225.35 14.1766 225.159 14.9872 225.159C15.4796 225.159 15.9569 225.241 16.419 225.403C16.8812 225.566 17.2959 225.822 17.6634 226.17C18.0308 226.519 18.3205 226.972 18.5327 227.528C18.7448 228.081 18.8509 228.754 18.8509 229.545V230.148H11.9134V228.875H17.1861C17.1861 228.428 17.0952 228.032 16.9134 227.688C16.7315 227.339 16.4759 227.064 16.1463 226.864C15.8205 226.663 15.438 226.562 14.9986 226.562C14.5213 226.562 14.1046 226.68 13.7486 226.915C13.3963 227.146 13.1236 227.449 12.9304 227.824C12.741 228.195 12.6463 228.598 12.6463 229.034V230.028C12.6463 230.612 12.7486 231.108 12.9531 231.517C13.1615 231.926 13.4512 232.239 13.8224 232.455C14.1937 232.667 14.6274 232.773 15.1236 232.773C15.4455 232.773 15.7391 232.727 16.0043 232.636C16.2694 232.542 16.4986 232.402 16.6918 232.216C16.8849 232.03 17.0327 231.801 17.1349 231.528L18.7429 231.818C18.6141 232.292 18.383 232.706 18.0497 233.062C17.7202 233.415 17.3054 233.689 16.8054 233.886C16.3092 234.08 15.7429 234.176 15.1065 234.176ZM22.4347 222.364V234H20.7358V222.364H22.4347ZM28.4815 234.176C27.6217 234.176 26.8812 233.992 26.2599 233.625C25.6425 233.254 25.1652 232.733 24.8281 232.062C24.4948 231.388 24.3281 230.598 24.3281 229.693C24.3281 228.799 24.4948 228.011 24.8281 227.33C25.1652 226.648 25.6349 226.116 26.2372 225.733C26.8433 225.35 27.5516 225.159 28.3622 225.159C28.8546 225.159 29.3319 225.241 29.794 225.403C30.2562 225.566 30.6709 225.822 31.0384 226.17C31.4058 226.519 31.6955 226.972 31.9077 227.528C32.1198 228.081 32.2259 228.754 32.2259 229.545V230.148H25.2884V228.875H30.5611C30.5611 228.428 30.4702 228.032 30.2884 227.688C30.1065 227.339 29.8509 227.064 29.5213 226.864C29.1955 226.663 28.813 226.562 28.3736 226.562C27.8963 226.562 27.4796 226.68 27.1236 226.915C26.7713 227.146 26.4986 227.449 26.3054 227.824C26.116 228.195 26.0213 228.598 26.0213 229.034V230.028C26.0213 230.612 26.1236 231.108 26.3281 231.517C26.5365 231.926 26.8262 232.239 27.1974 232.455C27.5687 232.667 28.0024 232.773 28.4986 232.773C28.8205 232.773 29.1141 232.727 29.3793 232.636C29.6444 232.542 29.8736 232.402 30.0668 232.216C30.2599 232.03 30.4077 231.801 30.5099 231.528L32.1179 231.818C31.9891 232.292 31.758 232.706 31.4247 233.062C31.0952 233.415 30.6804 233.689 30.1804 233.886C29.6842 234.08 29.1179 234.176 28.4815 234.176ZM36.6506 234.193C36.0975 234.193 35.5975 234.091 35.1506 233.886C34.7036 233.678 34.3494 233.377 34.0881 232.983C33.8305 232.589 33.7017 232.106 33.7017 231.534C33.7017 231.042 33.7964 230.636 33.9858 230.318C34.1752 230 34.4309 229.748 34.7528 229.562C35.0748 229.377 35.4347 229.237 35.8324 229.142C36.2301 229.047 36.6354 228.975 37.0483 228.926C37.571 228.866 37.9953 228.816 38.321 228.778C38.6468 228.737 38.8835 228.67 39.0312 228.58C39.179 228.489 39.2528 228.341 39.2528 228.136V228.097C39.2528 227.6 39.1127 227.216 38.8324 226.943C38.5559 226.67 38.143 226.534 37.5938 226.534C37.0218 226.534 36.571 226.661 36.2415 226.915C35.9157 227.165 35.6903 227.443 35.5653 227.75L33.9688 227.386C34.1581 226.856 34.4347 226.428 34.7983 226.102C35.1657 225.773 35.5881 225.534 36.0653 225.386C36.5426 225.235 37.0445 225.159 37.571 225.159C37.9195 225.159 38.2888 225.201 38.679 225.284C39.0729 225.364 39.4403 225.511 39.7812 225.727C40.1259 225.943 40.4081 226.252 40.6278 226.653C40.8475 227.051 40.9574 227.568 40.9574 228.205V234H39.2983V232.807H39.2301C39.1203 233.027 38.9555 233.242 38.7358 233.455C38.5161 233.667 38.2339 233.843 37.8892 233.983C37.5445 234.123 37.1316 234.193 36.6506 234.193ZM37.0199 232.83C37.4896 232.83 37.8911 232.737 38.2244 232.551C38.5616 232.366 38.8172 232.123 38.9915 231.824C39.1695 231.521 39.2585 231.197 39.2585 230.852V229.727C39.1979 229.788 39.0805 229.845 38.9062 229.898C38.7358 229.947 38.5407 229.991 38.321 230.028C38.1013 230.062 37.8873 230.095 37.679 230.125C37.4706 230.152 37.2964 230.174 37.1562 230.193C36.8267 230.235 36.5256 230.305 36.2528 230.403C35.9839 230.502 35.768 230.644 35.6051 230.83C35.446 231.011 35.3665 231.254 35.3665 231.557C35.3665 231.977 35.5218 232.295 35.8324 232.511C36.143 232.723 36.5388 232.83 37.0199 232.83ZM49.7599 227.403L48.2202 227.676C48.1558 227.479 48.0535 227.292 47.9134 227.114C47.777 226.936 47.5914 226.79 47.3565 226.676C47.1217 226.562 46.8281 226.506 46.4759 226.506C45.9948 226.506 45.5933 226.614 45.2713 226.83C44.9493 227.042 44.7884 227.316 44.7884 227.653C44.7884 227.945 44.8963 228.18 45.1122 228.358C45.3281 228.536 45.6766 228.682 46.1577 228.795L47.544 229.114C48.3471 229.299 48.9455 229.585 49.3395 229.972C49.7334 230.358 49.9304 230.86 49.9304 231.477C49.9304 232 49.7789 232.466 49.4759 232.875C49.1766 233.28 48.758 233.598 48.2202 233.83C47.6861 234.061 47.0668 234.176 46.3622 234.176C45.3849 234.176 44.5876 233.968 43.9702 233.551C43.3527 233.131 42.974 232.534 42.8338 231.761L44.4759 231.511C44.5781 231.939 44.7884 232.263 45.1065 232.483C45.4247 232.699 45.8395 232.807 46.3509 232.807C46.9077 232.807 47.3527 232.691 47.6861 232.46C48.0194 232.225 48.1861 231.939 48.1861 231.602C48.1861 231.33 48.0838 231.1 47.8793 230.915C47.6785 230.729 47.3698 230.589 46.9531 230.494L45.4759 230.17C44.6615 229.985 44.0592 229.689 43.669 229.284C43.2827 228.879 43.0895 228.366 43.0895 227.744C43.0895 227.229 43.2334 226.778 43.5213 226.392C43.8092 226.006 44.2069 225.705 44.7145 225.489C45.2221 225.269 45.8035 225.159 46.4588 225.159C47.402 225.159 48.1444 225.364 48.6861 225.773C49.2277 226.178 49.5857 226.722 49.7599 227.403ZM55.5597 234.176C54.6998 234.176 53.9593 233.992 53.3381 233.625C52.7206 233.254 52.2434 232.733 51.9062 232.062C51.5729 231.388 51.4062 230.598 51.4062 229.693C51.4062 228.799 51.5729 228.011 51.9062 227.33C52.2434 226.648 52.7131 226.116 53.3153 225.733C53.9214 225.35 54.6297 225.159 55.4403 225.159C55.9328 225.159 56.41 225.241 56.8722 225.403C57.3343 225.566 57.7491 225.822 58.1165 226.17C58.4839 226.519 58.7737 226.972 58.9858 227.528C59.1979 228.081 59.304 228.754 59.304 229.545V230.148H52.3665V228.875H57.6392C57.6392 228.428 57.5483 228.032 57.3665 227.688C57.1847 227.339 56.929 227.064 56.5994 226.864C56.2737 226.663 55.8911 226.562 55.4517 226.562C54.9744 226.562 54.5578 226.68 54.2017 226.915C53.8494 227.146 53.5767 227.449 53.3835 227.824C53.1941 228.195 53.0994 228.598 53.0994 229.034V230.028C53.0994 230.612 53.2017 231.108 53.4062 231.517C53.6146 231.926 53.9044 232.239 54.2756 232.455C54.6468 232.667 55.0805 232.773 55.5767 232.773C55.8987 232.773 56.1922 232.727 56.4574 232.636C56.7225 232.542 56.9517 232.402 57.1449 232.216C57.3381 232.03 57.4858 231.801 57.5881 231.528L59.196 231.818C59.0672 232.292 58.8362 232.706 58.5028 233.062C58.1733 233.415 57.7585 233.689 57.2585 233.886C56.7623 234.08 56.196 234.176 55.5597 234.176ZM67.7287 227.403L66.1889 227.676C66.1245 227.479 66.0223 227.292 65.8821 227.114C65.7457 226.936 65.5601 226.79 65.3253 226.676C65.0904 226.562 64.7969 226.506 64.4446 226.506C63.9635 226.506 63.562 226.614 63.2401 226.83C62.9181 227.042 62.7571 227.316 62.7571 227.653C62.7571 227.945 62.8651 228.18 63.081 228.358C63.2969 228.536 63.6454 228.682 64.1264 228.795L65.5128 229.114C66.3158 229.299 66.9143 229.585 67.3082 229.972C67.7022 230.358 67.8991 230.86 67.8991 231.477C67.8991 232 67.7476 232.466 67.4446 232.875C67.1454 233.28 66.7268 233.598 66.1889 233.83C65.6548 234.061 65.0355 234.176 64.331 234.176C63.3537 234.176 62.5563 233.968 61.9389 233.551C61.3215 233.131 60.9427 232.534 60.8026 231.761L62.4446 231.511C62.5469 231.939 62.7571 232.263 63.0753 232.483C63.3935 232.699 63.8082 232.807 64.3196 232.807C64.8764 232.807 65.3215 232.691 65.6548 232.46C65.9882 232.225 66.1548 231.939 66.1548 231.602C66.1548 231.33 66.0526 231.1 65.848 230.915C65.6473 230.729 65.3385 230.589 64.9219 230.494L63.4446 230.17C62.6302 229.985 62.0279 229.689 61.6378 229.284C61.2514 228.879 61.0582 228.366 61.0582 227.744C61.0582 227.229 61.2022 226.778 61.4901 226.392C61.7779 226.006 62.1757 225.705 62.6832 225.489C63.1908 225.269 63.7723 225.159 64.4276 225.159C65.3707 225.159 66.1132 225.364 66.6548 225.773C67.1965 226.178 67.5545 226.722 67.7287 227.403Z" fill="#535862"/>
</g>
<defs>
<clipPath id="clip0_0_5351">
<rect width="73" height="24" fill="white" transform="translate(0 36)"/>
</clipPath>
<clipPath id="clip1_0_5351">
<rect width="67" height="24" fill="white" transform="translate(0 72)"/>
</clipPath>
<clipPath id="clip2_0_5351">
<rect width="72" height="24" fill="white" transform="translate(0 108)"/>
</clipPath>
<clipPath id="clip3_0_5351">
<rect width="67" height="24" fill="white" transform="translate(0 144)"/>
</clipPath>
<clipPath id="clip4_0_5351">
<rect width="53" height="24" fill="white" transform="translate(0 180)"/>
</clipPath>
<clipPath id="clip5_0_5351">
<rect width="69" height="24" fill="white" transform="translate(0 216)"/>
</clipPath>
</defs>
</svg>
