<svg width="176" height="240" viewBox="0 0 176 240" fill="none" xmlns="http://www.w3.org/2000/svg">
<path d="M1.00426 15V4.81818H2.84872V13.4538H7.3331V15H1.00426ZM12.2351 15.1491C11.4695 15.1491 10.8082 14.9901 10.2514 14.6719C9.69792 14.3504 9.27202 13.8963 8.97372 13.3097C8.67543 12.7197 8.52628 12.0253 8.52628 11.2266C8.52628 10.4411 8.67543 9.75166 8.97372 9.15838C9.27533 8.56179 9.69626 8.09777 10.2365 7.76633C10.7768 7.43158 11.4115 7.2642 12.1406 7.2642C12.6113 7.2642 13.0554 7.34044 13.473 7.4929C13.8939 7.64205 14.2652 7.87405 14.5866 8.18892C14.9115 8.50379 15.1667 8.90483 15.3523 9.39205C15.5379 9.87595 15.6307 10.4527 15.6307 11.1222V11.674H9.37145V10.4609H13.9055C13.9022 10.1162 13.8277 9.80966 13.6818 9.54119C13.536 9.26941 13.3321 9.05563 13.0703 8.89986C12.8118 8.74408 12.5102 8.66619 12.1655 8.66619C11.7976 8.66619 11.4744 8.75568 11.196 8.93466C10.9176 9.11032 10.7005 9.34233 10.5447 9.63068C10.3923 9.91572 10.3144 10.2289 10.3111 10.5703V11.6293C10.3111 12.0734 10.3923 12.4545 10.5547 12.7727C10.7171 13.0876 10.9441 13.3295 11.2358 13.4986C11.5275 13.6643 11.8688 13.7472 12.2599 13.7472C12.5218 13.7472 12.7588 13.7107 12.9709 13.6378C13.183 13.5616 13.367 13.4505 13.5227 13.3047C13.6785 13.1589 13.7962 12.9782 13.8757 12.7628L15.5561 12.9517C15.45 13.3958 15.2479 13.7836 14.9496 14.1151C14.6546 14.4432 14.2768 14.6984 13.8161 14.8807C13.3554 15.0597 12.8284 15.1491 12.2351 15.1491ZM20.4743 18.0227C19.8279 18.0227 19.2728 17.9349 18.8088 17.7592C18.3448 17.5869 17.9719 17.3549 17.6902 17.0632C17.4084 16.7715 17.2129 16.4484 17.1035 16.0938L18.7243 15.701C18.7972 15.8501 18.9032 15.9976 19.0424 16.1435C19.1816 16.2926 19.3689 16.4152 19.6042 16.5114C19.8429 16.6108 20.1428 16.6605 20.5041 16.6605C21.0145 16.6605 21.4371 16.5362 21.7718 16.2876C22.1066 16.0424 22.274 15.638 22.274 15.0746V13.6278H22.1845C22.0917 13.8134 21.9558 14.004 21.7768 14.1996C21.6011 14.3951 21.3675 14.5592 21.0758 14.6918C20.7875 14.8243 20.4245 14.8906 19.987 14.8906C19.4004 14.8906 18.8684 14.7531 18.3912 14.478C17.9172 14.1996 17.5394 13.7853 17.2576 13.2351C16.9792 12.6816 16.84 11.9889 16.84 11.157C16.84 10.3184 16.9792 9.6108 17.2576 9.03409C17.5394 8.45407 17.9189 8.01491 18.3961 7.71662C18.8734 7.41501 19.4054 7.2642 19.992 7.2642C20.4395 7.2642 20.8074 7.34044 21.0957 7.4929C21.3874 7.64205 21.6194 7.82268 21.7917 8.0348C21.9641 8.24361 22.095 8.44081 22.1845 8.62642H22.2839V7.36364H24.0588V15.1243C24.0588 15.7772 23.903 16.3175 23.5914 16.745C23.2799 17.1726 22.854 17.4924 22.3137 17.7045C21.7735 17.9167 21.1603 18.0227 20.4743 18.0227ZM20.4892 13.4787C20.8703 13.4787 21.1951 13.3859 21.4636 13.2003C21.7321 13.0147 21.9359 12.7479 22.0751 12.3999C22.2143 12.0518 22.2839 11.6342 22.2839 11.147C22.2839 10.6664 22.2143 10.2455 22.0751 9.88423C21.9392 9.52296 21.737 9.2429 21.4686 9.04403C21.2034 8.84186 20.877 8.74077 20.4892 8.74077C20.0881 8.74077 19.7534 8.84517 19.4849 9.05398C19.2164 9.26278 19.0143 9.54948 18.8784 9.91406C18.7425 10.2753 18.6745 10.6863 18.6745 11.147C18.6745 11.6143 18.7425 12.0237 18.8784 12.375C19.0176 12.723 19.2214 12.9948 19.4899 13.1903C19.7617 13.3826 20.0948 13.4787 20.4892 13.4787ZM28.1007 15.1541C27.6168 15.1541 27.1809 15.0679 26.7931 14.8956C26.4087 14.7199 26.1038 14.4614 25.8784 14.12C25.6563 13.7786 25.5453 13.3577 25.5453 12.8572C25.5453 12.4264 25.6248 12.0701 25.7839 11.7884C25.943 11.5066 26.1601 11.2812 26.4352 11.1122C26.7103 10.9432 27.0202 10.8156 27.3649 10.7294C27.7129 10.6399 28.0725 10.5753 28.4437 10.5355C28.8912 10.4891 29.2541 10.4477 29.5325 10.4112C29.8109 10.3714 30.0131 10.3118 30.139 10.2322C30.2683 10.1494 30.3329 10.0218 30.3329 9.84943V9.8196C30.3329 9.44508 30.2219 9.15507 29.9998 8.94957C29.7778 8.74408 29.4579 8.64134 29.0403 8.64134C28.5995 8.64134 28.2498 8.73745 27.9913 8.92969C27.7361 9.12192 27.5637 9.34896 27.4743 9.6108L25.7939 9.37216C25.9264 8.90814 26.1452 8.52036 26.4501 8.20881C26.755 7.89394 27.1279 7.65862 27.5687 7.50284C28.0095 7.34375 28.4967 7.2642 29.0304 7.2642C29.3983 7.2642 29.7645 7.30729 30.1291 7.39347C30.4937 7.47964 30.8268 7.62216 31.1284 7.82102C31.43 8.01657 31.6719 8.28338 31.8542 8.62145C32.0398 8.95952 32.1326 9.3821 32.1326 9.8892V15H30.4025V13.951H30.3429C30.2335 14.1631 30.0794 14.362 29.8805 14.5476C29.685 14.7299 29.438 14.8774 29.1397 14.9901C28.8448 15.0994 28.4984 15.1541 28.1007 15.1541ZM28.568 13.8317C28.9293 13.8317 29.2425 13.7604 29.5076 13.6179C29.7728 13.4721 29.9766 13.2798 30.1191 13.0412C30.265 12.8026 30.3379 12.5424 30.3379 12.2607V11.3608C30.2815 11.4072 30.1854 11.4503 30.0495 11.4901C29.917 11.5298 29.7678 11.5646 29.6021 11.5945C29.4364 11.6243 29.2723 11.6508 29.1099 11.674C28.9475 11.6972 28.8066 11.7171 28.6873 11.7337C28.4189 11.7701 28.1786 11.8298 27.9664 11.9126C27.7543 11.9955 27.5869 12.1115 27.4643 12.2607C27.3417 12.4065 27.2804 12.5954 27.2804 12.8274C27.2804 13.1589 27.4013 13.4091 27.6433 13.5781C27.8852 13.7472 28.1935 13.8317 28.568 13.8317ZM35.742 4.81818V15H33.9423V4.81818H35.742Z" fill="white"/>
<g clip-path="url(#clip0_0_5397)">
<path d="M0.704545 43.875V42.3636H9.71023V43.875H6.07955V54H4.32955V43.875H0.704545ZM14.0597 54.1761C13.1998 54.1761 12.4593 53.9924 11.8381 53.625C11.2206 53.2538 10.7434 52.733 10.4062 52.0625C10.0729 51.3883 9.90625 50.5985 9.90625 49.6932C9.90625 48.7992 10.0729 48.0114 10.4062 47.3295C10.7434 46.6477 11.2131 46.1155 11.8153 45.733C12.4214 45.3504 13.1297 45.1591 13.9403 45.1591C14.4328 45.1591 14.91 45.2405 15.3722 45.4034C15.8343 45.5663 16.2491 45.822 16.6165 46.1705C16.9839 46.5189 17.2737 46.9716 17.4858 47.5284C17.6979 48.0814 17.804 48.7538 17.804 49.5455V50.1477H10.8665V48.875H16.1392C16.1392 48.428 16.0483 48.0322 15.8665 47.6875C15.6847 47.339 15.429 47.0644 15.0994 46.8636C14.7737 46.6629 14.3911 46.5625 13.9517 46.5625C13.4744 46.5625 13.0578 46.6799 12.7017 46.9148C12.3494 47.1458 12.0767 47.4489 11.8835 47.8239C11.6941 48.1951 11.5994 48.5985 11.5994 49.0341V50.0284C11.5994 50.6117 11.7017 51.108 11.9062 51.517C12.1146 51.9261 12.4044 52.2386 12.7756 52.4545C13.1468 52.6667 13.5805 52.7727 14.0767 52.7727C14.3987 52.7727 14.6922 52.7273 14.9574 52.6364C15.2225 52.5417 15.4517 52.4015 15.6449 52.2159C15.8381 52.0303 15.9858 51.8011 16.0881 51.5284L17.696 51.8182C17.5672 52.2917 17.3362 52.7064 17.0028 53.0625C16.6733 53.4148 16.2585 53.6894 15.7585 53.8864C15.2623 54.0795 14.696 54.1761 14.0597 54.1761ZM19.6889 54V45.2727H21.331V46.6591H21.4219C21.581 46.1894 21.8613 45.8201 22.2628 45.5511C22.6681 45.2784 23.1264 45.142 23.6378 45.142C23.7438 45.142 23.8688 45.1458 24.0128 45.1534C24.1605 45.161 24.276 45.1705 24.3594 45.1818V46.8068C24.2912 46.7879 24.17 46.767 23.9957 46.7443C23.8215 46.7178 23.6473 46.7045 23.473 46.7045C23.0715 46.7045 22.7135 46.7898 22.3991 46.9602C22.0885 47.1269 21.8423 47.3598 21.6605 47.6591C21.4787 47.9545 21.3878 48.2917 21.3878 48.6705V54H19.6889ZM25.8295 54V45.2727H27.4602V46.6932H27.5682C27.75 46.2121 28.0473 45.8371 28.4602 45.5682C28.8731 45.2955 29.3674 45.1591 29.9432 45.1591C30.5265 45.1591 31.0152 45.2955 31.4091 45.5682C31.8068 45.8409 32.1004 46.2159 32.2898 46.6932H32.3807C32.589 46.2273 32.9205 45.8561 33.375 45.5795C33.8295 45.2992 34.3712 45.1591 35 45.1591C35.7917 45.1591 36.4375 45.4072 36.9375 45.9034C37.4413 46.3996 37.6932 47.1477 37.6932 48.1477V54H35.9943V48.3068C35.9943 47.7159 35.8333 47.2879 35.5114 47.0227C35.1894 46.7576 34.8049 46.625 34.358 46.625C33.8049 46.625 33.375 46.7955 33.0682 47.1364C32.7614 47.4735 32.608 47.9072 32.608 48.4375V54H30.9148V48.1989C30.9148 47.7254 30.767 47.3447 30.4716 47.0568C30.1761 46.7689 29.7917 46.625 29.3182 46.625C28.9962 46.625 28.6989 46.7102 28.4261 46.8807C28.1572 47.0473 27.9394 47.2803 27.7727 47.5795C27.6098 47.8788 27.5284 48.2254 27.5284 48.6193V54H25.8295ZM46.5099 47.4034L44.9702 47.6761C44.9058 47.4792 44.8035 47.2917 44.6634 47.1136C44.527 46.9356 44.3414 46.7898 44.1065 46.6761C43.8717 46.5625 43.5781 46.5057 43.2259 46.5057C42.7448 46.5057 42.3433 46.6136 42.0213 46.8295C41.6993 47.0417 41.5384 47.3163 41.5384 47.6534C41.5384 47.9451 41.6463 48.1799 41.8622 48.358C42.0781 48.536 42.4266 48.6818 42.9077 48.7955L44.294 49.1136C45.0971 49.2992 45.6955 49.5852 46.0895 49.9716C46.4834 50.358 46.6804 50.8598 46.6804 51.4773C46.6804 52 46.5289 52.4659 46.2259 52.875C45.9266 53.2803 45.508 53.5985 44.9702 53.8295C44.4361 54.0606 43.8168 54.1761 43.1122 54.1761C42.1349 54.1761 41.3376 53.9678 40.7202 53.5511C40.1027 53.1307 39.724 52.5341 39.5838 51.7614L41.2259 51.5114C41.3281 51.9394 41.5384 52.2633 41.8565 52.483C42.1747 52.6989 42.5895 52.8068 43.1009 52.8068C43.6577 52.8068 44.1027 52.6913 44.4361 52.4602C44.7694 52.2254 44.9361 51.9394 44.9361 51.6023C44.9361 51.3295 44.8338 51.1004 44.6293 50.9148C44.4285 50.7292 44.1198 50.589 43.7031 50.4943L42.2259 50.1705C41.4115 49.9848 40.8092 49.6894 40.419 49.2841C40.0327 48.8788 39.8395 48.3655 39.8395 47.7443C39.8395 47.2292 39.9834 46.7784 40.2713 46.392C40.5592 46.0057 40.9569 45.7045 41.4645 45.4886C41.9721 45.2689 42.5535 45.1591 43.2088 45.1591C44.152 45.1591 44.8944 45.3636 45.4361 45.7727C45.9777 46.178 46.3357 46.7216 46.5099 47.4034Z" fill="#535862"/>
</g>
<g clip-path="url(#clip1_0_5397)">
<path d="M1.27841 90V78.3636H5.42614C6.33144 78.3636 7.08144 78.5284 7.67614 78.858C8.27083 79.1875 8.71591 79.6383 9.01136 80.2102C9.30682 80.7784 9.45455 81.4186 9.45455 82.1307C9.45455 82.8466 9.30492 83.4905 9.00568 84.0625C8.71023 84.6307 8.26326 85.0814 7.66477 85.4148C7.07008 85.7443 6.32197 85.9091 5.42045 85.9091H2.56818V84.4205H5.26136C5.83333 84.4205 6.29735 84.322 6.65341 84.125C7.00947 83.9242 7.27083 83.6515 7.4375 83.3068C7.60417 82.9621 7.6875 82.5701 7.6875 82.1307C7.6875 81.6913 7.60417 81.3011 7.4375 80.9602C7.27083 80.6193 7.00758 80.3523 6.64773 80.1591C6.29167 79.9659 5.82197 79.8693 5.23864 79.8693H3.03409V90H1.27841ZM11.3764 90V81.2727H13.0185V82.6591H13.1094C13.2685 82.1894 13.5488 81.8201 13.9503 81.5511C14.3556 81.2784 14.8139 81.142 15.3253 81.142C15.4313 81.142 15.5563 81.1458 15.7003 81.1534C15.848 81.161 15.9635 81.1705 16.0469 81.1818V82.8068C15.9787 82.7879 15.8575 82.767 15.6832 82.7443C15.509 82.7178 15.3348 82.7045 15.1605 82.7045C14.759 82.7045 14.401 82.7898 14.0866 82.9602C13.776 83.1269 13.5298 83.3598 13.348 83.6591C13.1662 83.9545 13.0753 84.2917 13.0753 84.6705V90H11.3764ZM17.517 90V81.2727H19.2159V90H17.517ZM18.375 79.9261C18.0795 79.9261 17.8258 79.8277 17.6136 79.6307C17.4053 79.4299 17.3011 79.1913 17.3011 78.9148C17.3011 78.6345 17.4053 78.3958 17.6136 78.1989C17.8258 77.9981 18.0795 77.8977 18.375 77.8977C18.6705 77.8977 18.9223 77.9981 19.1307 78.1989C19.3428 78.3958 19.4489 78.6345 19.4489 78.9148C19.4489 79.1913 19.3428 79.4299 19.1307 79.6307C18.9223 79.8277 18.6705 79.9261 18.375 79.9261ZM28.9673 81.2727L25.8026 90H23.9844L20.8139 81.2727H22.6378L24.848 87.9886H24.9389L27.1435 81.2727H28.9673ZM32.8537 90.1932C32.3007 90.1932 31.8007 90.0909 31.3537 89.8864C30.9067 89.678 30.5526 89.3769 30.2912 88.983C30.0336 88.589 29.9048 88.1061 29.9048 87.5341C29.9048 87.0417 29.9995 86.6364 30.1889 86.3182C30.3783 86 30.634 85.7481 30.956 85.5625C31.2779 85.3769 31.6378 85.2367 32.0355 85.142C32.4332 85.0473 32.8385 84.9754 33.2514 84.9261C33.7741 84.8655 34.1984 84.8163 34.5241 84.7784C34.8499 84.7367 35.0866 84.6705 35.2344 84.5795C35.3821 84.4886 35.456 84.3409 35.456 84.1364V84.0966C35.456 83.6004 35.3158 83.2159 35.0355 82.9432C34.759 82.6705 34.3461 82.5341 33.7969 82.5341C33.2249 82.5341 32.7741 82.661 32.4446 82.9148C32.1188 83.1648 31.8935 83.4432 31.7685 83.75L30.1719 83.3864C30.3613 82.8561 30.6378 82.428 31.0014 82.1023C31.3688 81.7727 31.7912 81.5341 32.2685 81.3864C32.7457 81.2348 33.2476 81.1591 33.7741 81.1591C34.1226 81.1591 34.492 81.2008 34.8821 81.2841C35.276 81.3636 35.6435 81.5114 35.9844 81.7273C36.3291 81.9432 36.6113 82.2519 36.831 82.6534C37.0507 83.0511 37.1605 83.5682 37.1605 84.2045V90H35.5014V88.8068H35.4332C35.3234 89.0265 35.1586 89.2424 34.9389 89.4545C34.7192 89.6667 34.437 89.8428 34.0923 89.983C33.7476 90.1231 33.3348 90.1932 32.8537 90.1932ZM33.223 88.8295C33.6927 88.8295 34.0942 88.7367 34.4276 88.5511C34.7647 88.3655 35.0204 88.1231 35.1946 87.8239C35.3726 87.5208 35.4616 87.197 35.4616 86.8523V85.7273C35.401 85.7879 35.2836 85.8447 35.1094 85.8977C34.9389 85.947 34.7438 85.9905 34.5241 86.0284C34.3045 86.0625 34.0904 86.0947 33.8821 86.125C33.6738 86.1515 33.4995 86.1742 33.3594 86.1932C33.0298 86.2348 32.7287 86.3049 32.456 86.4034C32.187 86.5019 31.9711 86.6439 31.8082 86.8295C31.6491 87.0114 31.5696 87.2538 31.5696 87.5568C31.5696 87.9773 31.7249 88.2955 32.0355 88.5114C32.3461 88.7235 32.742 88.8295 33.223 88.8295ZM43.0994 90.1761C42.2547 90.1761 41.5275 89.9848 40.9176 89.6023C40.3116 89.2159 39.8456 88.6837 39.5199 88.0057C39.1941 87.3277 39.0312 86.5511 39.0312 85.6761C39.0312 84.7898 39.1979 84.0076 39.5312 83.3295C39.8646 82.6477 40.3343 82.1155 40.9403 81.733C41.5464 81.3504 42.2604 81.1591 43.0824 81.1591C43.7453 81.1591 44.3362 81.2822 44.8551 81.5284C45.3741 81.7708 45.7926 82.1117 46.1108 82.5511C46.4328 82.9905 46.6241 83.5038 46.6847 84.0909H45.0312C44.9403 83.6818 44.732 83.3295 44.4062 83.0341C44.0843 82.7386 43.6525 82.5909 43.1108 82.5909C42.6373 82.5909 42.2225 82.7159 41.8665 82.9659C41.5142 83.2121 41.2396 83.5644 41.0426 84.0227C40.8456 84.4773 40.7472 85.0152 40.7472 85.6364C40.7472 86.2727 40.8438 86.822 41.0369 87.2841C41.2301 87.7462 41.5028 88.1042 41.8551 88.358C42.2112 88.6117 42.6297 88.7386 43.1108 88.7386C43.4328 88.7386 43.7244 88.6799 43.9858 88.5625C44.2509 88.4413 44.4725 88.2689 44.6506 88.0455C44.8324 87.822 44.9593 87.553 45.0312 87.2386H46.6847C46.6241 87.803 46.4403 88.3068 46.1335 88.75C45.8267 89.1932 45.4157 89.5417 44.9006 89.7955C44.3892 90.0492 43.7888 90.1761 43.0994 90.1761ZM49.5753 93.2727C49.3215 93.2727 49.0904 93.2519 48.8821 93.2102C48.6738 93.1723 48.5185 93.1307 48.4162 93.0852L48.8253 91.6932C49.1359 91.7765 49.4124 91.8125 49.6548 91.8011C49.8973 91.7898 50.1113 91.6989 50.2969 91.5284C50.4863 91.358 50.6529 91.0795 50.7969 90.6932L51.0071 90.1136L47.8139 81.2727H49.6321L51.8423 88.0455H51.9332L54.1435 81.2727H55.9673L52.3707 91.1648C52.2041 91.6193 51.992 92.0038 51.7344 92.3182C51.4768 92.6364 51.17 92.875 50.8139 93.0341C50.4579 93.1932 50.045 93.2727 49.5753 93.2727Z" fill="#535862"/>
</g>
<g clip-path="url(#clip2_0_5397)">
<path d="M10.9432 118.148H9.17045C9.10227 117.769 8.97538 117.436 8.78977 117.148C8.60417 116.86 8.37689 116.616 8.10795 116.415C7.83902 116.214 7.53788 116.062 7.20455 115.96C6.875 115.858 6.52462 115.807 6.15341 115.807C5.48295 115.807 4.88258 115.975 4.35227 116.312C3.82576 116.65 3.40909 117.144 3.10227 117.795C2.79924 118.447 2.64773 119.242 2.64773 120.182C2.64773 121.129 2.79924 121.928 3.10227 122.58C3.40909 123.231 3.82765 123.723 4.35795 124.057C4.88826 124.39 5.48485 124.557 6.14773 124.557C6.51515 124.557 6.86364 124.508 7.19318 124.409C7.52652 124.307 7.82765 124.157 8.09659 123.96C8.36553 123.763 8.5928 123.523 8.77841 123.239C8.9678 122.951 9.09848 122.621 9.17045 122.25L10.9432 122.256C10.8485 122.828 10.6648 123.354 10.392 123.835C10.1231 124.312 9.77652 124.725 9.35227 125.074C8.93182 125.419 8.45076 125.686 7.90909 125.875C7.36742 126.064 6.77652 126.159 6.13636 126.159C5.12879 126.159 4.23106 125.92 3.44318 125.443C2.6553 124.962 2.03409 124.275 1.57955 123.381C1.12879 122.487 0.903409 121.42 0.903409 120.182C0.903409 118.939 1.13068 117.873 1.58523 116.983C2.03977 116.089 2.66098 115.403 3.44886 114.926C4.23674 114.445 5.13258 114.205 6.13636 114.205C6.75379 114.205 7.32955 114.294 7.86364 114.472C8.40152 114.646 8.88447 114.903 9.3125 115.244C9.74053 115.581 10.0947 115.994 10.375 116.483C10.6553 116.968 10.8447 117.523 10.9432 118.148ZM16.5838 126.176C15.7656 126.176 15.0516 125.989 14.4418 125.614C13.8319 125.239 13.3584 124.714 13.0213 124.04C12.6842 123.366 12.5156 122.578 12.5156 121.676C12.5156 120.771 12.6842 119.979 13.0213 119.301C13.3584 118.623 13.8319 118.097 14.4418 117.722C15.0516 117.347 15.7656 117.159 16.5838 117.159C17.402 117.159 18.116 117.347 18.7259 117.722C19.3357 118.097 19.8092 118.623 20.1463 119.301C20.4834 119.979 20.652 120.771 20.652 121.676C20.652 122.578 20.4834 123.366 20.1463 124.04C19.8092 124.714 19.3357 125.239 18.7259 125.614C18.116 125.989 17.402 126.176 16.5838 126.176ZM16.5895 124.75C17.1198 124.75 17.5592 124.61 17.9077 124.33C18.2562 124.049 18.5137 123.676 18.6804 123.21C18.8509 122.744 18.9361 122.231 18.9361 121.67C18.9361 121.114 18.8509 120.602 18.6804 120.136C18.5137 119.667 18.2562 119.29 17.9077 119.006C17.5592 118.722 17.1198 118.58 16.5895 118.58C16.0554 118.58 15.6122 118.722 15.2599 119.006C14.9115 119.29 14.652 119.667 14.4815 120.136C14.3149 120.602 14.2315 121.114 14.2315 121.67C14.2315 122.231 14.3149 122.744 14.4815 123.21C14.652 123.676 14.9115 124.049 15.2599 124.33C15.6122 124.61 16.0554 124.75 16.5895 124.75ZM26.2244 126.176C25.4063 126.176 24.6922 125.989 24.0824 125.614C23.4725 125.239 22.9991 124.714 22.6619 124.04C22.3248 123.366 22.1562 122.578 22.1562 121.676C22.1562 120.771 22.3248 119.979 22.6619 119.301C22.9991 118.623 23.4725 118.097 24.0824 117.722C24.6922 117.347 25.4063 117.159 26.2244 117.159C27.0426 117.159 27.7566 117.347 28.3665 117.722C28.9763 118.097 29.4498 118.623 29.7869 119.301C30.1241 119.979 30.2926 120.771 30.2926 121.676C30.2926 122.578 30.1241 123.366 29.7869 124.04C29.4498 124.714 28.9763 125.239 28.3665 125.614C27.7566 125.989 27.0426 126.176 26.2244 126.176ZM26.2301 124.75C26.7604 124.75 27.1998 124.61 27.5483 124.33C27.8968 124.049 28.1544 123.676 28.321 123.21C28.4915 122.744 28.5767 122.231 28.5767 121.67C28.5767 121.114 28.4915 120.602 28.321 120.136C28.1544 119.667 27.8968 119.29 27.5483 119.006C27.1998 118.722 26.7604 118.58 26.2301 118.58C25.696 118.58 25.2528 118.722 24.9006 119.006C24.5521 119.29 24.2926 119.667 24.1222 120.136C23.9555 120.602 23.8722 121.114 23.8722 121.67C23.8722 122.231 23.9555 122.744 24.1222 123.21C24.2926 123.676 24.5521 124.049 24.9006 124.33C25.2528 124.61 25.696 124.75 26.2301 124.75ZM33.7514 123.04L33.7401 120.966H34.0355L37.5128 117.273H39.5469L35.581 121.477H35.3139L33.7514 123.04ZM32.1889 126V114.364H33.8878V126H32.1889ZM37.7003 126L34.5753 121.852L35.7457 120.665L39.7855 126H37.7003ZM41.0952 126V117.273H42.794V126H41.0952ZM41.9531 115.926C41.6577 115.926 41.4039 115.828 41.1918 115.631C40.9834 115.43 40.8793 115.191 40.8793 114.915C40.8793 114.634 40.9834 114.396 41.1918 114.199C41.4039 113.998 41.6577 113.898 41.9531 113.898C42.2486 113.898 42.5005 113.998 42.7088 114.199C42.9209 114.396 43.027 114.634 43.027 114.915C43.027 115.191 42.9209 115.43 42.7088 115.631C42.5005 115.828 42.2486 115.926 41.9531 115.926ZM48.8409 126.176C47.9811 126.176 47.2405 125.992 46.6193 125.625C46.0019 125.254 45.5246 124.733 45.1875 124.062C44.8542 123.388 44.6875 122.598 44.6875 121.693C44.6875 120.799 44.8542 120.011 45.1875 119.33C45.5246 118.648 45.9943 118.116 46.5966 117.733C47.2027 117.35 47.911 117.159 48.7216 117.159C49.214 117.159 49.6913 117.241 50.1534 117.403C50.6155 117.566 51.0303 117.822 51.3977 118.17C51.7652 118.519 52.0549 118.972 52.267 119.528C52.4792 120.081 52.5852 120.754 52.5852 121.545V122.148H45.6477V120.875H50.9205C50.9205 120.428 50.8295 120.032 50.6477 119.688C50.4659 119.339 50.2102 119.064 49.8807 118.864C49.5549 118.663 49.1723 118.562 48.733 118.562C48.2557 118.562 47.839 118.68 47.483 118.915C47.1307 119.146 46.858 119.449 46.6648 119.824C46.4754 120.195 46.3807 120.598 46.3807 121.034V122.028C46.3807 122.612 46.483 123.108 46.6875 123.517C46.8958 123.926 47.1856 124.239 47.5568 124.455C47.928 124.667 48.3617 124.773 48.858 124.773C49.1799 124.773 49.4735 124.727 49.7386 124.636C50.0038 124.542 50.233 124.402 50.4261 124.216C50.6193 124.03 50.767 123.801 50.8693 123.528L52.4773 123.818C52.3485 124.292 52.1174 124.706 51.7841 125.062C51.4545 125.415 51.0398 125.689 50.5398 125.886C50.0436 126.08 49.4773 126.176 48.8409 126.176ZM61.0099 119.403L59.4702 119.676C59.4058 119.479 59.3035 119.292 59.1634 119.114C59.027 118.936 58.8414 118.79 58.6065 118.676C58.3717 118.562 58.0781 118.506 57.7259 118.506C57.2448 118.506 56.8433 118.614 56.5213 118.83C56.1993 119.042 56.0384 119.316 56.0384 119.653C56.0384 119.945 56.1463 120.18 56.3622 120.358C56.5781 120.536 56.9266 120.682 57.4077 120.795L58.794 121.114C59.5971 121.299 60.1955 121.585 60.5895 121.972C60.9834 122.358 61.1804 122.86 61.1804 123.477C61.1804 124 61.0289 124.466 60.7259 124.875C60.4266 125.28 60.008 125.598 59.4702 125.83C58.9361 126.061 58.3168 126.176 57.6122 126.176C56.6349 126.176 55.8376 125.968 55.2202 125.551C54.6027 125.131 54.224 124.534 54.0838 123.761L55.7259 123.511C55.8281 123.939 56.0384 124.263 56.3565 124.483C56.6747 124.699 57.0895 124.807 57.6009 124.807C58.1577 124.807 58.6027 124.691 58.9361 124.46C59.2694 124.225 59.4361 123.939 59.4361 123.602C59.4361 123.33 59.3338 123.1 59.1293 122.915C58.9285 122.729 58.6198 122.589 58.2031 122.494L56.7259 122.17C55.9115 121.985 55.3092 121.689 54.919 121.284C54.5327 120.879 54.3395 120.366 54.3395 119.744C54.3395 119.229 54.4834 118.778 54.7713 118.392C55.0592 118.006 55.4569 117.705 55.9645 117.489C56.4721 117.269 57.0535 117.159 57.7088 117.159C58.652 117.159 59.3944 117.364 59.9361 117.773C60.4777 118.178 60.8357 118.722 61.0099 119.403Z" fill="#535862"/>
</g>
<g clip-path="url(#clip3_0_5397)">
<path d="M1.27841 162V150.364H3.03409V160.489H8.30682V162H1.27841ZM10.1733 162V153.273H11.8722V162H10.1733ZM11.0312 151.926C10.7358 151.926 10.482 151.828 10.2699 151.631C10.0616 151.43 9.95739 151.191 9.95739 150.915C9.95739 150.634 10.0616 150.396 10.2699 150.199C10.482 149.998 10.7358 149.898 11.0312 149.898C11.3267 149.898 11.5786 149.998 11.7869 150.199C11.9991 150.396 12.1051 150.634 12.1051 150.915C12.1051 151.191 11.9991 151.43 11.7869 151.631C11.5786 151.828 11.3267 151.926 11.0312 151.926ZM17.8338 162.176C16.9891 162.176 16.2618 161.985 15.652 161.602C15.0459 161.216 14.58 160.684 14.2543 160.006C13.9285 159.328 13.7656 158.551 13.7656 157.676C13.7656 156.79 13.9323 156.008 14.2656 155.33C14.599 154.648 15.0687 154.116 15.6747 153.733C16.2808 153.35 16.9948 153.159 17.8168 153.159C18.4796 153.159 19.0705 153.282 19.5895 153.528C20.1084 153.771 20.527 154.112 20.8452 154.551C21.1671 154.991 21.3584 155.504 21.419 156.091H19.7656C19.6747 155.682 19.4664 155.33 19.1406 155.034C18.8187 154.739 18.3868 154.591 17.8452 154.591C17.3717 154.591 16.9569 154.716 16.6009 154.966C16.2486 155.212 15.974 155.564 15.777 156.023C15.58 156.477 15.4815 157.015 15.4815 157.636C15.4815 158.273 15.5781 158.822 15.7713 159.284C15.9645 159.746 16.2372 160.104 16.5895 160.358C16.9455 160.612 17.3641 160.739 17.8452 160.739C18.1671 160.739 18.4588 160.68 18.7202 160.562C18.9853 160.441 19.2069 160.269 19.3849 160.045C19.5668 159.822 19.6937 159.553 19.7656 159.239H21.419C21.3584 159.803 21.1747 160.307 20.8679 160.75C20.5611 161.193 20.1501 161.542 19.6349 161.795C19.1236 162.049 18.5232 162.176 17.8338 162.176ZM26.9972 162.176C26.1373 162.176 25.3968 161.992 24.7756 161.625C24.1581 161.254 23.6809 160.733 23.3438 160.062C23.0104 159.388 22.8438 158.598 22.8438 157.693C22.8438 156.799 23.0104 156.011 23.3438 155.33C23.6809 154.648 24.1506 154.116 24.7528 153.733C25.3589 153.35 26.0672 153.159 26.8778 153.159C27.3703 153.159 27.8475 153.241 28.3097 153.403C28.7718 153.566 29.1866 153.822 29.554 154.17C29.9214 154.519 30.2112 154.972 30.4233 155.528C30.6354 156.081 30.7415 156.754 30.7415 157.545V158.148H23.804V156.875H29.0767C29.0767 156.428 28.9858 156.032 28.804 155.688C28.6222 155.339 28.3665 155.064 28.0369 154.864C27.7112 154.663 27.3286 154.562 26.8892 154.562C26.4119 154.562 25.9953 154.68 25.6392 154.915C25.2869 155.146 25.0142 155.449 24.821 155.824C24.6316 156.195 24.5369 156.598 24.5369 157.034V158.028C24.5369 158.612 24.6392 159.108 24.8438 159.517C25.0521 159.926 25.3419 160.239 25.7131 160.455C26.0843 160.667 26.518 160.773 27.0142 160.773C27.3362 160.773 27.6297 160.727 27.8949 160.636C28.16 160.542 28.3892 160.402 28.5824 160.216C28.7756 160.03 28.9233 159.801 29.0256 159.528L30.6335 159.818C30.5047 160.292 30.2737 160.706 29.9403 161.062C29.6108 161.415 29.196 161.689 28.696 161.886C28.1998 162.08 27.6335 162.176 26.9972 162.176ZM34.3253 156.818V162H32.6264V153.273H34.2571V154.693H34.3651C34.5658 154.231 34.8802 153.86 35.3082 153.58C35.7401 153.299 36.2836 153.159 36.9389 153.159C37.5336 153.159 38.0545 153.284 38.5014 153.534C38.9484 153.78 39.295 154.148 39.5412 154.636C39.7874 155.125 39.9105 155.729 39.9105 156.449V162H38.2116V156.653C38.2116 156.021 38.0469 155.527 37.7173 155.17C37.3878 154.811 36.9351 154.631 36.3594 154.631C35.9654 154.631 35.6151 154.716 35.3082 154.886C35.0052 155.057 34.7647 155.307 34.5866 155.636C34.4124 155.962 34.3253 156.356 34.3253 156.818ZM48.7287 155.403L47.1889 155.676C47.1245 155.479 47.0223 155.292 46.8821 155.114C46.7457 154.936 46.5601 154.79 46.3253 154.676C46.0904 154.562 45.7969 154.506 45.4446 154.506C44.9635 154.506 44.562 154.614 44.2401 154.83C43.9181 155.042 43.7571 155.316 43.7571 155.653C43.7571 155.945 43.8651 156.18 44.081 156.358C44.2969 156.536 44.6454 156.682 45.1264 156.795L46.5128 157.114C47.3158 157.299 47.9143 157.585 48.3082 157.972C48.7022 158.358 48.8991 158.86 48.8991 159.477C48.8991 160 48.7476 160.466 48.4446 160.875C48.1454 161.28 47.7268 161.598 47.1889 161.83C46.6548 162.061 46.0355 162.176 45.331 162.176C44.3537 162.176 43.5563 161.968 42.9389 161.551C42.3215 161.131 41.9427 160.534 41.8026 159.761L43.4446 159.511C43.5469 159.939 43.7571 160.263 44.0753 160.483C44.3935 160.699 44.8082 160.807 45.3196 160.807C45.8764 160.807 46.3215 160.691 46.6548 160.46C46.9882 160.225 47.1548 159.939 47.1548 159.602C47.1548 159.33 47.0526 159.1 46.848 158.915C46.6473 158.729 46.3385 158.589 45.9219 158.494L44.4446 158.17C43.6302 157.985 43.0279 157.689 42.6378 157.284C42.2514 156.879 42.0582 156.366 42.0582 155.744C42.0582 155.229 42.2022 154.778 42.4901 154.392C42.7779 154.006 43.1757 153.705 43.6832 153.489C44.1908 153.269 44.7723 153.159 45.4276 153.159C46.3707 153.159 47.1132 153.364 47.6548 153.773C48.1965 154.178 48.5545 154.722 48.7287 155.403ZM54.5284 162.176C53.6686 162.176 52.928 161.992 52.3068 161.625C51.6894 161.254 51.2121 160.733 50.875 160.062C50.5417 159.388 50.375 158.598 50.375 157.693C50.375 156.799 50.5417 156.011 50.875 155.33C51.2121 154.648 51.6818 154.116 52.2841 153.733C52.8902 153.35 53.5985 153.159 54.4091 153.159C54.9015 153.159 55.3788 153.241 55.8409 153.403C56.303 153.566 56.7178 153.822 57.0852 154.17C57.4527 154.519 57.7424 154.972 57.9545 155.528C58.1667 156.081 58.2727 156.754 58.2727 157.545V158.148H51.3352V156.875H56.608C56.608 156.428 56.517 156.032 56.3352 155.688C56.1534 155.339 55.8977 155.064 55.5682 154.864C55.2424 154.663 54.8598 154.562 54.4205 154.562C53.9432 154.562 53.5265 154.68 53.1705 154.915C52.8182 155.146 52.5455 155.449 52.3523 155.824C52.1629 156.195 52.0682 156.598 52.0682 157.034V158.028C52.0682 158.612 52.1705 159.108 52.375 159.517C52.5833 159.926 52.8731 160.239 53.2443 160.455C53.6155 160.667 54.0492 160.773 54.5455 160.773C54.8674 160.773 55.161 160.727 55.4261 160.636C55.6913 160.542 55.9205 160.402 56.1136 160.216C56.3068 160.03 56.4545 159.801 56.5568 159.528L58.1648 159.818C58.036 160.292 57.8049 160.706 57.4716 161.062C57.142 161.415 56.7273 161.689 56.2273 161.886C55.7311 162.08 55.1648 162.176 54.5284 162.176ZM66.6974 155.403L65.1577 155.676C65.0933 155.479 64.991 155.292 64.8509 155.114C64.7145 154.936 64.5289 154.79 64.294 154.676C64.0592 154.562 63.7656 154.506 63.4134 154.506C62.9323 154.506 62.5308 154.614 62.2088 154.83C61.8868 155.042 61.7259 155.316 61.7259 155.653C61.7259 155.945 61.8338 156.18 62.0497 156.358C62.2656 156.536 62.6141 156.682 63.0952 156.795L64.4815 157.114C65.2846 157.299 65.883 157.585 66.277 157.972C66.6709 158.358 66.8679 158.86 66.8679 159.477C66.8679 160 66.7164 160.466 66.4134 160.875C66.1141 161.28 65.6955 161.598 65.1577 161.83C64.6236 162.061 64.0043 162.176 63.2997 162.176C62.3224 162.176 61.5251 161.968 60.9077 161.551C60.2902 161.131 59.9115 160.534 59.7713 159.761L61.4134 159.511C61.5156 159.939 61.7259 160.263 62.044 160.483C62.3622 160.699 62.777 160.807 63.2884 160.807C63.8452 160.807 64.2902 160.691 64.6236 160.46C64.9569 160.225 65.1236 159.939 65.1236 159.602C65.1236 159.33 65.0213 159.1 64.8168 158.915C64.616 158.729 64.3073 158.589 63.8906 158.494L62.4134 158.17C61.599 157.985 60.9967 157.689 60.6065 157.284C60.2202 156.879 60.027 156.366 60.027 155.744C60.027 155.229 60.1709 154.778 60.4588 154.392C60.7467 154.006 61.1444 153.705 61.652 153.489C62.1596 153.269 62.741 153.159 63.3963 153.159C64.3395 153.159 65.0819 153.364 65.6236 153.773C66.1652 154.178 66.5232 154.722 66.6974 155.403Z" fill="#535862"/>
</g>
<g clip-path="url(#clip4_0_5397)">
<path d="M7.625 189.42C7.56439 188.883 7.31439 188.466 6.875 188.17C6.43561 187.871 5.88258 187.722 5.21591 187.722C4.73864 187.722 4.32576 187.797 3.97727 187.949C3.62879 188.097 3.35795 188.301 3.16477 188.562C2.97538 188.82 2.88068 189.114 2.88068 189.443C2.88068 189.72 2.94508 189.958 3.07386 190.159C3.20644 190.36 3.37879 190.528 3.59091 190.665C3.80682 190.797 4.03788 190.909 4.28409 191C4.5303 191.087 4.76705 191.159 4.99432 191.216L6.13068 191.511C6.50189 191.602 6.88258 191.725 7.27273 191.881C7.66288 192.036 8.02462 192.241 8.35795 192.494C8.69129 192.748 8.96023 193.062 9.16477 193.438C9.37311 193.812 9.47727 194.261 9.47727 194.784C9.47727 195.443 9.30682 196.028 8.96591 196.54C8.62879 197.051 8.13826 197.455 7.49432 197.75C6.85417 198.045 6.07955 198.193 5.17045 198.193C4.29924 198.193 3.54545 198.055 2.90909 197.778C2.27273 197.502 1.77462 197.11 1.41477 196.602C1.05492 196.091 0.856061 195.485 0.818182 194.784H2.57955C2.61364 195.205 2.75 195.555 2.98864 195.835C3.23106 196.112 3.53977 196.318 3.91477 196.455C4.29356 196.587 4.70833 196.653 5.15909 196.653C5.6553 196.653 6.09659 196.576 6.48295 196.42C6.87311 196.261 7.17992 196.042 7.40341 195.761C7.62689 195.477 7.73864 195.146 7.73864 194.767C7.73864 194.422 7.64015 194.14 7.44318 193.92C7.25 193.701 6.98674 193.519 6.65341 193.375C6.32386 193.231 5.95076 193.104 5.53409 192.994L4.15909 192.619C3.22727 192.366 2.48864 191.992 1.94318 191.5C1.40152 191.008 1.13068 190.356 1.13068 189.545C1.13068 188.875 1.3125 188.29 1.67614 187.79C2.03977 187.29 2.5322 186.902 3.15341 186.625C3.77462 186.345 4.47538 186.205 5.25568 186.205C6.04356 186.205 6.73864 186.343 7.34091 186.619C7.94697 186.896 8.42424 187.277 8.77273 187.761C9.12121 188.242 9.30303 188.795 9.31818 189.42H7.625ZM15.2003 198.176C14.3404 198.176 13.5999 197.992 12.9787 197.625C12.3613 197.254 11.884 196.733 11.5469 196.062C11.2135 195.388 11.0469 194.598 11.0469 193.693C11.0469 192.799 11.2135 192.011 11.5469 191.33C11.884 190.648 12.3537 190.116 12.956 189.733C13.562 189.35 14.2704 189.159 15.081 189.159C15.5734 189.159 16.0507 189.241 16.5128 189.403C16.9749 189.566 17.3897 189.822 17.7571 190.17C18.1245 190.519 18.4143 190.972 18.6264 191.528C18.8385 192.081 18.9446 192.754 18.9446 193.545V194.148H12.0071V192.875H17.2798C17.2798 192.428 17.1889 192.032 17.0071 191.688C16.8253 191.339 16.5696 191.064 16.2401 190.864C15.9143 190.663 15.5317 190.562 15.0923 190.562C14.6151 190.562 14.1984 190.68 13.8423 190.915C13.4901 191.146 13.2173 191.449 13.0241 191.824C12.8348 192.195 12.7401 192.598 12.7401 193.034V194.028C12.7401 194.612 12.8423 195.108 13.0469 195.517C13.2552 195.926 13.545 196.239 13.9162 196.455C14.2874 196.667 14.7211 196.773 15.2173 196.773C15.5393 196.773 15.8329 196.727 16.098 196.636C16.3632 196.542 16.5923 196.402 16.7855 196.216C16.9787 196.03 17.1264 195.801 17.2287 195.528L18.8366 195.818C18.7079 196.292 18.4768 196.706 18.1435 197.062C17.8139 197.415 17.3991 197.689 16.8991 197.886C16.4029 198.08 15.8366 198.176 15.2003 198.176ZM24.9034 189.273V190.636H20.1364V189.273H24.9034ZM21.4148 187.182H23.1136V195.438C23.1136 195.767 23.1629 196.015 23.2614 196.182C23.3598 196.345 23.4867 196.456 23.642 196.517C23.8011 196.574 23.9735 196.602 24.1591 196.602C24.2955 196.602 24.4148 196.593 24.517 196.574C24.6193 196.555 24.6989 196.54 24.7557 196.528L25.0625 197.932C24.964 197.97 24.8239 198.008 24.642 198.045C24.4602 198.087 24.233 198.11 23.9602 198.114C23.5133 198.121 23.0966 198.042 22.7102 197.875C22.3239 197.708 22.0114 197.451 21.7727 197.102C21.5341 196.754 21.4148 196.316 21.4148 195.79V187.182ZM30.8565 189.273V190.636H26.0895V189.273H30.8565ZM27.3679 187.182H29.0668V195.438C29.0668 195.767 29.116 196.015 29.2145 196.182C29.313 196.345 29.4399 196.456 29.5952 196.517C29.7543 196.574 29.9266 196.602 30.1122 196.602C30.2486 196.602 30.3679 196.593 30.4702 196.574C30.5724 196.555 30.652 196.54 30.7088 196.528L31.0156 197.932C30.9171 197.97 30.777 198.008 30.5952 198.045C30.4134 198.087 30.1861 198.11 29.9134 198.114C29.4664 198.121 29.0497 198.042 28.6634 197.875C28.277 197.708 27.9645 197.451 27.7259 197.102C27.4872 196.754 27.3679 196.316 27.3679 195.79V187.182ZM32.7358 198V189.273H34.4347V198H32.7358ZM33.5938 187.926C33.2983 187.926 33.0445 187.828 32.8324 187.631C32.6241 187.43 32.5199 187.191 32.5199 186.915C32.5199 186.634 32.6241 186.396 32.8324 186.199C33.0445 185.998 33.2983 185.898 33.5938 185.898C33.8892 185.898 34.1411 185.998 34.3494 186.199C34.5616 186.396 34.6676 186.634 34.6676 186.915C34.6676 187.191 34.5616 187.43 34.3494 187.631C34.1411 187.828 33.8892 187.926 33.5938 187.926ZM38.419 192.818V198H36.7202V189.273H38.3509V190.693H38.4588C38.6596 190.231 38.974 189.86 39.402 189.58C39.8338 189.299 40.3774 189.159 41.0327 189.159C41.6274 189.159 42.1482 189.284 42.5952 189.534C43.0421 189.78 43.3887 190.148 43.6349 190.636C43.8812 191.125 44.0043 191.729 44.0043 192.449V198H42.3054V192.653C42.3054 192.021 42.1406 191.527 41.8111 191.17C41.4815 190.811 41.0289 190.631 40.4531 190.631C40.0592 190.631 39.7088 190.716 39.402 190.886C39.099 191.057 38.8584 191.307 38.6804 191.636C38.5062 191.962 38.419 192.356 38.419 192.818ZM49.9418 201.455C49.2486 201.455 48.652 201.364 48.152 201.182C47.6558 201 47.2505 200.759 46.9361 200.46C46.6217 200.161 46.3868 199.833 46.2315 199.477L47.6918 198.875C47.794 199.042 47.9304 199.218 48.1009 199.403C48.2751 199.593 48.5099 199.754 48.8054 199.886C49.1046 200.019 49.4891 200.085 49.9588 200.085C50.6027 200.085 51.1349 199.928 51.5554 199.614C51.9759 199.303 52.1861 198.807 52.1861 198.125V196.409H52.0781C51.9759 196.595 51.8281 196.801 51.6349 197.028C51.4455 197.256 51.1842 197.453 50.8509 197.619C50.5175 197.786 50.0838 197.869 49.5497 197.869C48.8603 197.869 48.2391 197.708 47.6861 197.386C47.1368 197.061 46.7012 196.581 46.3793 195.949C46.0611 195.312 45.902 194.53 45.902 193.602C45.902 192.674 46.0592 191.879 46.3736 191.216C46.6918 190.553 47.1274 190.045 47.6804 189.693C48.2334 189.337 48.8603 189.159 49.5611 189.159C50.1027 189.159 50.5402 189.25 50.8736 189.432C51.2069 189.61 51.4664 189.818 51.652 190.057C51.8414 190.295 51.9872 190.506 52.0895 190.688H52.2145V189.273H53.8793V198.193C53.8793 198.943 53.705 199.559 53.3565 200.04C53.008 200.521 52.5365 200.877 51.9418 201.108C51.3509 201.339 50.6842 201.455 49.9418 201.455ZM49.9247 196.46C50.4134 196.46 50.8262 196.347 51.1634 196.119C51.5043 195.888 51.7618 195.559 51.9361 195.131C52.1141 194.699 52.2031 194.182 52.2031 193.58C52.2031 192.992 52.116 192.475 51.9418 192.028C51.7675 191.581 51.5118 191.233 51.1747 190.983C50.8376 190.729 50.4209 190.602 49.9247 190.602C49.4134 190.602 48.9872 190.735 48.6463 191C48.3054 191.261 48.0478 191.617 47.8736 192.068C47.7031 192.519 47.6179 193.023 47.6179 193.58C47.6179 194.152 47.705 194.653 47.8793 195.085C48.0535 195.517 48.3111 195.854 48.652 196.097C48.9967 196.339 49.4209 196.46 49.9247 196.46ZM62.6974 191.403L61.1577 191.676C61.0933 191.479 60.991 191.292 60.8509 191.114C60.7145 190.936 60.5289 190.79 60.294 190.676C60.0592 190.562 59.7656 190.506 59.4134 190.506C58.9323 190.506 58.5308 190.614 58.2088 190.83C57.8868 191.042 57.7259 191.316 57.7259 191.653C57.7259 191.945 57.8338 192.18 58.0497 192.358C58.2656 192.536 58.6141 192.682 59.0952 192.795L60.4815 193.114C61.2846 193.299 61.883 193.585 62.277 193.972C62.6709 194.358 62.8679 194.86 62.8679 195.477C62.8679 196 62.7164 196.466 62.4134 196.875C62.1141 197.28 61.6955 197.598 61.1577 197.83C60.6236 198.061 60.0043 198.176 59.2997 198.176C58.3224 198.176 57.5251 197.968 56.9077 197.551C56.2902 197.131 55.9115 196.534 55.7713 195.761L57.4134 195.511C57.5156 195.939 57.7259 196.263 58.044 196.483C58.3622 196.699 58.777 196.807 59.2884 196.807C59.8452 196.807 60.2902 196.691 60.6236 196.46C60.9569 196.225 61.1236 195.939 61.1236 195.602C61.1236 195.33 61.0213 195.1 60.8168 194.915C60.616 194.729 60.3073 194.589 59.8906 194.494L58.4134 194.17C57.599 193.985 56.9967 193.689 56.6065 193.284C56.2202 192.879 56.027 192.366 56.027 191.744C56.027 191.229 56.1709 190.778 56.4588 190.392C56.7467 190.006 57.1444 189.705 57.652 189.489C58.1596 189.269 58.741 189.159 59.3963 189.159C60.3395 189.159 61.0819 189.364 61.6236 189.773C62.1652 190.178 62.5232 190.722 62.6974 191.403Z" fill="#535862"/>
</g>
<g clip-path="url(#clip5_0_5397)">
<path d="M10.9432 226.148H9.17045C9.10227 225.769 8.97538 225.436 8.78977 225.148C8.60417 224.86 8.37689 224.616 8.10795 224.415C7.83902 224.214 7.53788 224.062 7.20455 223.96C6.875 223.858 6.52462 223.807 6.15341 223.807C5.48295 223.807 4.88258 223.975 4.35227 224.312C3.82576 224.65 3.40909 225.144 3.10227 225.795C2.79924 226.447 2.64773 227.242 2.64773 228.182C2.64773 229.129 2.79924 229.928 3.10227 230.58C3.40909 231.231 3.82765 231.723 4.35795 232.057C4.88826 232.39 5.48485 232.557 6.14773 232.557C6.51515 232.557 6.86364 232.508 7.19318 232.409C7.52652 232.307 7.82765 232.157 8.09659 231.96C8.36553 231.763 8.5928 231.523 8.77841 231.239C8.9678 230.951 9.09848 230.621 9.17045 230.25L10.9432 230.256C10.8485 230.828 10.6648 231.354 10.392 231.835C10.1231 232.312 9.77652 232.725 9.35227 233.074C8.93182 233.419 8.45076 233.686 7.90909 233.875C7.36742 234.064 6.77652 234.159 6.13636 234.159C5.12879 234.159 4.23106 233.92 3.44318 233.443C2.6553 232.962 2.03409 232.275 1.57955 231.381C1.12879 230.487 0.903409 229.42 0.903409 228.182C0.903409 226.939 1.13068 225.873 1.58523 224.983C2.03977 224.089 2.66098 223.403 3.44886 222.926C4.23674 222.445 5.13258 222.205 6.13636 222.205C6.75379 222.205 7.32955 222.294 7.86364 222.472C8.40152 222.646 8.88447 222.903 9.3125 223.244C9.74053 223.581 10.0947 223.994 10.375 224.483C10.6553 224.968 10.8447 225.523 10.9432 226.148ZM16.5838 234.176C15.7656 234.176 15.0516 233.989 14.4418 233.614C13.8319 233.239 13.3584 232.714 13.0213 232.04C12.6842 231.366 12.5156 230.578 12.5156 229.676C12.5156 228.771 12.6842 227.979 13.0213 227.301C13.3584 226.623 13.8319 226.097 14.4418 225.722C15.0516 225.347 15.7656 225.159 16.5838 225.159C17.402 225.159 18.116 225.347 18.7259 225.722C19.3357 226.097 19.8092 226.623 20.1463 227.301C20.4834 227.979 20.652 228.771 20.652 229.676C20.652 230.578 20.4834 231.366 20.1463 232.04C19.8092 232.714 19.3357 233.239 18.7259 233.614C18.116 233.989 17.402 234.176 16.5838 234.176ZM16.5895 232.75C17.1198 232.75 17.5592 232.61 17.9077 232.33C18.2562 232.049 18.5137 231.676 18.6804 231.21C18.8509 230.744 18.9361 230.231 18.9361 229.67C18.9361 229.114 18.8509 228.602 18.6804 228.136C18.5137 227.667 18.2562 227.29 17.9077 227.006C17.5592 226.722 17.1198 226.58 16.5895 226.58C16.0554 226.58 15.6122 226.722 15.2599 227.006C14.9115 227.29 14.652 227.667 14.4815 228.136C14.3149 228.602 14.2315 229.114 14.2315 229.67C14.2315 230.231 14.3149 230.744 14.4815 231.21C14.652 231.676 14.9115 232.049 15.2599 232.33C15.6122 232.61 16.0554 232.75 16.5895 232.75ZM24.2472 228.818V234H22.5483V225.273H24.179V226.693H24.2869C24.4877 226.231 24.8021 225.86 25.2301 225.58C25.6619 225.299 26.2055 225.159 26.8608 225.159C27.4555 225.159 27.9763 225.284 28.4233 225.534C28.8703 225.78 29.2169 226.148 29.4631 226.636C29.7093 227.125 29.8324 227.729 29.8324 228.449V234H28.1335V228.653C28.1335 228.021 27.9688 227.527 27.6392 227.17C27.3097 226.811 26.857 226.631 26.2812 226.631C25.8873 226.631 25.5369 226.716 25.2301 226.886C24.9271 227.057 24.6866 227.307 24.5085 227.636C24.3343 227.962 24.2472 228.356 24.2472 228.818ZM36.1847 225.273V226.636H31.4176V225.273H36.1847ZM32.696 223.182H34.3949V231.438C34.3949 231.767 34.4441 232.015 34.5426 232.182C34.6411 232.345 34.768 232.456 34.9233 232.517C35.0824 232.574 35.2547 232.602 35.4403 232.602C35.5767 232.602 35.696 232.593 35.7983 232.574C35.9006 232.555 35.9801 232.54 36.0369 232.528L36.3438 233.932C36.2453 233.97 36.1051 234.008 35.9233 234.045C35.7415 234.087 35.5142 234.11 35.2415 234.114C34.7945 234.121 34.3778 234.042 33.9915 233.875C33.6051 233.708 33.2926 233.451 33.054 233.102C32.8153 232.754 32.696 232.316 32.696 231.79V223.182ZM40.6037 234.193C40.0507 234.193 39.5507 234.091 39.1037 233.886C38.6567 233.678 38.3026 233.377 38.0412 232.983C37.7836 232.589 37.6548 232.106 37.6548 231.534C37.6548 231.042 37.7495 230.636 37.9389 230.318C38.1283 230 38.384 229.748 38.706 229.562C39.0279 229.377 39.3878 229.237 39.7855 229.142C40.1832 229.047 40.5885 228.975 41.0014 228.926C41.5241 228.866 41.9484 228.816 42.2741 228.778C42.5999 228.737 42.8366 228.67 42.9844 228.58C43.1321 228.489 43.206 228.341 43.206 228.136V228.097C43.206 227.6 43.0658 227.216 42.7855 226.943C42.509 226.67 42.0961 226.534 41.5469 226.534C40.9749 226.534 40.5241 226.661 40.1946 226.915C39.8688 227.165 39.6435 227.443 39.5185 227.75L37.9219 227.386C38.1113 226.856 38.3878 226.428 38.7514 226.102C39.1188 225.773 39.5412 225.534 40.0185 225.386C40.4957 225.235 40.9976 225.159 41.5241 225.159C41.8726 225.159 42.242 225.201 42.6321 225.284C43.026 225.364 43.3935 225.511 43.7344 225.727C44.0791 225.943 44.3613 226.252 44.581 226.653C44.8007 227.051 44.9105 227.568 44.9105 228.205V234H43.2514V232.807H43.1832C43.0734 233.027 42.9086 233.242 42.6889 233.455C42.4692 233.667 42.187 233.843 41.8423 233.983C41.4976 234.123 41.0848 234.193 40.6037 234.193ZM40.973 232.83C41.4427 232.83 41.8442 232.737 42.1776 232.551C42.5147 232.366 42.7704 232.123 42.9446 231.824C43.1226 231.521 43.2116 231.197 43.2116 230.852V229.727C43.151 229.788 43.0336 229.845 42.8594 229.898C42.6889 229.947 42.4938 229.991 42.2741 230.028C42.0545 230.062 41.8404 230.095 41.6321 230.125C41.4238 230.152 41.2495 230.174 41.1094 230.193C40.7798 230.235 40.4787 230.305 40.206 230.403C39.937 230.502 39.7211 230.644 39.5582 230.83C39.3991 231.011 39.3196 231.254 39.3196 231.557C39.3196 231.977 39.4749 232.295 39.7855 232.511C40.0961 232.723 40.492 232.83 40.973 232.83ZM50.8494 234.176C50.0047 234.176 49.2775 233.985 48.6676 233.602C48.0616 233.216 47.5956 232.684 47.2699 232.006C46.9441 231.328 46.7812 230.551 46.7812 229.676C46.7812 228.79 46.9479 228.008 47.2812 227.33C47.6146 226.648 48.0843 226.116 48.6903 225.733C49.2964 225.35 50.0104 225.159 50.8324 225.159C51.4953 225.159 52.0862 225.282 52.6051 225.528C53.1241 225.771 53.5426 226.112 53.8608 226.551C54.1828 226.991 54.3741 227.504 54.4347 228.091H52.7812C52.6903 227.682 52.482 227.33 52.1562 227.034C51.8343 226.739 51.4025 226.591 50.8608 226.591C50.3873 226.591 49.9725 226.716 49.6165 226.966C49.2642 227.212 48.9896 227.564 48.7926 228.023C48.5956 228.477 48.4972 229.015 48.4972 229.636C48.4972 230.273 48.5938 230.822 48.7869 231.284C48.9801 231.746 49.2528 232.104 49.6051 232.358C49.9612 232.612 50.3797 232.739 50.8608 232.739C51.1828 232.739 51.4744 232.68 51.7358 232.562C52.0009 232.441 52.2225 232.269 52.4006 232.045C52.5824 231.822 52.7093 231.553 52.7812 231.239H54.4347C54.3741 231.803 54.1903 232.307 53.8835 232.75C53.5767 233.193 53.1657 233.542 52.6506 233.795C52.1392 234.049 51.5388 234.176 50.8494 234.176ZM60.3253 225.273V226.636H55.5582V225.273H60.3253ZM56.8366 223.182H58.5355V231.438C58.5355 231.767 58.5848 232.015 58.6832 232.182C58.7817 232.345 58.9086 232.456 59.0639 232.517C59.223 232.574 59.3954 232.602 59.581 232.602C59.7173 232.602 59.8366 232.593 59.9389 232.574C60.0412 232.555 60.1207 232.54 60.1776 232.528L60.4844 233.932C60.3859 233.97 60.2457 234.008 60.0639 234.045C59.8821 234.087 59.6548 234.11 59.3821 234.114C58.9351 234.121 58.5185 234.042 58.1321 233.875C57.7457 233.708 57.4332 233.451 57.1946 233.102C56.956 232.754 56.8366 232.316 56.8366 231.79V223.182Z" fill="#535862"/>
</g>
<defs>
<clipPath id="clip0_0_5397">
<rect width="48" height="24" fill="white" transform="translate(0 36)"/>
</clipPath>
<clipPath id="clip1_0_5397">
<rect width="57" height="24" fill="white" transform="translate(0 72)"/>
</clipPath>
<clipPath id="clip2_0_5397">
<rect width="62" height="24" fill="white" transform="translate(0 108)"/>
</clipPath>
<clipPath id="clip3_0_5397">
<rect width="68" height="24" fill="white" transform="translate(0 144)"/>
</clipPath>
<clipPath id="clip4_0_5397">
<rect width="64" height="24" fill="white" transform="translate(0 180)"/>
</clipPath>
<clipPath id="clip5_0_5397">
<rect width="62" height="24" fill="white" transform="translate(0 216)"/>
</clipPath>
</defs>
</svg>
