<svg width="176" height="240" viewBox="0 0 176 240" fill="none" xmlns="http://www.w3.org/2000/svg">
<path d="M6.53764 7.61719C6.49124 7.183 6.29569 6.84493 5.95099 6.60298C5.60961 6.36103 5.16548 6.24006 4.61861 6.24006C4.23414 6.24006 3.90436 6.29806 3.62926 6.41406C3.35417 6.53007 3.1437 6.6875 2.99787 6.88636C2.85204 7.08523 2.77746 7.31226 2.77415 7.56747C2.77415 7.77959 2.82221 7.96354 2.91832 8.11932C3.01776 8.27509 3.15199 8.40767 3.32102 8.51705C3.49006 8.62311 3.67732 8.71259 3.88281 8.78551C4.08831 8.85843 4.29545 8.91974 4.50426 8.96946L5.45881 9.2081C5.84328 9.29758 6.21283 9.41856 6.56747 9.57102C6.92543 9.72348 7.24527 9.91572 7.52699 10.1477C7.81203 10.3797 8.03741 10.6598 8.20312 10.9879C8.36884 11.3161 8.4517 11.7005 8.4517 12.1413C8.4517 12.7379 8.29924 13.2633 7.99432 13.7173C7.68939 14.1681 7.24858 14.5211 6.67188 14.7763C6.09848 15.0282 5.40412 15.1541 4.58878 15.1541C3.79664 15.1541 3.1089 15.0315 2.52557 14.7862C1.94555 14.541 1.49148 14.183 1.16335 13.7124C0.838542 13.2417 0.662879 12.6683 0.636364 11.9922H2.45099C2.47751 12.3468 2.58688 12.6418 2.77912 12.8771C2.97135 13.1125 3.22159 13.2881 3.52983 13.4041C3.84138 13.5201 4.18939 13.5781 4.57386 13.5781C4.97491 13.5781 5.32623 13.5185 5.62784 13.3991C5.93277 13.2765 6.1714 13.1075 6.34375 12.892C6.5161 12.6733 6.60393 12.4181 6.60724 12.1264C6.60393 11.8613 6.52604 11.6425 6.37358 11.4702C6.22112 11.2945 6.00734 11.1487 5.73224 11.0327C5.46046 10.9134 5.14228 10.8073 4.7777 10.7145L3.61932 10.4162C2.78078 10.2008 2.1179 9.87429 1.63068 9.43679C1.14678 8.99598 0.90483 8.41098 0.90483 7.68182C0.90483 7.08191 1.06723 6.55658 1.39205 6.10582C1.72017 5.65507 2.16596 5.3054 2.7294 5.05682C3.29285 4.80492 3.93087 4.67898 4.64347 4.67898C5.366 4.67898 5.99905 4.80492 6.54261 5.05682C7.08949 5.3054 7.5187 5.65175 7.83026 6.09588C8.14181 6.53669 8.30256 7.0438 8.3125 7.61719H6.53764ZM13.3475 15.1491C12.6017 15.1491 11.9554 14.9851 11.4086 14.657C10.8617 14.3288 10.4374 13.8698 10.1358 13.2798C9.83754 12.6899 9.68839 12.0005 9.68839 11.2116C9.68839 10.4228 9.83754 9.73177 10.1358 9.13849C10.4374 8.54522 10.8617 8.08452 11.4086 7.75639C11.9554 7.42827 12.6017 7.2642 13.3475 7.2642C14.0932 7.2642 14.7395 7.42827 15.2864 7.75639C15.8333 8.08452 16.2559 8.54522 16.5542 9.13849C16.8558 9.73177 17.0066 10.4228 17.0066 11.2116C17.0066 12.0005 16.8558 12.6899 16.5542 13.2798C16.2559 13.8698 15.8333 14.3288 15.2864 14.657C14.7395 14.9851 14.0932 15.1491 13.3475 15.1491ZM13.3574 13.7074C13.7618 13.7074 14.0998 13.5964 14.3716 13.3743C14.6434 13.1489 14.8456 12.8473 14.9782 12.4695C15.1141 12.0916 15.182 11.6707 15.182 11.2067C15.182 10.7393 15.1141 10.3168 14.9782 9.93892C14.8456 9.55777 14.6434 9.2545 14.3716 9.02912C14.0998 8.80374 13.7618 8.69105 13.3574 8.69105C12.9431 8.69105 12.5984 8.80374 12.3233 9.02912C12.0516 9.2545 11.8477 9.55777 11.7118 9.93892C11.5792 10.3168 11.513 10.7393 11.513 11.2067C11.513 11.6707 11.5792 12.0916 11.7118 12.4695C11.8477 12.8473 12.0516 13.1489 12.3233 13.3743C12.5984 13.5964 12.9431 13.7074 13.3574 13.7074ZM21.8651 15.1491C21.1027 15.1491 20.4482 14.9818 19.9013 14.647C19.3577 14.3123 18.9384 13.8499 18.6435 13.2599C18.3518 12.6667 18.206 11.9839 18.206 11.2116C18.206 10.4361 18.3551 9.75166 18.6534 9.15838C18.9517 8.56179 19.3726 8.09777 19.9162 7.76633C20.4631 7.43158 21.1094 7.2642 21.8551 7.2642C22.4749 7.2642 23.0234 7.37855 23.5007 7.60724C23.9813 7.83262 24.3641 8.15246 24.6491 8.56676C24.9342 8.97775 25.0966 9.45833 25.1364 10.0085H23.4162C23.3466 9.64062 23.1809 9.33404 22.919 9.08878C22.6605 8.8402 22.3142 8.71591 21.88 8.71591C21.5121 8.71591 21.1889 8.81534 20.9105 9.0142C20.6321 9.20975 20.415 9.49148 20.2592 9.85938C20.1068 10.2273 20.0305 10.6681 20.0305 11.1818C20.0305 11.7022 20.1068 12.1496 20.2592 12.5241C20.4117 12.8954 20.6255 13.1821 20.9006 13.3842C21.179 13.5831 21.5054 13.6825 21.88 13.6825C22.1451 13.6825 22.3821 13.6328 22.5909 13.5334C22.803 13.4306 22.9804 13.2831 23.1229 13.0909C23.2654 12.8987 23.3632 12.665 23.4162 12.3899H25.1364C25.0933 12.9302 24.9342 13.4091 24.6591 13.8267C24.384 14.241 24.0095 14.5658 23.5355 14.8011C23.0616 15.0331 22.5047 15.1491 21.8651 15.1491ZM26.6142 15V7.36364H28.4139V15H26.6142ZM27.519 6.27983C27.234 6.27983 26.9887 6.18537 26.7832 5.99645C26.5777 5.80421 26.475 5.57386 26.475 5.3054C26.475 5.03362 26.5777 4.80327 26.7832 4.61435C26.9887 4.42211 27.234 4.32599 27.519 4.32599C27.8074 4.32599 28.0526 4.42211 28.2548 4.61435C28.4603 4.80327 28.563 5.03362 28.563 5.3054C28.563 5.57386 28.4603 5.80421 28.2548 5.99645C28.0526 6.18537 27.8074 6.27983 27.519 6.27983ZM32.462 15.1541C31.9781 15.1541 31.5423 15.0679 31.1545 14.8956C30.77 14.7199 30.4651 14.4614 30.2397 14.12C30.0176 13.7786 29.9066 13.3577 29.9066 12.8572C29.9066 12.4264 29.9862 12.0701 30.1452 11.7884C30.3043 11.5066 30.5214 11.2812 30.7965 11.1122C31.0716 10.9432 31.3815 10.8156 31.7262 10.7294C32.0742 10.6399 32.4338 10.5753 32.805 10.5355C33.2525 10.4891 33.6154 10.4477 33.8938 10.4112C34.1722 10.3714 34.3744 10.3118 34.5004 10.2322C34.6296 10.1494 34.6942 10.0218 34.6942 9.84943V9.8196C34.6942 9.44508 34.5832 9.15507 34.3612 8.94957C34.1391 8.74408 33.8192 8.64134 33.4016 8.64134C32.9608 8.64134 32.6112 8.73745 32.3526 8.92969C32.0974 9.12192 31.9251 9.34896 31.8356 9.6108L30.1552 9.37216C30.2878 8.90814 30.5065 8.52036 30.8114 8.20881C31.1164 7.89394 31.4892 7.65862 31.93 7.50284C32.3709 7.34375 32.8581 7.2642 33.3917 7.2642C33.7596 7.2642 34.1258 7.30729 34.4904 7.39347C34.855 7.47964 35.1881 7.62216 35.4897 7.82102C35.7913 8.01657 36.0333 8.28338 36.2156 8.62145C36.4012 8.95952 36.494 9.3821 36.494 9.8892V15H34.7638V13.951H34.7042C34.5948 14.1631 34.4407 14.362 34.2418 14.5476C34.0463 14.7299 33.7994 14.8774 33.5011 14.9901C33.2061 15.0994 32.8597 15.1541 32.462 15.1541ZM32.9293 13.8317C33.2906 13.8317 33.6038 13.7604 33.869 13.6179C34.1341 13.4721 34.3379 13.2798 34.4805 13.0412C34.6263 12.8026 34.6992 12.5424 34.6992 12.2607V11.3608C34.6429 11.4072 34.5468 11.4503 34.4109 11.4901C34.2783 11.5298 34.1291 11.5646 33.9634 11.5945C33.7977 11.6243 33.6336 11.6508 33.4712 11.674C33.3088 11.6972 33.168 11.7171 33.0487 11.7337C32.7802 11.7701 32.5399 11.8298 32.3278 11.9126C32.1156 11.9955 31.9483 12.1115 31.8256 12.2607C31.703 12.4065 31.6417 12.5954 31.6417 12.8274C31.6417 13.1589 31.7627 13.4091 32.0046 13.5781C32.2466 13.7472 32.5548 13.8317 32.9293 13.8317ZM40.1033 4.81818V15H38.3036V4.81818H40.1033Z" fill="white"/>
<g clip-path="url(#clip0_0_5382)">
<path d="M0.704545 43.875V42.3636H9.71023V43.875H6.07955V54H4.32955V43.875H0.704545ZM12.456 54L9.88778 45.2727H11.6435L13.3537 51.6818H13.4389L15.1548 45.2727H16.9105L18.6151 51.6534H18.7003L20.3991 45.2727H22.1548L19.5923 54H17.8594L16.0866 47.6989H15.956L14.1832 54H12.456ZM23.767 54V45.2727H25.4659V54H23.767ZM24.625 43.9261C24.3295 43.9261 24.0758 43.8277 23.8636 43.6307C23.6553 43.4299 23.5511 43.1913 23.5511 42.9148C23.5511 42.6345 23.6553 42.3958 23.8636 42.1989C24.0758 41.9981 24.3295 41.8977 24.625 41.8977C24.9205 41.8977 25.1723 41.9981 25.3807 42.1989C25.5928 42.3958 25.6989 42.6345 25.6989 42.9148C25.6989 43.1913 25.5928 43.4299 25.3807 43.6307C25.1723 43.8277 24.9205 43.9261 24.625 43.9261ZM31.8253 45.2727V46.6364H27.0582V45.2727H31.8253ZM28.3366 43.1818H30.0355V51.4375C30.0355 51.767 30.0848 52.0152 30.1832 52.1818C30.2817 52.3447 30.4086 52.4564 30.5639 52.517C30.723 52.5739 30.8954 52.6023 31.081 52.6023C31.2173 52.6023 31.3366 52.5928 31.4389 52.5739C31.5412 52.5549 31.6207 52.5398 31.6776 52.5284L31.9844 53.9318C31.8859 53.9697 31.7457 54.0076 31.5639 54.0455C31.3821 54.0871 31.1548 54.1098 30.8821 54.1136C30.4351 54.1212 30.0185 54.0417 29.6321 53.875C29.2457 53.7083 28.9332 53.4508 28.6946 53.1023C28.456 52.7538 28.3366 52.3163 28.3366 51.7898V43.1818ZM37.7784 45.2727V46.6364H33.0114V45.2727H37.7784ZM34.2898 43.1818H35.9886V51.4375C35.9886 51.767 36.0379 52.0152 36.1364 52.1818C36.2348 52.3447 36.3617 52.4564 36.517 52.517C36.6761 52.5739 36.8485 52.6023 37.0341 52.6023C37.1705 52.6023 37.2898 52.5928 37.392 52.5739C37.4943 52.5549 37.5739 52.5398 37.6307 52.5284L37.9375 53.9318C37.839 53.9697 37.6989 54.0076 37.517 54.0455C37.3352 54.0871 37.108 54.1098 36.8352 54.1136C36.3883 54.1212 35.9716 54.0417 35.5852 53.875C35.1989 53.7083 34.8864 53.4508 34.6477 53.1023C34.4091 52.7538 34.2898 52.3163 34.2898 51.7898V43.1818ZM43.3253 54.1761C42.4654 54.1761 41.7249 53.9924 41.1037 53.625C40.4863 53.2538 40.009 52.733 39.6719 52.0625C39.3385 51.3883 39.1719 50.5985 39.1719 49.6932C39.1719 48.7992 39.3385 48.0114 39.6719 47.3295C40.009 46.6477 40.4787 46.1155 41.081 45.733C41.687 45.3504 42.3954 45.1591 43.206 45.1591C43.6984 45.1591 44.1757 45.2405 44.6378 45.4034C45.0999 45.5663 45.5147 45.822 45.8821 46.1705C46.2495 46.5189 46.5393 46.9716 46.7514 47.5284C46.9635 48.0814 47.0696 48.7538 47.0696 49.5455V50.1477H40.1321V48.875H45.4048C45.4048 48.428 45.3139 48.0322 45.1321 47.6875C44.9503 47.339 44.6946 47.0644 44.3651 46.8636C44.0393 46.6629 43.6567 46.5625 43.2173 46.5625C42.7401 46.5625 42.3234 46.6799 41.9673 46.9148C41.6151 47.1458 41.3423 47.4489 41.1491 47.8239C40.9598 48.1951 40.8651 48.5985 40.8651 49.0341V50.0284C40.8651 50.6117 40.9673 51.108 41.1719 51.517C41.3802 51.9261 41.67 52.2386 42.0412 52.4545C42.4124 52.6667 42.8461 52.7727 43.3423 52.7727C43.6643 52.7727 43.9579 52.7273 44.223 52.6364C44.4882 52.5417 44.7173 52.4015 44.9105 52.2159C45.1037 52.0303 45.2514 51.8011 45.3537 51.5284L46.9616 51.8182C46.8329 52.2917 46.6018 52.7064 46.2685 53.0625C45.9389 53.4148 45.5241 53.6894 45.0241 53.8864C44.5279 54.0795 43.9616 54.1761 43.3253 54.1761ZM48.9545 54V45.2727H50.5966V46.6591H50.6875C50.8466 46.1894 51.1269 45.8201 51.5284 45.5511C51.9337 45.2784 52.392 45.142 52.9034 45.142C53.0095 45.142 53.1345 45.1458 53.2784 45.1534C53.4261 45.161 53.5417 45.1705 53.625 45.1818V46.8068C53.5568 46.7879 53.4356 46.767 53.2614 46.7443C53.0871 46.7178 52.9129 46.7045 52.7386 46.7045C52.3371 46.7045 51.9792 46.7898 51.6648 46.9602C51.3542 47.1269 51.108 47.3598 50.9261 47.6591C50.7443 47.9545 50.6534 48.2917 50.6534 48.6705V54H48.9545Z" fill="#535862"/>
</g>
<g clip-path="url(#clip1_0_5382)">
<path d="M1.27841 90V78.3636H3.03409V88.4886H8.30682V90H1.27841ZM10.1733 90V81.2727H11.8722V90H10.1733ZM11.0312 79.9261C10.7358 79.9261 10.482 79.8277 10.2699 79.6307C10.0616 79.4299 9.95739 79.1913 9.95739 78.9148C9.95739 78.6345 10.0616 78.3958 10.2699 78.1989C10.482 77.9981 10.7358 77.8977 11.0312 77.8977C11.3267 77.8977 11.5786 77.9981 11.7869 78.1989C11.9991 78.3958 12.1051 78.6345 12.1051 78.9148C12.1051 79.1913 11.9991 79.4299 11.7869 79.6307C11.5786 79.8277 11.3267 79.9261 11.0312 79.9261ZM15.8565 84.8182V90H14.1577V81.2727H15.7884V82.6932H15.8963C16.0971 82.2311 16.4115 81.8598 16.8395 81.5795C17.2713 81.2992 17.8149 81.1591 18.4702 81.1591C19.0649 81.1591 19.5857 81.2841 20.0327 81.5341C20.4796 81.7803 20.8262 82.1477 21.0724 82.6364C21.3187 83.125 21.4418 83.7292 21.4418 84.4489V90H19.7429V84.6534C19.7429 84.0208 19.5781 83.5265 19.2486 83.1705C18.919 82.8106 18.4664 82.6307 17.8906 82.6307C17.4967 82.6307 17.1463 82.7159 16.8395 82.8864C16.5365 83.0568 16.2959 83.3068 16.1179 83.6364C15.9437 83.9621 15.8565 84.3561 15.8565 84.8182ZM25.2827 87.0398L25.2713 84.9659H25.5668L29.044 81.2727H31.0781L27.1122 85.4773H26.8452L25.2827 87.0398ZM23.7202 90V78.3636H25.419V90H23.7202ZM29.2315 90L26.1065 85.8523L27.277 84.6648L31.3168 90H29.2315ZM36.0284 90.1761C35.1686 90.1761 34.428 89.9924 33.8068 89.625C33.1894 89.2538 32.7121 88.733 32.375 88.0625C32.0417 87.3883 31.875 86.5985 31.875 85.6932C31.875 84.7992 32.0417 84.0114 32.375 83.3295C32.7121 82.6477 33.1818 82.1155 33.7841 81.733C34.3902 81.3504 35.0985 81.1591 35.9091 81.1591C36.4015 81.1591 36.8788 81.2405 37.3409 81.4034C37.803 81.5663 38.2178 81.822 38.5852 82.1705C38.9527 82.5189 39.2424 82.9716 39.4545 83.5284C39.6667 84.0814 39.7727 84.7538 39.7727 85.5455V86.1477H32.8352V84.875H38.108C38.108 84.428 38.017 84.0322 37.8352 83.6875C37.6534 83.339 37.3977 83.0644 37.0682 82.8636C36.7424 82.6629 36.3598 82.5625 35.9205 82.5625C35.4432 82.5625 35.0265 82.6799 34.6705 82.9148C34.3182 83.1458 34.0455 83.4489 33.8523 83.8239C33.6629 84.1951 33.5682 84.5985 33.5682 85.0341V86.0284C33.5682 86.6117 33.6705 87.108 33.875 87.517C34.0833 87.9261 34.3731 88.2386 34.7443 88.4545C35.1155 88.6667 35.5492 88.7727 36.0455 88.7727C36.3674 88.7727 36.661 88.7273 36.9261 88.6364C37.1913 88.5417 37.4205 88.4015 37.6136 88.2159C37.8068 88.0303 37.9545 87.8011 38.0568 87.5284L39.6648 87.8182C39.536 88.2917 39.3049 88.7064 38.9716 89.0625C38.642 89.4148 38.2273 89.6894 37.7273 89.8864C37.2311 90.0795 36.6648 90.1761 36.0284 90.1761ZM44.9247 90.1705C44.2202 90.1705 43.5914 89.9905 43.0384 89.6307C42.4891 89.267 42.0573 88.75 41.7429 88.0795C41.4323 87.4053 41.277 86.5966 41.277 85.6534C41.277 84.7102 41.4342 83.9034 41.7486 83.233C42.0668 82.5625 42.5024 82.0492 43.0554 81.6932C43.6084 81.3371 44.2353 81.1591 44.9361 81.1591C45.4777 81.1591 45.9134 81.25 46.2429 81.4318C46.5762 81.6098 46.8338 81.8182 47.0156 82.0568C47.2012 82.2955 47.3452 82.5057 47.4474 82.6875H47.5497V78.3636H49.2486V90H47.5895V88.642H47.4474C47.3452 88.8277 47.1974 89.0398 47.0043 89.2784C46.8149 89.517 46.5535 89.7254 46.2202 89.9034C45.8868 90.0814 45.455 90.1705 44.9247 90.1705ZM45.2997 88.7216C45.7884 88.7216 46.2012 88.5928 46.5384 88.3352C46.8793 88.0739 47.1368 87.7121 47.3111 87.25C47.4891 86.7879 47.5781 86.25 47.5781 85.6364C47.5781 85.0303 47.491 84.5 47.3168 84.0455C47.1425 83.5909 46.8868 83.2367 46.5497 82.983C46.2126 82.7292 45.7959 82.6023 45.2997 82.6023C44.7884 82.6023 44.3622 82.7348 44.0213 83C43.6804 83.2652 43.4228 83.6269 43.2486 84.0852C43.0781 84.5436 42.9929 85.0606 42.9929 85.6364C42.9929 86.2197 43.08 86.7443 43.2543 87.2102C43.4285 87.6761 43.6861 88.0455 44.027 88.3182C44.3717 88.5871 44.7959 88.7216 45.2997 88.7216ZM53.5653 78.3636V90H51.8097V78.3636H53.5653ZM57.6847 84.8182V90H55.9858V81.2727H57.6165V82.6932H57.7244C57.9252 82.2311 58.2396 81.8598 58.6676 81.5795C59.0994 81.2992 59.643 81.1591 60.2983 81.1591C60.893 81.1591 61.4138 81.2841 61.8608 81.5341C62.3078 81.7803 62.6544 82.1477 62.9006 82.6364C63.1468 83.125 63.2699 83.7292 63.2699 84.4489V90H61.571V84.6534C61.571 84.0208 61.4063 83.5265 61.0767 83.1705C60.7472 82.8106 60.2945 82.6307 59.7188 82.6307C59.3248 82.6307 58.9744 82.7159 58.6676 82.8864C58.3646 83.0568 58.1241 83.3068 57.946 83.6364C57.7718 83.9621 57.6847 84.3561 57.6847 84.8182Z" fill="#535862"/>
</g>
<g clip-path="url(#clip2_0_5382)">
<path d="M1.27841 126V114.364H8.49432V115.875H3.03409V119.42H7.97727V120.926H3.03409V126H1.27841ZM13.0256 126.193C12.4725 126.193 11.9725 126.091 11.5256 125.886C11.0786 125.678 10.7244 125.377 10.4631 124.983C10.2055 124.589 10.0767 124.106 10.0767 123.534C10.0767 123.042 10.1714 122.636 10.3608 122.318C10.5502 122 10.8059 121.748 11.1278 121.562C11.4498 121.377 11.8097 121.237 12.2074 121.142C12.6051 121.047 13.0104 120.975 13.4233 120.926C13.946 120.866 14.3703 120.816 14.696 120.778C15.0218 120.737 15.2585 120.67 15.4062 120.58C15.554 120.489 15.6278 120.341 15.6278 120.136V120.097C15.6278 119.6 15.4877 119.216 15.2074 118.943C14.9309 118.67 14.518 118.534 13.9688 118.534C13.3968 118.534 12.946 118.661 12.6165 118.915C12.2907 119.165 12.0653 119.443 11.9403 119.75L10.3438 119.386C10.5331 118.856 10.8097 118.428 11.1733 118.102C11.5407 117.773 11.9631 117.534 12.4403 117.386C12.9176 117.235 13.4195 117.159 13.946 117.159C14.2945 117.159 14.6638 117.201 15.054 117.284C15.4479 117.364 15.8153 117.511 16.1562 117.727C16.5009 117.943 16.7831 118.252 17.0028 118.653C17.2225 119.051 17.3324 119.568 17.3324 120.205V126H15.6733V124.807H15.6051C15.4953 125.027 15.3305 125.242 15.1108 125.455C14.8911 125.667 14.6089 125.843 14.2642 125.983C13.9195 126.123 13.5066 126.193 13.0256 126.193ZM13.3949 124.83C13.8646 124.83 14.2661 124.737 14.5994 124.551C14.9366 124.366 15.1922 124.123 15.3665 123.824C15.5445 123.521 15.6335 123.197 15.6335 122.852V121.727C15.5729 121.788 15.4555 121.845 15.2812 121.898C15.1108 121.947 14.9157 121.991 14.696 122.028C14.4763 122.062 14.2623 122.095 14.054 122.125C13.8456 122.152 13.6714 122.174 13.5312 122.193C13.2017 122.235 12.9006 122.305 12.6278 122.403C12.3589 122.502 12.143 122.644 11.9801 122.83C11.821 123.011 11.7415 123.254 11.7415 123.557C11.7415 123.977 11.8968 124.295 12.2074 124.511C12.518 124.723 12.9138 124.83 13.3949 124.83ZM23.2713 126.176C22.4266 126.176 21.6993 125.985 21.0895 125.602C20.4834 125.216 20.0175 124.684 19.6918 124.006C19.366 123.328 19.2031 122.551 19.2031 121.676C19.2031 120.79 19.3698 120.008 19.7031 119.33C20.0365 118.648 20.5062 118.116 21.1122 117.733C21.7183 117.35 22.4323 117.159 23.2543 117.159C23.9171 117.159 24.508 117.282 25.027 117.528C25.5459 117.771 25.9645 118.112 26.2827 118.551C26.6046 118.991 26.7959 119.504 26.8565 120.091H25.2031C25.1122 119.682 24.9039 119.33 24.5781 119.034C24.2562 118.739 23.8243 118.591 23.2827 118.591C22.8092 118.591 22.3944 118.716 22.0384 118.966C21.6861 119.212 21.4115 119.564 21.2145 120.023C21.0175 120.477 20.919 121.015 20.919 121.636C20.919 122.273 21.0156 122.822 21.2088 123.284C21.402 123.746 21.6747 124.104 22.027 124.358C22.383 124.612 22.8016 124.739 23.2827 124.739C23.6046 124.739 23.8963 124.68 24.1577 124.562C24.4228 124.441 24.6444 124.269 24.8224 124.045C25.0043 123.822 25.1312 123.553 25.2031 123.239H26.8565C26.7959 123.803 26.6122 124.307 26.3054 124.75C25.9986 125.193 25.5876 125.542 25.0724 125.795C24.5611 126.049 23.9607 126.176 23.2713 126.176ZM32.4347 126.176C31.5748 126.176 30.8343 125.992 30.2131 125.625C29.5956 125.254 29.1184 124.733 28.7812 124.062C28.4479 123.388 28.2812 122.598 28.2812 121.693C28.2812 120.799 28.4479 120.011 28.7812 119.33C29.1184 118.648 29.5881 118.116 30.1903 117.733C30.7964 117.35 31.5047 117.159 32.3153 117.159C32.8078 117.159 33.285 117.241 33.7472 117.403C34.2093 117.566 34.6241 117.822 34.9915 118.17C35.3589 118.519 35.6487 118.972 35.8608 119.528C36.0729 120.081 36.179 120.754 36.179 121.545V122.148H29.2415V120.875H34.5142C34.5142 120.428 34.4233 120.032 34.2415 119.688C34.0597 119.339 33.804 119.064 33.4744 118.864C33.1487 118.663 32.7661 118.562 32.3267 118.562C31.8494 118.562 31.4328 118.68 31.0767 118.915C30.7244 119.146 30.4517 119.449 30.2585 119.824C30.0691 120.195 29.9744 120.598 29.9744 121.034V122.028C29.9744 122.612 30.0767 123.108 30.2812 123.517C30.4896 123.926 30.7794 124.239 31.1506 124.455C31.5218 124.667 31.9555 124.773 32.4517 124.773C32.7737 124.773 33.0672 124.727 33.3324 124.636C33.5975 124.542 33.8267 124.402 34.0199 124.216C34.2131 124.03 34.3608 123.801 34.4631 123.528L36.071 123.818C35.9422 124.292 35.7112 124.706 35.3778 125.062C35.0483 125.415 34.6335 125.689 34.1335 125.886C33.6373 126.08 33.071 126.176 32.4347 126.176ZM38.2003 126V114.364H39.8991V118.688H40.0014C40.0999 118.506 40.242 118.295 40.4276 118.057C40.6132 117.818 40.8707 117.61 41.2003 117.432C41.5298 117.25 41.9654 117.159 42.5071 117.159C43.2116 117.159 43.8404 117.337 44.3935 117.693C44.9465 118.049 45.3802 118.562 45.6946 119.233C46.0128 119.903 46.1719 120.71 46.1719 121.653C46.1719 122.597 46.0147 123.405 45.7003 124.08C45.3859 124.75 44.9541 125.267 44.4048 125.631C43.8556 125.991 43.2287 126.17 42.5241 126.17C41.9938 126.17 41.5601 126.081 41.223 125.903C40.8897 125.725 40.6283 125.517 40.4389 125.278C40.2495 125.04 40.1037 124.828 40.0014 124.642H39.8594V126H38.2003ZM39.8651 121.636C39.8651 122.25 39.9541 122.788 40.1321 123.25C40.3101 123.712 40.5677 124.074 40.9048 124.335C41.242 124.593 41.6548 124.722 42.1435 124.722C42.651 124.722 43.0753 124.587 43.4162 124.318C43.7571 124.045 44.0147 123.676 44.1889 123.21C44.367 122.744 44.456 122.22 44.456 121.636C44.456 121.061 44.3688 120.544 44.1946 120.085C44.0241 119.627 43.7666 119.265 43.4219 119C43.081 118.735 42.6548 118.602 42.1435 118.602C41.651 118.602 41.2344 118.729 40.8935 118.983C40.5563 119.237 40.3007 119.591 40.1264 120.045C39.9522 120.5 39.8651 121.03 39.8651 121.636ZM51.7557 126.176C50.9375 126.176 50.2235 125.989 49.6136 125.614C49.0038 125.239 48.5303 124.714 48.1932 124.04C47.8561 123.366 47.6875 122.578 47.6875 121.676C47.6875 120.771 47.8561 119.979 48.1932 119.301C48.5303 118.623 49.0038 118.097 49.6136 117.722C50.2235 117.347 50.9375 117.159 51.7557 117.159C52.5739 117.159 53.2879 117.347 53.8977 117.722C54.5076 118.097 54.9811 118.623 55.3182 119.301C55.6553 119.979 55.8239 120.771 55.8239 121.676C55.8239 122.578 55.6553 123.366 55.3182 124.04C54.9811 124.714 54.5076 125.239 53.8977 125.614C53.2879 125.989 52.5739 126.176 51.7557 126.176ZM51.7614 124.75C52.2917 124.75 52.7311 124.61 53.0795 124.33C53.428 124.049 53.6856 123.676 53.8523 123.21C54.0227 122.744 54.108 122.231 54.108 121.67C54.108 121.114 54.0227 120.602 53.8523 120.136C53.6856 119.667 53.428 119.29 53.0795 119.006C52.7311 118.722 52.2917 118.58 51.7614 118.58C51.2273 118.58 50.7841 118.722 50.4318 119.006C50.0833 119.29 49.8239 119.667 49.6534 120.136C49.4867 120.602 49.4034 121.114 49.4034 121.67C49.4034 122.231 49.4867 122.744 49.6534 123.21C49.8239 123.676 50.0833 124.049 50.4318 124.33C50.7841 124.61 51.2273 124.75 51.7614 124.75ZM61.3963 126.176C60.5781 126.176 59.8641 125.989 59.2543 125.614C58.6444 125.239 58.1709 124.714 57.8338 124.04C57.4967 123.366 57.3281 122.578 57.3281 121.676C57.3281 120.771 57.4967 119.979 57.8338 119.301C58.1709 118.623 58.6444 118.097 59.2543 117.722C59.8641 117.347 60.5781 117.159 61.3963 117.159C62.2145 117.159 62.9285 117.347 63.5384 117.722C64.1482 118.097 64.6217 118.623 64.9588 119.301C65.2959 119.979 65.4645 120.771 65.4645 121.676C65.4645 122.578 65.2959 123.366 64.9588 124.04C64.6217 124.714 64.1482 125.239 63.5384 125.614C62.9285 125.989 62.2145 126.176 61.3963 126.176ZM61.402 124.75C61.9323 124.75 62.3717 124.61 62.7202 124.33C63.0687 124.049 63.3262 123.676 63.4929 123.21C63.6634 122.744 63.7486 122.231 63.7486 121.67C63.7486 121.114 63.6634 120.602 63.4929 120.136C63.3262 119.667 63.0687 119.29 62.7202 119.006C62.3717 118.722 61.9323 118.58 61.402 118.58C60.8679 118.58 60.4247 118.722 60.0724 119.006C59.724 119.29 59.4645 119.667 59.294 120.136C59.1274 120.602 59.044 121.114 59.044 121.67C59.044 122.231 59.1274 122.744 59.294 123.21C59.4645 123.676 59.724 124.049 60.0724 124.33C60.4247 124.61 60.8679 124.75 61.402 124.75ZM68.9233 123.04L68.9119 120.966H69.2074L72.6847 117.273H74.7188L70.7528 121.477H70.4858L68.9233 123.04ZM67.3608 126V114.364H69.0597V126H67.3608ZM72.8722 126L69.7472 121.852L70.9176 120.665L74.9574 126H72.8722Z" fill="#535862"/>
</g>
<g clip-path="url(#clip3_0_5382)">
<path d="M9.15341 154.04C9.04356 153.695 8.89583 153.386 8.71023 153.114C8.52841 152.837 8.31061 152.602 8.05682 152.409C7.80303 152.212 7.51326 152.062 7.1875 151.96C6.86553 151.858 6.51136 151.807 6.125 151.807C5.4697 151.807 4.87879 151.975 4.35227 152.312C3.82576 152.65 3.40909 153.144 3.10227 153.795C2.79924 154.443 2.64773 155.237 2.64773 156.176C2.64773 157.119 2.80114 157.917 3.10795 158.568C3.41477 159.22 3.83523 159.714 4.36932 160.051C4.90341 160.388 5.51136 160.557 6.19318 160.557C6.82576 160.557 7.37689 160.428 7.84659 160.17C8.32008 159.913 8.68561 159.549 8.94318 159.08C9.20455 158.606 9.33523 158.049 9.33523 157.409L9.78977 157.494H6.46023V156.045H11.0341V157.369C11.0341 158.347 10.8258 159.195 10.4091 159.915C9.99621 160.631 9.42424 161.184 8.69318 161.574C7.96591 161.964 7.13258 162.159 6.19318 162.159C5.14015 162.159 4.21591 161.917 3.42045 161.432C2.62879 160.947 2.01136 160.259 1.56818 159.369C1.125 158.475 0.903409 157.415 0.903409 156.188C0.903409 155.259 1.0322 154.426 1.28977 153.688C1.54735 152.949 1.90909 152.322 2.375 151.807C2.8447 151.288 3.39583 150.892 4.02841 150.619C4.66477 150.343 5.35985 150.205 6.11364 150.205C6.74242 150.205 7.32765 150.297 7.86932 150.483C8.41477 150.669 8.89962 150.932 9.32386 151.273C9.75189 151.614 10.1061 152.019 10.3864 152.489C10.6667 152.955 10.8561 153.472 10.9545 154.04H9.15341ZM13.6733 162V153.273H15.3722V162H13.6733ZM14.5312 151.926C14.2358 151.926 13.982 151.828 13.7699 151.631C13.5616 151.43 13.4574 151.191 13.4574 150.915C13.4574 150.634 13.5616 150.396 13.7699 150.199C13.982 149.998 14.2358 149.898 14.5312 149.898C14.8267 149.898 15.0786 149.998 15.2869 150.199C15.4991 150.396 15.6051 150.634 15.6051 150.915C15.6051 151.191 15.4991 151.43 15.2869 151.631C15.0786 151.828 14.8267 151.926 14.5312 151.926ZM21.7315 153.273V154.636H16.9645V153.273H21.7315ZM18.2429 151.182H19.9418V159.438C19.9418 159.767 19.991 160.015 20.0895 160.182C20.188 160.345 20.3149 160.456 20.4702 160.517C20.6293 160.574 20.8016 160.602 20.9872 160.602C21.1236 160.602 21.2429 160.593 21.3452 160.574C21.4474 160.555 21.527 160.54 21.5838 160.528L21.8906 161.932C21.7921 161.97 21.652 162.008 21.4702 162.045C21.2884 162.087 21.0611 162.11 20.7884 162.114C20.3414 162.121 19.9247 162.042 19.5384 161.875C19.152 161.708 18.8395 161.451 18.6009 161.102C18.3622 160.754 18.2429 160.316 18.2429 159.79V151.182ZM23.9347 162V150.364H25.6903V155.42H31.4915V150.364H33.2528V162H31.4915V156.926H25.6903V162H23.9347ZM41.2017 158.381V153.273H42.9062V162H41.2358V160.489H41.1449C40.9441 160.955 40.6222 161.343 40.179 161.653C39.7396 161.96 39.1922 162.114 38.5369 162.114C37.9763 162.114 37.4801 161.991 37.0483 161.744C36.6203 161.494 36.2831 161.125 36.0369 160.636C35.7945 160.148 35.6733 159.544 35.6733 158.824V153.273H37.3722V158.619C37.3722 159.214 37.5369 159.687 37.8665 160.04C38.196 160.392 38.6241 160.568 39.1506 160.568C39.4688 160.568 39.785 160.489 40.0994 160.33C40.4176 160.17 40.6809 159.93 40.8892 159.608C41.1013 159.286 41.2055 158.877 41.2017 158.381ZM45.3253 162V150.364H47.0241V154.688H47.1264C47.2249 154.506 47.367 154.295 47.5526 154.057C47.7382 153.818 47.9957 153.61 48.3253 153.432C48.6548 153.25 49.0904 153.159 49.6321 153.159C50.3366 153.159 50.9654 153.337 51.5185 153.693C52.0715 154.049 52.5052 154.562 52.8196 155.233C53.1378 155.903 53.2969 156.71 53.2969 157.653C53.2969 158.597 53.1397 159.405 52.8253 160.08C52.5109 160.75 52.0791 161.267 51.5298 161.631C50.9806 161.991 50.3537 162.17 49.6491 162.17C49.1188 162.17 48.6851 162.081 48.348 161.903C48.0147 161.725 47.7533 161.517 47.5639 161.278C47.3745 161.04 47.2287 160.828 47.1264 160.642H46.9844V162H45.3253ZM46.9901 157.636C46.9901 158.25 47.0791 158.788 47.2571 159.25C47.4351 159.712 47.6927 160.074 48.0298 160.335C48.367 160.593 48.7798 160.722 49.2685 160.722C49.776 160.722 50.2003 160.587 50.5412 160.318C50.8821 160.045 51.1397 159.676 51.3139 159.21C51.492 158.744 51.581 158.22 51.581 157.636C51.581 157.061 51.4938 156.544 51.3196 156.085C51.1491 155.627 50.8916 155.265 50.5469 155C50.206 154.735 49.7798 154.602 49.2685 154.602C48.776 154.602 48.3594 154.729 48.0185 154.983C47.6813 155.237 47.4257 155.591 47.2514 156.045C47.0772 156.5 46.9901 157.03 46.9901 157.636Z" fill="#535862"/>
</g>
<g clip-path="url(#clip4_0_5382)">
<path d="M2.26136 198H0.397727L4.58523 186.364H6.61364L10.8011 198H8.9375L5.64773 188.477H5.55682L2.26136 198ZM2.57386 193.443H8.61932V194.92H2.57386V193.443ZM14.044 192.818V198H12.3452V189.273H13.9759V190.693H14.0838C14.2846 190.231 14.599 189.86 15.027 189.58C15.4588 189.299 16.0024 189.159 16.6577 189.159C17.2524 189.159 17.7732 189.284 18.2202 189.534C18.6671 189.78 19.0137 190.148 19.2599 190.636C19.5062 191.125 19.6293 191.729 19.6293 192.449V198H17.9304V192.653C17.9304 192.021 17.7656 191.527 17.4361 191.17C17.1065 190.811 16.6539 190.631 16.0781 190.631C15.6842 190.631 15.3338 190.716 15.027 190.886C14.724 191.057 14.4834 191.307 14.3054 191.636C14.1312 191.962 14.044 192.356 14.044 192.818ZM25.5668 201.455C24.8736 201.455 24.277 201.364 23.777 201.182C23.2808 201 22.8755 200.759 22.5611 200.46C22.2467 200.161 22.0118 199.833 21.8565 199.477L23.3168 198.875C23.419 199.042 23.5554 199.218 23.7259 199.403C23.9001 199.593 24.1349 199.754 24.4304 199.886C24.7296 200.019 25.1141 200.085 25.5838 200.085C26.2277 200.085 26.7599 199.928 27.1804 199.614C27.6009 199.303 27.8111 198.807 27.8111 198.125V196.409H27.7031C27.6009 196.595 27.4531 196.801 27.2599 197.028C27.0705 197.256 26.8092 197.453 26.4759 197.619C26.1425 197.786 25.7088 197.869 25.1747 197.869C24.4853 197.869 23.8641 197.708 23.3111 197.386C22.7618 197.061 22.3262 196.581 22.0043 195.949C21.6861 195.312 21.527 194.53 21.527 193.602C21.527 192.674 21.6842 191.879 21.9986 191.216C22.3168 190.553 22.7524 190.045 23.3054 189.693C23.8584 189.337 24.4853 189.159 25.1861 189.159C25.7277 189.159 26.1652 189.25 26.4986 189.432C26.8319 189.61 27.0914 189.818 27.277 190.057C27.4664 190.295 27.6122 190.506 27.7145 190.688H27.8395V189.273H29.5043V198.193C29.5043 198.943 29.33 199.559 28.9815 200.04C28.633 200.521 28.1615 200.877 27.5668 201.108C26.9759 201.339 26.3092 201.455 25.5668 201.455ZM25.5497 196.46C26.0384 196.46 26.4512 196.347 26.7884 196.119C27.1293 195.888 27.3868 195.559 27.5611 195.131C27.7391 194.699 27.8281 194.182 27.8281 193.58C27.8281 192.992 27.741 192.475 27.5668 192.028C27.3925 191.581 27.1368 191.233 26.7997 190.983C26.4626 190.729 26.0459 190.602 25.5497 190.602C25.0384 190.602 24.6122 190.735 24.2713 191C23.9304 191.261 23.6728 191.617 23.4986 192.068C23.3281 192.519 23.2429 193.023 23.2429 193.58C23.2429 194.152 23.33 194.653 23.5043 195.085C23.6785 195.517 23.9361 195.854 24.277 196.097C24.6217 196.339 25.0459 196.46 25.5497 196.46ZM35.544 198.176C34.6842 198.176 33.9437 197.992 33.3224 197.625C32.705 197.254 32.2277 196.733 31.8906 196.062C31.5573 195.388 31.3906 194.598 31.3906 193.693C31.3906 192.799 31.5573 192.011 31.8906 191.33C32.2277 190.648 32.6974 190.116 33.2997 189.733C33.9058 189.35 34.6141 189.159 35.4247 189.159C35.9171 189.159 36.3944 189.241 36.8565 189.403C37.3187 189.566 37.7334 189.822 38.1009 190.17C38.4683 190.519 38.758 190.972 38.9702 191.528C39.1823 192.081 39.2884 192.754 39.2884 193.545V194.148H32.3509V192.875H37.6236C37.6236 192.428 37.5327 192.032 37.3509 191.688C37.169 191.339 36.9134 191.064 36.5838 190.864C36.258 190.663 35.8755 190.562 35.4361 190.562C34.9588 190.562 34.5421 190.68 34.1861 190.915C33.8338 191.146 33.5611 191.449 33.3679 191.824C33.1785 192.195 33.0838 192.598 33.0838 193.034V194.028C33.0838 194.612 33.1861 195.108 33.3906 195.517C33.599 195.926 33.8887 196.239 34.2599 196.455C34.6312 196.667 35.0649 196.773 35.5611 196.773C35.883 196.773 36.1766 196.727 36.4418 196.636C36.7069 196.542 36.9361 196.402 37.1293 196.216C37.3224 196.03 37.4702 195.801 37.5724 195.528L39.1804 195.818C39.0516 196.292 38.8205 196.706 38.4872 197.062C38.1577 197.415 37.7429 197.689 37.2429 197.886C36.7467 198.08 36.1804 198.176 35.544 198.176ZM42.8722 186.364V198H41.1733V186.364H42.8722ZM45.294 198V186.364H47.0497V196.489H52.3224V198H45.294ZM54.1889 198V189.273H55.8878V198H54.1889ZM55.0469 187.926C54.7514 187.926 54.4976 187.828 54.2855 187.631C54.0772 187.43 53.973 187.191 53.973 186.915C53.973 186.634 54.0772 186.396 54.2855 186.199C54.4976 185.998 54.7514 185.898 55.0469 185.898C55.3423 185.898 55.5942 185.998 55.8026 186.199C56.0147 186.396 56.1207 186.634 56.1207 186.915C56.1207 187.191 56.0147 187.43 55.8026 187.631C55.5942 187.828 55.3423 187.926 55.0469 187.926ZM64.7131 191.403L63.1733 191.676C63.1089 191.479 63.0066 191.292 62.8665 191.114C62.7301 190.936 62.5445 190.79 62.3097 190.676C62.0748 190.562 61.7813 190.506 61.429 190.506C60.9479 190.506 60.5464 190.614 60.2244 190.83C59.9025 191.042 59.7415 191.316 59.7415 191.653C59.7415 191.945 59.8494 192.18 60.0653 192.358C60.2813 192.536 60.6297 192.682 61.1108 192.795L62.4972 193.114C63.3002 193.299 63.8987 193.585 64.2926 193.972C64.6866 194.358 64.8835 194.86 64.8835 195.477C64.8835 196 64.732 196.466 64.429 196.875C64.1297 197.28 63.7112 197.598 63.1733 197.83C62.6392 198.061 62.0199 198.176 61.3153 198.176C60.3381 198.176 59.5407 197.968 58.9233 197.551C58.3059 197.131 57.9271 196.534 57.7869 195.761L59.429 195.511C59.5313 195.939 59.7415 196.263 60.0597 196.483C60.3778 196.699 60.7926 196.807 61.304 196.807C61.8608 196.807 62.3059 196.691 62.6392 196.46C62.9725 196.225 63.1392 195.939 63.1392 195.602C63.1392 195.33 63.0369 195.1 62.8324 194.915C62.6316 194.729 62.3229 194.589 61.9062 194.494L60.429 194.17C59.6146 193.985 59.0123 193.689 58.6222 193.284C58.2358 192.879 58.0426 192.366 58.0426 191.744C58.0426 191.229 58.1866 190.778 58.4744 190.392C58.7623 190.006 59.16 189.705 59.6676 189.489C60.1752 189.269 60.7566 189.159 61.4119 189.159C62.3551 189.159 63.0975 189.364 63.6392 189.773C64.1809 190.178 64.5388 190.722 64.7131 191.403ZM70.8253 189.273V190.636H66.0582V189.273H70.8253ZM67.3366 187.182H69.0355V195.438C69.0355 195.767 69.0848 196.015 69.1832 196.182C69.2817 196.345 69.4086 196.456 69.5639 196.517C69.723 196.574 69.8954 196.602 70.081 196.602C70.2173 196.602 70.3366 196.593 70.4389 196.574C70.5412 196.555 70.6207 196.54 70.6776 196.528L70.9844 197.932C70.8859 197.97 70.7457 198.008 70.5639 198.045C70.3821 198.087 70.1548 198.11 69.8821 198.114C69.4351 198.121 69.0185 198.042 68.6321 197.875C68.2457 197.708 67.9332 197.451 67.6946 197.102C67.456 196.754 67.3366 196.316 67.3366 195.79V187.182Z" fill="#535862"/>
</g>
<g clip-path="url(#clip5_0_5382)">
<path d="M5.04545 234H1.27841V222.364H5.16477C6.30492 222.364 7.28409 222.597 8.10227 223.062C8.92045 223.525 9.54735 224.189 9.98295 225.057C10.4223 225.92 10.642 226.956 10.642 228.165C10.642 229.377 10.4205 230.419 9.97727 231.29C9.53788 232.161 8.90152 232.831 8.06818 233.301C7.23485 233.767 6.22727 234 5.04545 234ZM3.03409 232.466H4.94886C5.83523 232.466 6.57197 232.299 7.15909 231.966C7.74621 231.629 8.18561 231.142 8.47727 230.506C8.76894 229.866 8.91477 229.085 8.91477 228.165C8.91477 227.252 8.76894 226.477 8.47727 225.841C8.18939 225.205 7.75947 224.722 7.1875 224.392C6.61553 224.062 5.9053 223.898 5.05682 223.898H3.03409V232.466ZM12.6889 234V225.273H14.331V226.659H14.4219C14.581 226.189 14.8613 225.82 15.2628 225.551C15.6681 225.278 16.1264 225.142 16.6378 225.142C16.7438 225.142 16.8688 225.146 17.0128 225.153C17.1605 225.161 17.276 225.17 17.3594 225.182V226.807C17.2912 226.788 17.17 226.767 16.9957 226.744C16.8215 226.718 16.6473 226.705 16.473 226.705C16.0715 226.705 15.7135 226.79 15.3991 226.96C15.0885 227.127 14.8423 227.36 14.6605 227.659C14.4787 227.955 14.3878 228.292 14.3878 228.67V234H12.6889ZM18.8295 234V225.273H20.5284V234H18.8295ZM19.6875 223.926C19.392 223.926 19.1383 223.828 18.9261 223.631C18.7178 223.43 18.6136 223.191 18.6136 222.915C18.6136 222.634 18.7178 222.396 18.9261 222.199C19.1383 221.998 19.392 221.898 19.6875 221.898C19.983 221.898 20.2348 221.998 20.4432 222.199C20.6553 222.396 20.7614 222.634 20.7614 222.915C20.7614 223.191 20.6553 223.43 20.4432 223.631C20.2348 223.828 19.983 223.926 19.6875 223.926ZM22.9503 234V222.364H24.6491V226.688H24.7514C24.8499 226.506 24.992 226.295 25.1776 226.057C25.3632 225.818 25.6207 225.61 25.9503 225.432C26.2798 225.25 26.7154 225.159 27.2571 225.159C27.9616 225.159 28.5904 225.337 29.1435 225.693C29.6965 226.049 30.1302 226.562 30.4446 227.233C30.7628 227.903 30.9219 228.71 30.9219 229.653C30.9219 230.597 30.7647 231.405 30.4503 232.08C30.1359 232.75 29.7041 233.267 29.1548 233.631C28.6056 233.991 27.9787 234.17 27.2741 234.17C26.7438 234.17 26.3101 234.081 25.973 233.903C25.6397 233.725 25.3783 233.517 25.1889 233.278C24.9995 233.04 24.8537 232.828 24.7514 232.642H24.6094V234H22.9503ZM24.6151 229.636C24.6151 230.25 24.7041 230.788 24.8821 231.25C25.0601 231.712 25.3177 232.074 25.6548 232.335C25.992 232.593 26.4048 232.722 26.8935 232.722C27.401 232.722 27.8253 232.587 28.1662 232.318C28.5071 232.045 28.7647 231.676 28.9389 231.21C29.117 230.744 29.206 230.22 29.206 229.636C29.206 229.061 29.1188 228.544 28.9446 228.085C28.7741 227.627 28.5166 227.265 28.1719 227C27.831 226.735 27.4048 226.602 26.8935 226.602C26.401 226.602 25.9844 226.729 25.6435 226.983C25.3063 227.237 25.0507 227.591 24.8764 228.045C24.7022 228.5 24.6151 229.03 24.6151 229.636ZM32.9659 234V222.364H34.6648V226.688H34.767C34.8655 226.506 35.0076 226.295 35.1932 226.057C35.3788 225.818 35.6364 225.61 35.9659 225.432C36.2955 225.25 36.7311 225.159 37.2727 225.159C37.9773 225.159 38.6061 225.337 39.1591 225.693C39.7121 226.049 40.1458 226.562 40.4602 227.233C40.7784 227.903 40.9375 228.71 40.9375 229.653C40.9375 230.597 40.7803 231.405 40.4659 232.08C40.1515 232.75 39.7197 233.267 39.1705 233.631C38.6212 233.991 37.9943 234.17 37.2898 234.17C36.7595 234.17 36.3258 234.081 35.9886 233.903C35.6553 233.725 35.3939 233.517 35.2045 233.278C35.0152 233.04 34.8693 232.828 34.767 232.642H34.625V234H32.9659ZM34.6307 229.636C34.6307 230.25 34.7197 230.788 34.8977 231.25C35.0758 231.712 35.3333 232.074 35.6705 232.335C36.0076 232.593 36.4205 232.722 36.9091 232.722C37.4167 232.722 37.8409 232.587 38.1818 232.318C38.5227 232.045 38.7803 231.676 38.9545 231.21C39.1326 230.744 39.2216 230.22 39.2216 229.636C39.2216 229.061 39.1345 228.544 38.9602 228.085C38.7898 227.627 38.5322 227.265 38.1875 227C37.8466 226.735 37.4205 226.602 36.9091 226.602C36.4167 226.602 36 226.729 35.6591 226.983C35.322 227.237 35.0663 227.591 34.892 228.045C34.7178 228.5 34.6307 229.03 34.6307 229.636ZM42.9815 234V222.364H44.6804V226.688H44.7827C44.8812 226.506 45.0232 226.295 45.2088 226.057C45.3944 225.818 45.652 225.61 45.9815 225.432C46.3111 225.25 46.7467 225.159 47.2884 225.159C47.9929 225.159 48.6217 225.337 49.1747 225.693C49.7277 226.049 50.1615 226.562 50.4759 227.233C50.794 227.903 50.9531 228.71 50.9531 229.653C50.9531 230.597 50.7959 231.405 50.4815 232.08C50.1671 232.75 49.7353 233.267 49.1861 233.631C48.6368 233.991 48.0099 234.17 47.3054 234.17C46.7751 234.17 46.3414 234.081 46.0043 233.903C45.6709 233.725 45.4096 233.517 45.2202 233.278C45.0308 233.04 44.8849 232.828 44.7827 232.642H44.6406V234H42.9815ZM44.6463 229.636C44.6463 230.25 44.7353 230.788 44.9134 231.25C45.0914 231.712 45.349 232.074 45.6861 232.335C46.0232 232.593 46.4361 232.722 46.9247 232.722C47.4323 232.722 47.8565 232.587 48.1974 232.318C48.5384 232.045 48.7959 231.676 48.9702 231.21C49.1482 230.744 49.2372 230.22 49.2372 229.636C49.2372 229.061 49.1501 228.544 48.9759 228.085C48.8054 227.627 48.5478 227.265 48.2031 227C47.8622 226.735 47.4361 226.602 46.9247 226.602C46.4323 226.602 46.0156 226.729 45.6747 226.983C45.3376 227.237 45.0819 227.591 44.9077 228.045C44.7334 228.5 44.6463 229.03 44.6463 229.636ZM54.5597 222.364V234H52.8608V222.364H54.5597ZM60.6065 234.176C59.7467 234.176 59.0062 233.992 58.3849 233.625C57.7675 233.254 57.2902 232.733 56.9531 232.062C56.6198 231.388 56.4531 230.598 56.4531 229.693C56.4531 228.799 56.6198 228.011 56.9531 227.33C57.2902 226.648 57.7599 226.116 58.3622 225.733C58.9683 225.35 59.6766 225.159 60.4872 225.159C60.9796 225.159 61.4569 225.241 61.919 225.403C62.3812 225.566 62.7959 225.822 63.1634 226.17C63.5308 226.519 63.8205 226.972 64.0327 227.528C64.2448 228.081 64.3509 228.754 64.3509 229.545V230.148H57.4134V228.875H62.6861C62.6861 228.428 62.5952 228.032 62.4134 227.688C62.2315 227.339 61.9759 227.064 61.6463 226.864C61.3205 226.663 60.938 226.562 60.4986 226.562C60.0213 226.562 59.6046 226.68 59.2486 226.915C58.8963 227.146 58.6236 227.449 58.4304 227.824C58.241 228.195 58.1463 228.598 58.1463 229.034V230.028C58.1463 230.612 58.2486 231.108 58.4531 231.517C58.6615 231.926 58.9512 232.239 59.3224 232.455C59.6937 232.667 60.1274 232.773 60.6236 232.773C60.9455 232.773 61.2391 232.727 61.5043 232.636C61.7694 232.542 61.9986 232.402 62.1918 232.216C62.3849 232.03 62.5327 231.801 62.6349 231.528L64.2429 231.818C64.1141 232.292 63.883 232.706 63.5497 233.062C63.2202 233.415 62.8054 233.689 62.3054 233.886C61.8092 234.08 61.2429 234.176 60.6065 234.176Z" fill="#535862"/>
</g>
<defs>
<clipPath id="clip0_0_5382">
<rect width="54" height="24" fill="white" transform="translate(0 36)"/>
</clipPath>
<clipPath id="clip1_0_5382">
<rect width="65" height="24" fill="white" transform="translate(0 72)"/>
</clipPath>
<clipPath id="clip2_0_5382">
<rect width="76" height="24" fill="white" transform="translate(0 108)"/>
</clipPath>
<clipPath id="clip3_0_5382">
<rect width="55" height="24" fill="white" transform="translate(0 144)"/>
</clipPath>
<clipPath id="clip4_0_5382">
<rect width="72" height="24" fill="white" transform="translate(0 180)"/>
</clipPath>
<clipPath id="clip5_0_5382">
<rect width="66" height="24" fill="white" transform="translate(0 216)"/>
</clipPath>
</defs>
</svg>
