<svg width="176" height="240" viewBox="0 0 176 240" fill="none" xmlns="http://www.w3.org/2000/svg">
<path d="M9.71946 8.25355H7.86009C7.80706 7.94863 7.70928 7.6785 7.56676 7.44318C7.42424 7.20455 7.24692 7.00237 7.0348 6.83665C6.82268 6.67093 6.58073 6.54664 6.30895 6.46378C6.04048 6.3776 5.75047 6.33452 5.43892 6.33452C4.88542 6.33452 4.39489 6.47372 3.96733 6.75213C3.53977 7.02722 3.20502 7.43158 2.96307 7.9652C2.72112 8.4955 2.60014 9.14347 2.60014 9.90909C2.60014 10.688 2.72112 11.3442 2.96307 11.8778C3.20833 12.4081 3.54309 12.8092 3.96733 13.081C4.39489 13.3494 4.88376 13.4837 5.43395 13.4837C5.73887 13.4837 6.02391 13.4439 6.28906 13.3643C6.55753 13.2815 6.79782 13.1605 7.00994 13.0014C7.22538 12.8423 7.40601 12.6468 7.55185 12.4148C7.70099 12.1828 7.80374 11.9176 7.86009 11.6193L9.71946 11.6293C9.64986 12.1132 9.49905 12.5672 9.26705 12.9915C9.03835 13.4157 8.7384 13.7902 8.36719 14.1151C7.99598 14.4366 7.56179 14.6884 7.06463 14.8707C6.56747 15.0497 6.01563 15.1392 5.40909 15.1392C4.5142 15.1392 3.71544 14.9321 3.01278 14.5178C2.31013 14.1035 1.75663 13.5052 1.35227 12.723C0.947917 11.9408 0.745739 11.0028 0.745739 9.90909C0.745739 8.81203 0.949574 7.87405 1.35724 7.09517C1.76491 6.31297 2.32008 5.71473 3.02273 5.30043C3.72538 4.88613 4.52083 4.67898 5.40909 4.67898C5.97585 4.67898 6.50284 4.75852 6.99006 4.91761C7.47727 5.0767 7.91146 5.31037 8.29261 5.61861C8.67377 5.92353 8.98698 6.29806 9.23224 6.74219C9.48082 7.183 9.64323 7.68679 9.71946 8.25355ZM14.66 15.1491C13.9142 15.1491 13.2679 14.9851 12.7211 14.657C12.1742 14.3288 11.7499 13.8698 11.4483 13.2798C11.15 12.6899 11.0009 12.0005 11.0009 11.2116C11.0009 10.4228 11.15 9.73177 11.4483 9.13849C11.7499 8.54522 12.1742 8.08452 12.7211 7.75639C13.2679 7.42827 13.9142 7.2642 14.66 7.2642C15.4057 7.2642 16.052 7.42827 16.5989 7.75639C17.1458 8.08452 17.5684 8.54522 17.8667 9.13849C18.1683 9.73177 18.3191 10.4228 18.3191 11.2116C18.3191 12.0005 18.1683 12.6899 17.8667 13.2798C17.5684 13.8698 17.1458 14.3288 16.5989 14.657C16.052 14.9851 15.4057 15.1491 14.66 15.1491ZM14.6699 13.7074C15.0743 13.7074 15.4123 13.5964 15.6841 13.3743C15.9559 13.1489 16.1581 12.8473 16.2907 12.4695C16.4266 12.0916 16.4945 11.6707 16.4945 11.2067C16.4945 10.7393 16.4266 10.3168 16.2907 9.93892C16.1581 9.55777 15.9559 9.2545 15.6841 9.02912C15.4123 8.80374 15.0743 8.69105 14.6699 8.69105C14.2556 8.69105 13.9109 8.80374 13.6358 9.02912C13.3641 9.2545 13.1602 9.55777 13.0243 9.93892C12.8917 10.3168 12.8255 10.7393 12.8255 11.2067C12.8255 11.6707 12.8917 12.0916 13.0243 12.4695C13.1602 12.8473 13.3641 13.1489 13.6358 13.3743C13.9109 13.5964 14.2556 13.7074 14.6699 13.7074ZM19.8466 15V7.36364H21.5668V8.66122H21.6562C21.8153 8.22372 22.0788 7.88234 22.4467 7.63707C22.8146 7.38849 23.2538 7.2642 23.7642 7.2642C24.2812 7.2642 24.7171 7.39015 25.0717 7.64205C25.4297 7.89062 25.6816 8.23035 25.8274 8.66122H25.907C26.076 8.23698 26.361 7.89891 26.7621 7.64702C27.1664 7.39181 27.6454 7.2642 28.1989 7.2642C28.9015 7.2642 29.4749 7.48627 29.919 7.9304C30.3632 8.37453 30.5852 9.02249 30.5852 9.87429V15H28.7805V10.1527C28.7805 9.67874 28.6546 9.33239 28.4027 9.11364C28.1508 8.89157 27.8426 8.78054 27.478 8.78054C27.0438 8.78054 26.7041 8.91643 26.4588 9.18821C26.2169 9.45668 26.0959 9.80634 26.0959 10.2372V15H24.331V10.0781C24.331 9.68371 24.2116 9.36884 23.973 9.13352C23.7377 8.8982 23.4295 8.78054 23.0483 8.78054C22.7898 8.78054 22.5545 8.84683 22.3423 8.9794C22.1302 9.10866 21.9612 9.29261 21.8352 9.53125C21.7093 9.76657 21.6463 10.0417 21.6463 10.3565V15H19.8466ZM32.411 17.8636V7.36364H34.1809V8.62642H34.2853C34.3781 8.44081 34.5091 8.24361 34.6781 8.0348C34.8471 7.82268 35.0758 7.64205 35.3642 7.4929C35.6525 7.34044 36.0204 7.2642 36.4679 7.2642C37.0578 7.2642 37.5898 7.41501 38.0637 7.71662C38.541 8.01491 38.9189 8.45739 39.1973 9.04403C39.479 9.62737 39.6199 10.3433 39.6199 11.1918C39.6199 12.0303 39.4823 12.7429 39.2072 13.3295C38.9321 13.9162 38.5576 14.3636 38.0836 14.6719C37.6097 14.9801 37.0727 15.1342 36.4728 15.1342C36.0353 15.1342 35.6724 15.0613 35.3841 14.9155C35.0957 14.7696 34.8637 14.594 34.688 14.3885C34.5157 14.1797 34.3815 13.9825 34.2853 13.7969H34.2108V17.8636H32.411ZM34.176 11.1818C34.176 11.6757 34.2456 12.1082 34.3848 12.4794C34.5273 12.8506 34.7311 13.1406 34.9963 13.3494C35.2647 13.5549 35.5895 13.6577 35.9707 13.6577C36.3684 13.6577 36.7015 13.5516 36.97 13.3395C37.2385 13.1241 37.4406 12.8307 37.5765 12.4595C37.7157 12.085 37.7853 11.6591 37.7853 11.1818C37.7853 10.7079 37.7174 10.2869 37.5815 9.91903C37.4456 9.55114 37.2434 9.26278 36.975 9.05398C36.7065 8.84517 36.3717 8.74077 35.9707 8.74077C35.5862 8.74077 35.2598 8.84186 34.9913 9.04403C34.7228 9.24621 34.519 9.52959 34.3798 9.89418C34.2439 10.2588 34.176 10.688 34.176 11.1818ZM43.3585 15.1541C42.8746 15.1541 42.4387 15.0679 42.051 14.8956C41.6665 14.7199 41.3616 14.4614 41.1362 14.12C40.9141 13.7786 40.8031 13.3577 40.8031 12.8572C40.8031 12.4264 40.8826 12.0701 41.0417 11.7884C41.2008 11.5066 41.4179 11.2812 41.693 11.1122C41.9681 10.9432 42.278 10.8156 42.6227 10.7294C42.9707 10.6399 43.3303 10.5753 43.7015 10.5355C44.149 10.4891 44.5119 10.4477 44.7903 10.4112C45.0687 10.3714 45.2709 10.3118 45.3968 10.2322C45.5261 10.1494 45.5907 10.0218 45.5907 9.84943V9.8196C45.5907 9.44508 45.4797 9.15507 45.2576 8.94957C45.0356 8.74408 44.7157 8.64134 44.2981 8.64134C43.8573 8.64134 43.5076 8.73745 43.2491 8.92969C42.9939 9.12192 42.8216 9.34896 42.7321 9.6108L41.0517 9.37216C41.1842 8.90814 41.403 8.52036 41.7079 8.20881C42.0128 7.89394 42.3857 7.65862 42.8265 7.50284C43.2673 7.34375 43.7546 7.2642 44.2882 7.2642C44.6561 7.2642 45.0223 7.30729 45.3869 7.39347C45.7515 7.47964 46.0846 7.62216 46.3862 7.82102C46.6878 8.01657 46.9297 8.28338 47.112 8.62145C47.2976 8.95952 47.3904 9.3821 47.3904 9.8892V15H45.6603V13.951H45.6007C45.4913 14.1631 45.3372 14.362 45.1383 14.5476C44.9428 14.7299 44.6958 14.8774 44.3975 14.9901C44.1026 15.0994 43.7562 15.1541 43.3585 15.1541ZM43.8258 13.8317C44.1871 13.8317 44.5003 13.7604 44.7654 13.6179C45.0306 13.4721 45.2344 13.2798 45.377 13.0412C45.5228 12.8026 45.5957 12.5424 45.5957 12.2607V11.3608C45.5394 11.4072 45.4432 11.4503 45.3074 11.4901C45.1748 11.5298 45.0256 11.5646 44.8599 11.5945C44.6942 11.6243 44.5301 11.6508 44.3677 11.674C44.2053 11.6972 44.0645 11.7171 43.9451 11.7337C43.6767 11.7701 43.4364 11.8298 43.2243 11.9126C43.0121 11.9955 42.8448 12.1115 42.7221 12.2607C42.5995 12.4065 42.5382 12.5954 42.5382 12.8274C42.5382 13.1589 42.6592 13.4091 42.9011 13.5781C43.1431 13.7472 43.4513 13.8317 43.8258 13.8317ZM50.9998 10.5256V15H49.2001V7.36364H50.9203V8.66122H51.0098C51.1854 8.23366 51.4655 7.89394 51.85 7.64205C52.2377 7.39015 52.7167 7.2642 53.2868 7.2642C53.8137 7.2642 54.2728 7.37689 54.6639 7.60227C55.0583 7.82765 55.3632 8.15412 55.5787 8.58168C55.7974 9.00923 55.9051 9.52794 55.9018 10.1378V15H54.1021V10.4162C54.1021 9.90578 53.9695 9.50639 53.7044 9.21804C53.4425 8.92969 53.0796 8.78551 52.6156 8.78551C52.3007 8.78551 52.0207 8.85511 51.7754 8.99432C51.5334 9.13021 51.3429 9.32741 51.2037 9.58594C51.0678 9.84446 50.9998 10.1577 50.9998 10.5256ZM58.5765 17.8636C58.3313 17.8636 58.1042 17.8438 57.8954 17.804C57.6899 17.7675 57.5259 17.7244 57.4032 17.6747L57.8208 16.2727C58.0827 16.349 58.3163 16.3854 58.5218 16.3821C58.7273 16.3788 58.908 16.3142 59.0637 16.1882C59.2228 16.0656 59.3571 15.8601 59.4664 15.5717L59.6206 15.1591L56.8514 7.36364H58.7605L60.5204 13.1307H60.6L62.3649 7.36364H64.2789L61.2214 15.9247C61.0789 16.3291 60.89 16.6754 60.6547 16.9638C60.4193 17.2554 60.131 17.4775 59.7896 17.63C59.4515 17.7857 59.0472 17.8636 58.5765 17.8636Z" fill="white"/>
<g clip-path="url(#clip0_0_5367)">
<path d="M2.26136 54H0.397727L4.58523 42.3636H6.61364L10.8011 54H8.9375L5.64773 44.4773H5.55682L2.26136 54ZM2.57386 49.4432H8.61932V50.9205H2.57386V49.4432ZM12.4815 54V42.3636H14.1804V46.6875H14.2827C14.3812 46.5057 14.5232 46.2955 14.7088 46.0568C14.8944 45.8182 15.152 45.6098 15.4815 45.4318C15.8111 45.25 16.2467 45.1591 16.7884 45.1591C17.4929 45.1591 18.1217 45.3371 18.6747 45.6932C19.2277 46.0492 19.6615 46.5625 19.9759 47.233C20.294 47.9034 20.4531 48.7102 20.4531 49.6534C20.4531 50.5966 20.2959 51.4053 19.9815 52.0795C19.6671 52.75 19.2353 53.267 18.6861 53.6307C18.1368 53.9905 17.5099 54.1705 16.8054 54.1705C16.2751 54.1705 15.8414 54.0814 15.5043 53.9034C15.1709 53.7254 14.9096 53.517 14.7202 53.2784C14.5308 53.0398 14.3849 52.8277 14.2827 52.642H14.1406V54H12.4815ZM14.1463 49.6364C14.1463 50.25 14.2353 50.7879 14.4134 51.25C14.5914 51.7121 14.849 52.0739 15.1861 52.3352C15.5232 52.5928 15.9361 52.7216 16.4247 52.7216C16.9323 52.7216 17.3565 52.5871 17.6974 52.3182C18.0384 52.0455 18.2959 51.6761 18.4702 51.2102C18.6482 50.7443 18.7372 50.2197 18.7372 49.6364C18.7372 49.0606 18.6501 48.5436 18.4759 48.0852C18.3054 47.6269 18.0478 47.2652 17.7031 47C17.3622 46.7348 16.9361 46.6023 16.4247 46.6023C15.9323 46.6023 15.5156 46.7292 15.1747 46.983C14.8376 47.2367 14.5819 47.5909 14.4077 48.0455C14.2334 48.5 14.1463 49.0303 14.1463 49.6364ZM26.0369 54.1761C25.2188 54.1761 24.5047 53.9886 23.8949 53.6136C23.285 53.2386 22.8116 52.714 22.4744 52.0398C22.1373 51.3655 21.9688 50.5777 21.9688 49.6761C21.9688 48.7708 22.1373 47.9792 22.4744 47.3011C22.8116 46.6231 23.285 46.0966 23.8949 45.7216C24.5047 45.3466 25.2188 45.1591 26.0369 45.1591C26.8551 45.1591 27.5691 45.3466 28.179 45.7216C28.7888 46.0966 29.2623 46.6231 29.5994 47.3011C29.9366 47.9792 30.1051 48.7708 30.1051 49.6761C30.1051 50.5777 29.9366 51.3655 29.5994 52.0398C29.2623 52.714 28.7888 53.2386 28.179 53.6136C27.5691 53.9886 26.8551 54.1761 26.0369 54.1761ZM26.0426 52.75C26.5729 52.75 27.0123 52.6098 27.3608 52.3295C27.7093 52.0492 27.9669 51.6761 28.1335 51.2102C28.304 50.7443 28.3892 50.2311 28.3892 49.6705C28.3892 49.1136 28.304 48.6023 28.1335 48.1364C27.9669 47.6667 27.7093 47.2898 27.3608 47.0057C27.0123 46.7216 26.5729 46.5795 26.0426 46.5795C25.5085 46.5795 25.0653 46.7216 24.7131 47.0057C24.3646 47.2898 24.1051 47.6667 23.9347 48.1364C23.768 48.6023 23.6847 49.1136 23.6847 49.6705C23.6847 50.2311 23.768 50.7443 23.9347 51.2102C24.1051 51.6761 24.3646 52.0492 24.7131 52.3295C25.0653 52.6098 25.5085 52.75 26.0426 52.75ZM37.5298 50.3807V45.2727H39.2344V54H37.5639V52.4886H37.473C37.2723 52.9545 36.9503 53.3428 36.5071 53.6534C36.0677 53.9602 35.5204 54.1136 34.8651 54.1136C34.3045 54.1136 33.8082 53.9905 33.3764 53.7443C32.9484 53.4943 32.6113 53.125 32.3651 52.6364C32.1226 52.1477 32.0014 51.5436 32.0014 50.8239V45.2727H33.7003V50.6193C33.7003 51.214 33.8651 51.6875 34.1946 52.0398C34.5241 52.392 34.9522 52.5682 35.4787 52.5682C35.7969 52.5682 36.1132 52.4886 36.4276 52.3295C36.7457 52.1705 37.009 51.9299 37.2173 51.608C37.4295 51.286 37.5336 50.8769 37.5298 50.3807ZM45.5909 45.2727V46.6364H40.8239V45.2727H45.5909ZM42.1023 43.1818H43.8011V51.4375C43.8011 51.767 43.8504 52.0152 43.9489 52.1818C44.0473 52.3447 44.1742 52.4564 44.3295 52.517C44.4886 52.5739 44.661 52.6023 44.8466 52.6023C44.983 52.6023 45.1023 52.5928 45.2045 52.5739C45.3068 52.5549 45.3864 52.5398 45.4432 52.5284L45.75 53.9318C45.6515 53.9697 45.5114 54.0076 45.3295 54.0455C45.1477 54.0871 44.9205 54.1098 44.6477 54.1136C44.2008 54.1212 43.7841 54.0417 43.3977 53.875C43.0114 53.7083 42.6989 53.4508 42.4602 53.1023C42.2216 52.7538 42.1023 52.3163 42.1023 51.7898V43.1818ZM57.233 50.3807V45.2727H58.9375V54H57.267V52.4886H57.1761C56.9754 52.9545 56.6534 53.3428 56.2102 53.6534C55.7708 53.9602 55.2235 54.1136 54.5682 54.1136C54.0076 54.1136 53.5114 53.9905 53.0795 53.7443C52.6515 53.4943 52.3144 53.125 52.0682 52.6364C51.8258 52.1477 51.7045 51.5436 51.7045 50.8239V45.2727H53.4034V50.6193C53.4034 51.214 53.5682 51.6875 53.8977 52.0398C54.2273 52.392 54.6553 52.5682 55.1818 52.5682C55.5 52.5682 55.8163 52.4886 56.1307 52.3295C56.4489 52.1705 56.7121 51.9299 56.9205 51.608C57.1326 51.286 57.2367 50.8769 57.233 50.3807ZM67.7599 47.4034L66.2202 47.6761C66.1558 47.4792 66.0535 47.2917 65.9134 47.1136C65.777 46.9356 65.5914 46.7898 65.3565 46.6761C65.1217 46.5625 64.8281 46.5057 64.4759 46.5057C63.9948 46.5057 63.5933 46.6136 63.2713 46.8295C62.9493 47.0417 62.7884 47.3163 62.7884 47.6534C62.7884 47.9451 62.8963 48.1799 63.1122 48.358C63.3281 48.536 63.6766 48.6818 64.1577 48.7955L65.544 49.1136C66.3471 49.2992 66.9455 49.5852 67.3395 49.9716C67.7334 50.358 67.9304 50.8598 67.9304 51.4773C67.9304 52 67.7789 52.4659 67.4759 52.875C67.1766 53.2803 66.758 53.5985 66.2202 53.8295C65.6861 54.0606 65.0668 54.1761 64.3622 54.1761C63.3849 54.1761 62.5876 53.9678 61.9702 53.5511C61.3527 53.1307 60.974 52.5341 60.8338 51.7614L62.4759 51.5114C62.5781 51.9394 62.7884 52.2633 63.1065 52.483C63.4247 52.6989 63.8395 52.8068 64.3509 52.8068C64.9077 52.8068 65.3527 52.6913 65.6861 52.4602C66.0194 52.2254 66.1861 51.9394 66.1861 51.6023C66.1861 51.3295 66.0838 51.1004 65.8793 50.9148C65.6785 50.7292 65.3698 50.589 64.9531 50.4943L63.4759 50.1705C62.6615 49.9848 62.0592 49.6894 61.669 49.2841C61.2827 48.8788 61.0895 48.3655 61.0895 47.7443C61.0895 47.2292 61.2334 46.7784 61.5213 46.392C61.8092 46.0057 62.2069 45.7045 62.7145 45.4886C63.2221 45.2689 63.8035 45.1591 64.4588 45.1591C65.402 45.1591 66.1444 45.3636 66.6861 45.7727C67.2277 46.178 67.5857 46.7216 67.7599 47.4034Z" fill="#535862"/>
</g>
<g clip-path="url(#clip1_0_5367)">
<path d="M10.9432 82.1477H9.17045C9.10227 81.7689 8.97538 81.4356 8.78977 81.1477C8.60417 80.8598 8.37689 80.6155 8.10795 80.4148C7.83902 80.214 7.53788 80.0625 7.20455 79.9602C6.875 79.858 6.52462 79.8068 6.15341 79.8068C5.48295 79.8068 4.88258 79.9754 4.35227 80.3125C3.82576 80.6496 3.40909 81.1439 3.10227 81.7955C2.79924 82.447 2.64773 83.2424 2.64773 84.1818C2.64773 85.1288 2.79924 85.928 3.10227 86.5795C3.40909 87.2311 3.82765 87.7235 4.35795 88.0568C4.88826 88.3902 5.48485 88.5568 6.14773 88.5568C6.51515 88.5568 6.86364 88.5076 7.19318 88.4091C7.52652 88.3068 7.82765 88.1572 8.09659 87.9602C8.36553 87.7633 8.5928 87.5227 8.77841 87.2386C8.9678 86.9508 9.09848 86.6212 9.17045 86.25L10.9432 86.2557C10.8485 86.8277 10.6648 87.3542 10.392 87.8352C10.1231 88.3125 9.77652 88.7254 9.35227 89.0739C8.93182 89.4186 8.45076 89.6856 7.90909 89.875C7.36742 90.0644 6.77652 90.1591 6.13636 90.1591C5.12879 90.1591 4.23106 89.9205 3.44318 89.4432C2.6553 88.9621 2.03409 88.2746 1.57955 87.3807C1.12879 86.4867 0.903409 85.4205 0.903409 84.1818C0.903409 82.9394 1.13068 81.8731 1.58523 80.983C2.03977 80.089 2.66098 79.4034 3.44886 78.9261C4.23674 78.4451 5.13258 78.2045 6.13636 78.2045C6.75379 78.2045 7.32955 78.2936 7.86364 78.4716C8.40152 78.6458 8.88447 78.9034 9.3125 79.2443C9.74053 79.5814 10.0947 79.9943 10.375 80.483C10.6553 80.9678 10.8447 81.5227 10.9432 82.1477ZM15.4474 90.1932C14.8944 90.1932 14.3944 90.0909 13.9474 89.8864C13.5005 89.678 13.1463 89.3769 12.8849 88.983C12.6274 88.589 12.4986 88.1061 12.4986 87.5341C12.4986 87.0417 12.5933 86.6364 12.7827 86.3182C12.9721 86 13.2277 85.7481 13.5497 85.5625C13.8717 85.3769 14.2315 85.2367 14.6293 85.142C15.027 85.0473 15.4323 84.9754 15.8452 84.9261C16.3679 84.8655 16.7921 84.8163 17.1179 84.7784C17.4437 84.7367 17.6804 84.6705 17.8281 84.5795C17.9759 84.4886 18.0497 84.3409 18.0497 84.1364V84.0966C18.0497 83.6004 17.9096 83.2159 17.6293 82.9432C17.3527 82.6705 16.9399 82.5341 16.3906 82.5341C15.8187 82.5341 15.3679 82.661 15.0384 82.9148C14.7126 83.1648 14.4872 83.4432 14.3622 83.75L12.7656 83.3864C12.955 82.8561 13.2315 82.428 13.5952 82.1023C13.9626 81.7727 14.3849 81.5341 14.8622 81.3864C15.3395 81.2348 15.8414 81.1591 16.3679 81.1591C16.7164 81.1591 17.0857 81.2008 17.4759 81.2841C17.8698 81.3636 18.2372 81.5114 18.5781 81.7273C18.9228 81.9432 19.205 82.2519 19.4247 82.6534C19.6444 83.0511 19.7543 83.5682 19.7543 84.2045V90H18.0952V88.8068H18.027C17.9171 89.0265 17.7524 89.2424 17.5327 89.4545C17.313 89.6667 17.0308 89.8428 16.6861 89.983C16.3414 90.1231 15.9285 90.1932 15.4474 90.1932ZM15.8168 88.8295C16.2865 88.8295 16.688 88.7367 17.0213 88.5511C17.3584 88.3655 17.6141 88.1231 17.7884 87.8239C17.9664 87.5208 18.0554 87.197 18.0554 86.8523V85.7273C17.9948 85.7879 17.8774 85.8447 17.7031 85.8977C17.5327 85.947 17.3376 85.9905 17.1179 86.0284C16.8982 86.0625 16.6842 86.0947 16.4759 86.125C16.2675 86.1515 16.0933 86.1742 15.9531 86.1932C15.6236 86.2348 15.3224 86.3049 15.0497 86.4034C14.7808 86.5019 14.5649 86.6439 14.402 86.8295C14.2429 87.0114 14.1634 87.2538 14.1634 87.5568C14.1634 87.9773 14.3187 88.2955 14.6293 88.5114C14.9399 88.7235 15.3357 88.8295 15.8168 88.8295ZM22.017 90V81.2727H23.6591V82.6591H23.75C23.9091 82.1894 24.1894 81.8201 24.5909 81.5511C24.9962 81.2784 25.4545 81.142 25.9659 81.142C26.072 81.142 26.197 81.1458 26.3409 81.1534C26.4886 81.161 26.6042 81.1705 26.6875 81.1818V82.8068C26.6193 82.7879 26.4981 82.767 26.3239 82.7443C26.1496 82.7178 25.9754 82.7045 25.8011 82.7045C25.3996 82.7045 25.0417 82.7898 24.7273 82.9602C24.4167 83.1269 24.1705 83.3598 23.9886 83.6591C23.8068 83.9545 23.7159 84.2917 23.7159 84.6705V90H22.017ZM31.6065 90.1761C30.7467 90.1761 30.0062 89.9924 29.3849 89.625C28.7675 89.2538 28.2902 88.733 27.9531 88.0625C27.6198 87.3883 27.4531 86.5985 27.4531 85.6932C27.4531 84.7992 27.6198 84.0114 27.9531 83.3295C28.2902 82.6477 28.7599 82.1155 29.3622 81.733C29.9683 81.3504 30.6766 81.1591 31.4872 81.1591C31.9796 81.1591 32.4569 81.2405 32.919 81.4034C33.3812 81.5663 33.7959 81.822 34.1634 82.1705C34.5308 82.5189 34.8205 82.9716 35.0327 83.5284C35.2448 84.0814 35.3509 84.7538 35.3509 85.5455V86.1477H28.4134V84.875H33.6861C33.6861 84.428 33.5952 84.0322 33.4134 83.6875C33.2315 83.339 32.9759 83.0644 32.6463 82.8636C32.3205 82.6629 31.938 82.5625 31.4986 82.5625C31.0213 82.5625 30.6046 82.6799 30.2486 82.9148C29.8963 83.1458 29.6236 83.4489 29.4304 83.8239C29.241 84.1951 29.1463 84.5985 29.1463 85.0341V86.0284C29.1463 86.6117 29.2486 87.108 29.4531 87.517C29.6615 87.9261 29.9512 88.2386 30.3224 88.4545C30.6937 88.6667 31.1274 88.7727 31.6236 88.7727C31.9455 88.7727 32.2391 88.7273 32.5043 88.6364C32.7694 88.5417 32.9986 88.4015 33.1918 88.2159C33.3849 88.0303 33.5327 87.8011 33.6349 87.5284L35.2429 87.8182C35.1141 88.2917 34.883 88.7064 34.5497 89.0625C34.2202 89.4148 33.8054 89.6894 33.3054 89.8864C32.8092 90.0795 32.2429 90.1761 31.6065 90.1761ZM40.9972 90.1761C40.1373 90.1761 39.3968 89.9924 38.7756 89.625C38.1581 89.2538 37.6809 88.733 37.3438 88.0625C37.0104 87.3883 36.8438 86.5985 36.8438 85.6932C36.8438 84.7992 37.0104 84.0114 37.3438 83.3295C37.6809 82.6477 38.1506 82.1155 38.7528 81.733C39.3589 81.3504 40.0672 81.1591 40.8778 81.1591C41.3703 81.1591 41.8475 81.2405 42.3097 81.4034C42.7718 81.5663 43.1866 81.822 43.554 82.1705C43.9214 82.5189 44.2112 82.9716 44.4233 83.5284C44.6354 84.0814 44.7415 84.7538 44.7415 85.5455V86.1477H37.804V84.875H43.0767C43.0767 84.428 42.9858 84.0322 42.804 83.6875C42.6222 83.339 42.3665 83.0644 42.0369 82.8636C41.7112 82.6629 41.3286 82.5625 40.8892 82.5625C40.4119 82.5625 39.9953 82.6799 39.6392 82.9148C39.2869 83.1458 39.0142 83.4489 38.821 83.8239C38.6316 84.1951 38.5369 84.5985 38.5369 85.0341V86.0284C38.5369 86.6117 38.6392 87.108 38.8438 87.517C39.0521 87.9261 39.3419 88.2386 39.7131 88.4545C40.0843 88.6667 40.518 88.7727 41.0142 88.7727C41.3362 88.7727 41.6297 88.7273 41.8949 88.6364C42.16 88.5417 42.3892 88.4015 42.5824 88.2159C42.7756 88.0303 42.9233 87.8011 43.0256 87.5284L44.6335 87.8182C44.5047 88.2917 44.2737 88.7064 43.9403 89.0625C43.6108 89.4148 43.196 89.6894 42.696 89.8864C42.1998 90.0795 41.6335 90.1761 40.9972 90.1761ZM46.6264 90V81.2727H48.2685V82.6591H48.3594C48.5185 82.1894 48.7988 81.8201 49.2003 81.5511C49.6056 81.2784 50.0639 81.142 50.5753 81.142C50.6813 81.142 50.8063 81.1458 50.9503 81.1534C51.098 81.161 51.2135 81.1705 51.2969 81.1818V82.8068C51.2287 82.7879 51.1075 82.767 50.9332 82.7443C50.759 82.7178 50.5848 82.7045 50.4105 82.7045C50.009 82.7045 49.651 82.7898 49.3366 82.9602C49.026 83.1269 48.7798 83.3598 48.598 83.6591C48.4162 83.9545 48.3253 84.2917 48.3253 84.6705V90H46.6264ZM59.3068 83.4034L57.767 83.6761C57.7027 83.4792 57.6004 83.2917 57.4602 83.1136C57.3239 82.9356 57.1383 82.7898 56.9034 82.6761C56.6686 82.5625 56.375 82.5057 56.0227 82.5057C55.5417 82.5057 55.1402 82.6136 54.8182 82.8295C54.4962 83.0417 54.3352 83.3163 54.3352 83.6534C54.3352 83.9451 54.4432 84.1799 54.6591 84.358C54.875 84.536 55.2235 84.6818 55.7045 84.7955L57.0909 85.1136C57.8939 85.2992 58.4924 85.5852 58.8864 85.9716C59.2803 86.358 59.4773 86.8598 59.4773 87.4773C59.4773 88 59.3258 88.4659 59.0227 88.875C58.7235 89.2803 58.3049 89.5985 57.767 89.8295C57.233 90.0606 56.6136 90.1761 55.9091 90.1761C54.9318 90.1761 54.1345 89.9678 53.517 89.5511C52.8996 89.1307 52.5208 88.5341 52.3807 87.7614L54.0227 87.5114C54.125 87.9394 54.3352 88.2633 54.6534 88.483C54.9716 88.6989 55.3864 88.8068 55.8977 88.8068C56.4545 88.8068 56.8996 88.6913 57.233 88.4602C57.5663 88.2254 57.733 87.9394 57.733 87.6023C57.733 87.3295 57.6307 87.1004 57.4261 86.9148C57.2254 86.7292 56.9167 86.589 56.5 86.4943L55.0227 86.1705C54.2083 85.9848 53.6061 85.6894 53.2159 85.2841C52.8295 84.8788 52.6364 84.3655 52.6364 83.7443C52.6364 83.2292 52.7803 82.7784 53.0682 82.392C53.3561 82.0057 53.7538 81.7045 54.2614 81.4886C54.7689 81.2689 55.3504 81.1591 56.0057 81.1591C56.9489 81.1591 57.6913 81.3636 58.233 81.7727C58.7746 82.178 59.1326 82.7216 59.3068 83.4034Z" fill="#535862"/>
</g>
<g clip-path="url(#clip2_0_5367)">
<path d="M1.27841 126V114.364H5.42614C6.33144 114.364 7.08144 114.528 7.67614 114.858C8.27083 115.187 8.71591 115.638 9.01136 116.21C9.30682 116.778 9.45455 117.419 9.45455 118.131C9.45455 118.847 9.30492 119.491 9.00568 120.062C8.71023 120.631 8.26326 121.081 7.66477 121.415C7.07008 121.744 6.32197 121.909 5.42045 121.909H2.56818V120.42H5.26136C5.83333 120.42 6.29735 120.322 6.65341 120.125C7.00947 119.924 7.27083 119.652 7.4375 119.307C7.60417 118.962 7.6875 118.57 7.6875 118.131C7.6875 117.691 7.60417 117.301 7.4375 116.96C7.27083 116.619 7.00758 116.352 6.64773 116.159C6.29167 115.966 5.82197 115.869 5.23864 115.869H3.03409V126H1.27841ZM11.3764 126V117.273H13.0185V118.659H13.1094C13.2685 118.189 13.5488 117.82 13.9503 117.551C14.3556 117.278 14.8139 117.142 15.3253 117.142C15.4313 117.142 15.5563 117.146 15.7003 117.153C15.848 117.161 15.9635 117.17 16.0469 117.182V118.807C15.9787 118.788 15.8575 118.767 15.6832 118.744C15.509 118.718 15.3348 118.705 15.1605 118.705C14.759 118.705 14.401 118.79 14.0866 118.96C13.776 119.127 13.5298 119.36 13.348 119.659C13.1662 119.955 13.0753 120.292 13.0753 120.67V126H11.3764ZM20.9659 126.176C20.1061 126.176 19.3655 125.992 18.7443 125.625C18.1269 125.254 17.6496 124.733 17.3125 124.062C16.9792 123.388 16.8125 122.598 16.8125 121.693C16.8125 120.799 16.9792 120.011 17.3125 119.33C17.6496 118.648 18.1193 118.116 18.7216 117.733C19.3277 117.35 20.036 117.159 20.8466 117.159C21.339 117.159 21.8163 117.241 22.2784 117.403C22.7405 117.566 23.1553 117.822 23.5227 118.17C23.8902 118.519 24.1799 118.972 24.392 119.528C24.6042 120.081 24.7102 120.754 24.7102 121.545V122.148H17.7727V120.875H23.0455C23.0455 120.428 22.9545 120.032 22.7727 119.688C22.5909 119.339 22.3352 119.064 22.0057 118.864C21.6799 118.663 21.2973 118.562 20.858 118.562C20.3807 118.562 19.964 118.68 19.608 118.915C19.2557 119.146 18.983 119.449 18.7898 119.824C18.6004 120.195 18.5057 120.598 18.5057 121.034V122.028C18.5057 122.612 18.608 123.108 18.8125 123.517C19.0208 123.926 19.3106 124.239 19.6818 124.455C20.053 124.667 20.4867 124.773 20.983 124.773C21.3049 124.773 21.5985 124.727 21.8636 124.636C22.1288 124.542 22.358 124.402 22.5511 124.216C22.7443 124.03 22.892 123.801 22.9943 123.528L24.6023 123.818C24.4735 124.292 24.2424 124.706 23.9091 125.062C23.5795 125.415 23.1648 125.689 22.6648 125.886C22.1686 126.08 21.6023 126.176 20.9659 126.176ZM33.1349 119.403L31.5952 119.676C31.5308 119.479 31.4285 119.292 31.2884 119.114C31.152 118.936 30.9664 118.79 30.7315 118.676C30.4967 118.562 30.2031 118.506 29.8509 118.506C29.3698 118.506 28.9683 118.614 28.6463 118.83C28.3243 119.042 28.1634 119.316 28.1634 119.653C28.1634 119.945 28.2713 120.18 28.4872 120.358C28.7031 120.536 29.0516 120.682 29.5327 120.795L30.919 121.114C31.7221 121.299 32.3205 121.585 32.7145 121.972C33.1084 122.358 33.3054 122.86 33.3054 123.477C33.3054 124 33.1539 124.466 32.8509 124.875C32.5516 125.28 32.133 125.598 31.5952 125.83C31.0611 126.061 30.4418 126.176 29.7372 126.176C28.7599 126.176 27.9626 125.968 27.3452 125.551C26.7277 125.131 26.349 124.534 26.2088 123.761L27.8509 123.511C27.9531 123.939 28.1634 124.263 28.4815 124.483C28.7997 124.699 29.2145 124.807 29.7259 124.807C30.2827 124.807 30.7277 124.691 31.0611 124.46C31.3944 124.225 31.5611 123.939 31.5611 123.602C31.5611 123.33 31.4588 123.1 31.2543 122.915C31.0535 122.729 30.7448 122.589 30.3281 122.494L28.8509 122.17C28.0365 121.985 27.4342 121.689 27.044 121.284C26.6577 120.879 26.4645 120.366 26.4645 119.744C26.4645 119.229 26.6084 118.778 26.8963 118.392C27.1842 118.006 27.5819 117.705 28.0895 117.489C28.5971 117.269 29.1785 117.159 29.8338 117.159C30.777 117.159 31.5194 117.364 32.0611 117.773C32.6027 118.178 32.9607 118.722 33.1349 119.403ZM41.7131 119.403L40.1733 119.676C40.1089 119.479 40.0066 119.292 39.8665 119.114C39.7301 118.936 39.5445 118.79 39.3097 118.676C39.0748 118.562 38.7813 118.506 38.429 118.506C37.9479 118.506 37.5464 118.614 37.2244 118.83C36.9025 119.042 36.7415 119.316 36.7415 119.653C36.7415 119.945 36.8494 120.18 37.0653 120.358C37.2813 120.536 37.6297 120.682 38.1108 120.795L39.4972 121.114C40.3002 121.299 40.8987 121.585 41.2926 121.972C41.6866 122.358 41.8835 122.86 41.8835 123.477C41.8835 124 41.732 124.466 41.429 124.875C41.1297 125.28 40.7112 125.598 40.1733 125.83C39.6392 126.061 39.0199 126.176 38.3153 126.176C37.3381 126.176 36.5407 125.968 35.9233 125.551C35.3059 125.131 34.9271 124.534 34.7869 123.761L36.429 123.511C36.5313 123.939 36.7415 124.263 37.0597 124.483C37.3778 124.699 37.7926 124.807 38.304 124.807C38.8608 124.807 39.3059 124.691 39.6392 124.46C39.9725 124.225 40.1392 123.939 40.1392 123.602C40.1392 123.33 40.0369 123.1 39.8324 122.915C39.6316 122.729 39.3229 122.589 38.9062 122.494L37.429 122.17C36.6146 121.985 36.0123 121.689 35.6222 121.284C35.2358 120.879 35.0426 120.366 35.0426 119.744C35.0426 119.229 35.1866 118.778 35.4744 118.392C35.7623 118.006 36.16 117.705 36.6676 117.489C37.1752 117.269 37.7566 117.159 38.4119 117.159C39.3551 117.159 40.0975 117.364 40.6392 117.773C41.1809 118.178 41.5388 118.722 41.7131 119.403Z" fill="#535862"/>
</g>
<g clip-path="url(#clip3_0_5367)">
<path d="M10.6705 150.364V162H9.05682L3.14205 153.466H3.03409V162H1.27841V150.364H2.90341L8.82386 158.909H8.93182V150.364H10.6705ZM16.8565 162.176C15.9967 162.176 15.2562 161.992 14.6349 161.625C14.0175 161.254 13.5402 160.733 13.2031 160.062C12.8698 159.388 12.7031 158.598 12.7031 157.693C12.7031 156.799 12.8698 156.011 13.2031 155.33C13.5402 154.648 14.0099 154.116 14.6122 153.733C15.2183 153.35 15.9266 153.159 16.7372 153.159C17.2296 153.159 17.7069 153.241 18.169 153.403C18.6312 153.566 19.0459 153.822 19.4134 154.17C19.7808 154.519 20.0705 154.972 20.2827 155.528C20.4948 156.081 20.6009 156.754 20.6009 157.545V158.148H13.6634V156.875H18.9361C18.9361 156.428 18.8452 156.032 18.6634 155.688C18.4815 155.339 18.2259 155.064 17.8963 154.864C17.5705 154.663 17.188 154.562 16.7486 154.562C16.2713 154.562 15.8546 154.68 15.4986 154.915C15.1463 155.146 14.8736 155.449 14.6804 155.824C14.491 156.195 14.3963 156.598 14.3963 157.034V158.028C14.3963 158.612 14.4986 159.108 14.7031 159.517C14.9115 159.926 15.2012 160.239 15.5724 160.455C15.9437 160.667 16.3774 160.773 16.8736 160.773C17.1955 160.773 17.4891 160.727 17.7543 160.636C18.0194 160.542 18.2486 160.402 18.4418 160.216C18.6349 160.03 18.7827 159.801 18.8849 159.528L20.4929 159.818C20.3641 160.292 20.133 160.706 19.7997 161.062C19.4702 161.415 19.0554 161.689 18.5554 161.886C18.0592 162.08 17.4929 162.176 16.8565 162.176ZM24.3622 162L21.794 153.273H23.5497L25.2599 159.682H25.3452L27.0611 153.273H28.8168L30.5213 159.653H30.6065L32.3054 153.273H34.0611L31.4986 162H29.7656L27.9929 155.699H27.8622L26.0895 162H24.3622ZM42.2131 155.403L40.6733 155.676C40.6089 155.479 40.5066 155.292 40.3665 155.114C40.2301 154.936 40.0445 154.79 39.8097 154.676C39.5748 154.562 39.2813 154.506 38.929 154.506C38.4479 154.506 38.0464 154.614 37.7244 154.83C37.4025 155.042 37.2415 155.316 37.2415 155.653C37.2415 155.945 37.3494 156.18 37.5653 156.358C37.7813 156.536 38.1297 156.682 38.6108 156.795L39.9972 157.114C40.8002 157.299 41.3987 157.585 41.7926 157.972C42.1866 158.358 42.3835 158.86 42.3835 159.477C42.3835 160 42.232 160.466 41.929 160.875C41.6297 161.28 41.2112 161.598 40.6733 161.83C40.1392 162.061 39.5199 162.176 38.8153 162.176C37.8381 162.176 37.0407 161.968 36.4233 161.551C35.8059 161.131 35.4271 160.534 35.2869 159.761L36.929 159.511C37.0313 159.939 37.2415 160.263 37.5597 160.483C37.8778 160.699 38.2926 160.807 38.804 160.807C39.3608 160.807 39.8059 160.691 40.1392 160.46C40.4725 160.225 40.6392 159.939 40.6392 159.602C40.6392 159.33 40.5369 159.1 40.3324 158.915C40.1316 158.729 39.8229 158.589 39.4062 158.494L37.929 158.17C37.1146 157.985 36.5123 157.689 36.1222 157.284C35.7358 156.879 35.5426 156.366 35.5426 155.744C35.5426 155.229 35.6866 154.778 35.9744 154.392C36.2623 154.006 36.66 153.705 37.1676 153.489C37.6752 153.269 38.2566 153.159 38.9119 153.159C39.8551 153.159 40.5975 153.364 41.1392 153.773C41.6809 154.178 42.0388 154.722 42.2131 155.403Z" fill="#535862"/>
</g>
<g clip-path="url(#clip4_0_5367)">
<path d="M1.27841 186.364H3.40909L7.11364 195.409H7.25L10.9545 186.364H13.0852V198H11.4148V189.58H11.3068L7.875 197.983H6.48864L3.05682 189.574H2.94886V198H1.27841V186.364ZM19.2628 198.176C18.4029 198.176 17.6624 197.992 17.0412 197.625C16.4238 197.254 15.9465 196.733 15.6094 196.062C15.276 195.388 15.1094 194.598 15.1094 193.693C15.1094 192.799 15.276 192.011 15.6094 191.33C15.9465 190.648 16.4162 190.116 17.0185 189.733C17.6245 189.35 18.3329 189.159 19.1435 189.159C19.6359 189.159 20.1132 189.241 20.5753 189.403C21.0374 189.566 21.4522 189.822 21.8196 190.17C22.187 190.519 22.4768 190.972 22.6889 191.528C22.901 192.081 23.0071 192.754 23.0071 193.545V194.148H16.0696V192.875H21.3423C21.3423 192.428 21.2514 192.032 21.0696 191.688C20.8878 191.339 20.6321 191.064 20.3026 190.864C19.9768 190.663 19.5942 190.562 19.1548 190.562C18.6776 190.562 18.2609 190.68 17.9048 190.915C17.5526 191.146 17.2798 191.449 17.0866 191.824C16.8973 192.195 16.8026 192.598 16.8026 193.034V194.028C16.8026 194.612 16.9048 195.108 17.1094 195.517C17.3177 195.926 17.6075 196.239 17.9787 196.455C18.3499 196.667 18.7836 196.773 19.2798 196.773C19.6018 196.773 19.8954 196.727 20.1605 196.636C20.4257 196.542 20.6548 196.402 20.848 196.216C21.0412 196.03 21.1889 195.801 21.2912 195.528L22.8991 195.818C22.7704 196.292 22.5393 196.706 22.206 197.062C21.8764 197.415 21.4616 197.689 20.9616 197.886C20.4654 198.08 19.8991 198.176 19.2628 198.176ZM28.1591 198.17C27.4545 198.17 26.8258 197.991 26.2727 197.631C25.7235 197.267 25.2917 196.75 24.9773 196.08C24.6667 195.405 24.5114 194.597 24.5114 193.653C24.5114 192.71 24.6686 191.903 24.983 191.233C25.3011 190.562 25.7367 190.049 26.2898 189.693C26.8428 189.337 27.4697 189.159 28.1705 189.159C28.7121 189.159 29.1477 189.25 29.4773 189.432C29.8106 189.61 30.0682 189.818 30.25 190.057C30.4356 190.295 30.5795 190.506 30.6818 190.688H30.7841V186.364H32.483V198H30.8239V196.642H30.6818C30.5795 196.828 30.4318 197.04 30.2386 197.278C30.0492 197.517 29.7879 197.725 29.4545 197.903C29.1212 198.081 28.6894 198.17 28.1591 198.17ZM28.5341 196.722C29.0227 196.722 29.4356 196.593 29.7727 196.335C30.1136 196.074 30.3712 195.712 30.5455 195.25C30.7235 194.788 30.8125 194.25 30.8125 193.636C30.8125 193.03 30.7254 192.5 30.5511 192.045C30.3769 191.591 30.1212 191.237 29.7841 190.983C29.447 190.729 29.0303 190.602 28.5341 190.602C28.0227 190.602 27.5966 190.735 27.2557 191C26.9148 191.265 26.6572 191.627 26.483 192.085C26.3125 192.544 26.2273 193.061 26.2273 193.636C26.2273 194.22 26.3144 194.744 26.4886 195.21C26.6629 195.676 26.9205 196.045 27.2614 196.318C27.6061 196.587 28.0303 196.722 28.5341 196.722ZM34.9077 198V189.273H36.6065V198H34.9077ZM35.7656 187.926C35.4702 187.926 35.2164 187.828 35.0043 187.631C34.7959 187.43 34.6918 187.191 34.6918 186.915C34.6918 186.634 34.7959 186.396 35.0043 186.199C35.2164 185.998 35.4702 185.898 35.7656 185.898C36.0611 185.898 36.313 185.998 36.5213 186.199C36.7334 186.396 36.8395 186.634 36.8395 186.915C36.8395 187.191 36.7334 187.43 36.5213 187.631C36.313 187.828 36.0611 187.926 35.7656 187.926ZM41.4318 198.193C40.8788 198.193 40.3788 198.091 39.9318 197.886C39.4848 197.678 39.1307 197.377 38.8693 196.983C38.6117 196.589 38.483 196.106 38.483 195.534C38.483 195.042 38.5777 194.636 38.767 194.318C38.9564 194 39.2121 193.748 39.5341 193.562C39.8561 193.377 40.2159 193.237 40.6136 193.142C41.0114 193.047 41.4167 192.975 41.8295 192.926C42.3523 192.866 42.7765 192.816 43.1023 192.778C43.428 192.737 43.6648 192.67 43.8125 192.58C43.9602 192.489 44.0341 192.341 44.0341 192.136V192.097C44.0341 191.6 43.8939 191.216 43.6136 190.943C43.3371 190.67 42.9242 190.534 42.375 190.534C41.803 190.534 41.3523 190.661 41.0227 190.915C40.697 191.165 40.4716 191.443 40.3466 191.75L38.75 191.386C38.9394 190.856 39.2159 190.428 39.5795 190.102C39.947 189.773 40.3693 189.534 40.8466 189.386C41.3239 189.235 41.8258 189.159 42.3523 189.159C42.7008 189.159 43.0701 189.201 43.4602 189.284C43.8542 189.364 44.2216 189.511 44.5625 189.727C44.9072 189.943 45.1894 190.252 45.4091 190.653C45.6288 191.051 45.7386 191.568 45.7386 192.205V198H44.0795V196.807H44.0114C43.9015 197.027 43.7367 197.242 43.517 197.455C43.2973 197.667 43.0152 197.843 42.6705 197.983C42.3258 198.123 41.9129 198.193 41.4318 198.193ZM41.8011 196.83C42.2708 196.83 42.6723 196.737 43.0057 196.551C43.3428 196.366 43.5985 196.123 43.7727 195.824C43.9508 195.521 44.0398 195.197 44.0398 194.852V193.727C43.9792 193.788 43.8617 193.845 43.6875 193.898C43.517 193.947 43.322 193.991 43.1023 194.028C42.8826 194.062 42.6686 194.095 42.4602 194.125C42.2519 194.152 42.0777 194.174 41.9375 194.193C41.608 194.235 41.3068 194.305 41.0341 194.403C40.7652 194.502 40.5492 194.644 40.3864 194.83C40.2273 195.011 40.1477 195.254 40.1477 195.557C40.1477 195.977 40.303 196.295 40.6136 196.511C40.9242 196.723 41.3201 196.83 41.8011 196.83ZM53.7983 195.04L53.7869 192.966H54.0824L57.5597 189.273H59.5938L55.6278 193.477H55.3608L53.7983 195.04ZM52.2358 198V186.364H53.9347V198H52.2358ZM57.7472 198L54.6222 193.852L55.7926 192.665L59.8324 198H57.7472ZM61.142 198V189.273H62.8409V198H61.142ZM62 187.926C61.7045 187.926 61.4508 187.828 61.2386 187.631C61.0303 187.43 60.9261 187.191 60.9261 186.915C60.9261 186.634 61.0303 186.396 61.2386 186.199C61.4508 185.998 61.7045 185.898 62 185.898C62.2955 185.898 62.5473 185.998 62.7557 186.199C62.9678 186.396 63.0739 186.634 63.0739 186.915C63.0739 187.191 62.9678 187.43 62.7557 187.631C62.5473 187.828 62.2955 187.926 62 187.926ZM69.2003 189.273V190.636H64.4332V189.273H69.2003ZM65.7116 187.182H67.4105V195.438C67.4105 195.767 67.4598 196.015 67.5582 196.182C67.6567 196.345 67.7836 196.456 67.9389 196.517C68.098 196.574 68.2704 196.602 68.456 196.602C68.5923 196.602 68.7116 196.593 68.8139 196.574C68.9162 196.555 68.9957 196.54 69.0526 196.528L69.3594 197.932C69.2609 197.97 69.1207 198.008 68.9389 198.045C68.7571 198.087 68.5298 198.11 68.2571 198.114C67.8101 198.121 67.3935 198.042 67.0071 197.875C66.6207 197.708 66.3082 197.451 66.0696 197.102C65.831 196.754 65.7116 196.316 65.7116 195.79V187.182Z" fill="#535862"/>
</g>
<g clip-path="url(#clip5_0_5367)">
<path d="M10.9432 226.148H9.17045C9.10227 225.769 8.97538 225.436 8.78977 225.148C8.60417 224.86 8.37689 224.616 8.10795 224.415C7.83902 224.214 7.53788 224.062 7.20455 223.96C6.875 223.858 6.52462 223.807 6.15341 223.807C5.48295 223.807 4.88258 223.975 4.35227 224.312C3.82576 224.65 3.40909 225.144 3.10227 225.795C2.79924 226.447 2.64773 227.242 2.64773 228.182C2.64773 229.129 2.79924 229.928 3.10227 230.58C3.40909 231.231 3.82765 231.723 4.35795 232.057C4.88826 232.39 5.48485 232.557 6.14773 232.557C6.51515 232.557 6.86364 232.508 7.19318 232.409C7.52652 232.307 7.82765 232.157 8.09659 231.96C8.36553 231.763 8.5928 231.523 8.77841 231.239C8.9678 230.951 9.09848 230.621 9.17045 230.25L10.9432 230.256C10.8485 230.828 10.6648 231.354 10.392 231.835C10.1231 232.312 9.77652 232.725 9.35227 233.074C8.93182 233.419 8.45076 233.686 7.90909 233.875C7.36742 234.064 6.77652 234.159 6.13636 234.159C5.12879 234.159 4.23106 233.92 3.44318 233.443C2.6553 232.962 2.03409 232.275 1.57955 231.381C1.12879 230.487 0.903409 229.42 0.903409 228.182C0.903409 226.939 1.13068 225.873 1.58523 224.983C2.03977 224.089 2.66098 223.403 3.44886 222.926C4.23674 222.445 5.13258 222.205 6.13636 222.205C6.75379 222.205 7.32955 222.294 7.86364 222.472C8.40152 222.646 8.88447 222.903 9.3125 223.244C9.74053 223.581 10.0947 223.994 10.375 224.483C10.6553 224.968 10.8447 225.523 10.9432 226.148ZM16.5838 234.176C15.7656 234.176 15.0516 233.989 14.4418 233.614C13.8319 233.239 13.3584 232.714 13.0213 232.04C12.6842 231.366 12.5156 230.578 12.5156 229.676C12.5156 228.771 12.6842 227.979 13.0213 227.301C13.3584 226.623 13.8319 226.097 14.4418 225.722C15.0516 225.347 15.7656 225.159 16.5838 225.159C17.402 225.159 18.116 225.347 18.7259 225.722C19.3357 226.097 19.8092 226.623 20.1463 227.301C20.4834 227.979 20.652 228.771 20.652 229.676C20.652 230.578 20.4834 231.366 20.1463 232.04C19.8092 232.714 19.3357 233.239 18.7259 233.614C18.116 233.989 17.402 234.176 16.5838 234.176ZM16.5895 232.75C17.1198 232.75 17.5592 232.61 17.9077 232.33C18.2562 232.049 18.5137 231.676 18.6804 231.21C18.8509 230.744 18.9361 230.231 18.9361 229.67C18.9361 229.114 18.8509 228.602 18.6804 228.136C18.5137 227.667 18.2562 227.29 17.9077 227.006C17.5592 226.722 17.1198 226.58 16.5895 226.58C16.0554 226.58 15.6122 226.722 15.2599 227.006C14.9115 227.29 14.652 227.667 14.4815 228.136C14.3149 228.602 14.2315 229.114 14.2315 229.67C14.2315 230.231 14.3149 230.744 14.4815 231.21C14.652 231.676 14.9115 232.049 15.2599 232.33C15.6122 232.61 16.0554 232.75 16.5895 232.75ZM24.2472 228.818V234H22.5483V225.273H24.179V226.693H24.2869C24.4877 226.231 24.8021 225.86 25.2301 225.58C25.6619 225.299 26.2055 225.159 26.8608 225.159C27.4555 225.159 27.9763 225.284 28.4233 225.534C28.8703 225.78 29.2169 226.148 29.4631 226.636C29.7093 227.125 29.8324 227.729 29.8324 228.449V234H28.1335V228.653C28.1335 228.021 27.9688 227.527 27.6392 227.17C27.3097 226.811 26.857 226.631 26.2812 226.631C25.8873 226.631 25.5369 226.716 25.2301 226.886C24.9271 227.057 24.6866 227.307 24.5085 227.636C24.3343 227.962 24.2472 228.356 24.2472 228.818ZM36.1847 225.273V226.636H31.4176V225.273H36.1847ZM32.696 223.182H34.3949V231.438C34.3949 231.767 34.4441 232.015 34.5426 232.182C34.6411 232.345 34.768 232.456 34.9233 232.517C35.0824 232.574 35.2547 232.602 35.4403 232.602C35.5767 232.602 35.696 232.593 35.7983 232.574C35.9006 232.555 35.9801 232.54 36.0369 232.528L36.3438 233.932C36.2453 233.97 36.1051 234.008 35.9233 234.045C35.7415 234.087 35.5142 234.11 35.2415 234.114C34.7945 234.121 34.3778 234.042 33.9915 233.875C33.6051 233.708 33.2926 233.451 33.054 233.102C32.8153 232.754 32.696 232.316 32.696 231.79V223.182ZM40.6037 234.193C40.0507 234.193 39.5507 234.091 39.1037 233.886C38.6567 233.678 38.3026 233.377 38.0412 232.983C37.7836 232.589 37.6548 232.106 37.6548 231.534C37.6548 231.042 37.7495 230.636 37.9389 230.318C38.1283 230 38.384 229.748 38.706 229.562C39.0279 229.377 39.3878 229.237 39.7855 229.142C40.1832 229.047 40.5885 228.975 41.0014 228.926C41.5241 228.866 41.9484 228.816 42.2741 228.778C42.5999 228.737 42.8366 228.67 42.9844 228.58C43.1321 228.489 43.206 228.341 43.206 228.136V228.097C43.206 227.6 43.0658 227.216 42.7855 226.943C42.509 226.67 42.0961 226.534 41.5469 226.534C40.9749 226.534 40.5241 226.661 40.1946 226.915C39.8688 227.165 39.6435 227.443 39.5185 227.75L37.9219 227.386C38.1113 226.856 38.3878 226.428 38.7514 226.102C39.1188 225.773 39.5412 225.534 40.0185 225.386C40.4957 225.235 40.9976 225.159 41.5241 225.159C41.8726 225.159 42.242 225.201 42.6321 225.284C43.026 225.364 43.3935 225.511 43.7344 225.727C44.0791 225.943 44.3613 226.252 44.581 226.653C44.8007 227.051 44.9105 227.568 44.9105 228.205V234H43.2514V232.807H43.1832C43.0734 233.027 42.9086 233.242 42.6889 233.455C42.4692 233.667 42.187 233.843 41.8423 233.983C41.4976 234.123 41.0848 234.193 40.6037 234.193ZM40.973 232.83C41.4427 232.83 41.8442 232.737 42.1776 232.551C42.5147 232.366 42.7704 232.123 42.9446 231.824C43.1226 231.521 43.2116 231.197 43.2116 230.852V229.727C43.151 229.788 43.0336 229.845 42.8594 229.898C42.6889 229.947 42.4938 229.991 42.2741 230.028C42.0545 230.062 41.8404 230.095 41.6321 230.125C41.4238 230.152 41.2495 230.174 41.1094 230.193C40.7798 230.235 40.4787 230.305 40.206 230.403C39.937 230.502 39.7211 230.644 39.5582 230.83C39.3991 231.011 39.3196 231.254 39.3196 231.557C39.3196 231.977 39.4749 232.295 39.7855 232.511C40.0961 232.723 40.492 232.83 40.973 232.83ZM50.8494 234.176C50.0047 234.176 49.2775 233.985 48.6676 233.602C48.0616 233.216 47.5956 232.684 47.2699 232.006C46.9441 231.328 46.7812 230.551 46.7812 229.676C46.7812 228.79 46.9479 228.008 47.2812 227.33C47.6146 226.648 48.0843 226.116 48.6903 225.733C49.2964 225.35 50.0104 225.159 50.8324 225.159C51.4953 225.159 52.0862 225.282 52.6051 225.528C53.1241 225.771 53.5426 226.112 53.8608 226.551C54.1828 226.991 54.3741 227.504 54.4347 228.091H52.7812C52.6903 227.682 52.482 227.33 52.1562 227.034C51.8343 226.739 51.4025 226.591 50.8608 226.591C50.3873 226.591 49.9725 226.716 49.6165 226.966C49.2642 227.212 48.9896 227.564 48.7926 228.023C48.5956 228.477 48.4972 229.015 48.4972 229.636C48.4972 230.273 48.5938 230.822 48.7869 231.284C48.9801 231.746 49.2528 232.104 49.6051 232.358C49.9612 232.612 50.3797 232.739 50.8608 232.739C51.1828 232.739 51.4744 232.68 51.7358 232.562C52.0009 232.441 52.2225 232.269 52.4006 232.045C52.5824 231.822 52.7093 231.553 52.7812 231.239H54.4347C54.3741 231.803 54.1903 232.307 53.8835 232.75C53.5767 233.193 53.1657 233.542 52.6506 233.795C52.1392 234.049 51.5388 234.176 50.8494 234.176ZM60.3253 225.273V226.636H55.5582V225.273H60.3253ZM56.8366 223.182H58.5355V231.438C58.5355 231.767 58.5848 232.015 58.6832 232.182C58.7817 232.345 58.9086 232.456 59.0639 232.517C59.223 232.574 59.3954 232.602 59.581 232.602C59.7173 232.602 59.8366 232.593 59.9389 232.574C60.0412 232.555 60.1207 232.54 60.1776 232.528L60.4844 233.932C60.3859 233.97 60.2457 234.008 60.0639 234.045C59.8821 234.087 59.6548 234.11 59.3821 234.114C58.9351 234.121 58.5185 234.042 58.1321 233.875C57.7457 233.708 57.4332 233.451 57.1946 233.102C56.956 232.754 56.8366 232.316 56.8366 231.79V223.182Z" fill="#535862"/>
</g>
<defs>
<clipPath id="clip0_0_5367">
<rect width="69" height="24" fill="white" transform="translate(0 36)"/>
</clipPath>
<clipPath id="clip1_0_5367">
<rect width="61" height="24" fill="white" transform="translate(0 72)"/>
</clipPath>
<clipPath id="clip2_0_5367">
<rect width="43" height="24" fill="white" transform="translate(0 108)"/>
</clipPath>
<clipPath id="clip3_0_5367">
<rect width="44" height="24" fill="white" transform="translate(0 144)"/>
</clipPath>
<clipPath id="clip4_0_5367">
<rect width="70" height="24" fill="white" transform="translate(0 180)"/>
</clipPath>
<clipPath id="clip5_0_5367">
<rect width="62" height="24" fill="white" transform="translate(0 216)"/>
</clipPath>
</defs>
</svg>
