<svg width="16" height="16" viewBox="0 0 16 16" fill="none" xmlns="http://www.w3.org/2000/svg">
<g id="Verified tick" clip-path="url(#clip0_0_5244)">
<path id="Vector" d="M12.3555 2.83361C12.5074 3.20113 12.7991 3.49325 13.1664 3.64577L14.4543 4.17923C14.8218 4.33147 15.1138 4.62348 15.2661 4.99102C15.4183 5.35856 15.4183 5.77153 15.2661 6.13907L14.733 7.42604C14.5807 7.79374 14.5805 8.20712 14.7335 8.57465L15.2656 9.86123C15.3411 10.0433 15.38 10.2384 15.38 10.4355C15.38 10.6325 15.3412 10.8277 15.2658 11.0097C15.1904 11.1918 15.0799 11.3572 14.9405 11.4965C14.8011 11.6359 14.6357 11.7464 14.4536 11.8217L13.1666 12.3548C12.7991 12.5067 12.507 12.7984 12.3545 13.1657L11.821 14.4536C11.6688 14.8211 11.3768 15.1132 11.0092 15.2654C10.6417 15.4176 10.2287 15.4176 9.86116 15.2654L8.5742 14.7323C8.20665 14.5805 7.79383 14.5808 7.4265 14.7332L6.13862 15.2659C5.77128 15.4178 5.35867 15.4176 4.99143 15.2655C4.62419 15.1134 4.33234 14.8217 4.17999 14.4546L3.64637 13.1663C3.49441 12.7988 3.20273 12.5067 2.83544 12.3542L1.54755 11.8207C1.18017 11.6685 0.888247 11.3767 0.73595 11.0094C0.583653 10.642 0.583446 10.2293 0.735376 9.86179L1.26845 8.57482C1.42032 8.20727 1.42001 7.79445 1.26759 7.42713L0.735278 6.13832C0.659807 5.95628 0.620946 5.76115 0.620914 5.56409C0.620882 5.36702 0.659681 5.17188 0.735094 4.98982C0.810507 4.80776 0.921056 4.64234 1.06042 4.50302C1.19979 4.36369 1.36525 4.2532 1.54733 4.17784L2.8343 3.64476C3.20149 3.49294 3.49344 3.20162 3.64607 2.83476L4.17953 1.54687C4.33177 1.17933 4.62378 0.887316 4.99132 0.735075C5.35886 0.582834 5.77183 0.582834 6.13937 0.735075L7.42634 1.26815C7.79389 1.42002 8.20671 1.41971 8.57403 1.26729L9.86246 0.735902C10.23 0.583746 10.6428 0.583778 11.0103 0.735988C11.3778 0.8882 11.6697 1.18013 11.822 1.54757L12.3556 2.83584L12.3555 2.83361Z" fill="#1570EF"/>
<path id="Vector_2" fill-rule="evenodd" clip-rule="evenodd" d="M11.1333 5.90291C11.2401 5.73503 11.276 5.53157 11.2328 5.33728C11.1897 5.14299 11.0711 4.9738 10.9033 4.86691C10.7354 4.76003 10.5319 4.72422 10.3376 4.76735C10.1433 4.81048 9.97414 4.92903 9.86726 5.09691L6.93026 9.71191L5.58626 8.03191C5.46201 7.8765 5.2811 7.7768 5.08335 7.75477C4.88559 7.73273 4.68718 7.79016 4.53176 7.91441C4.37634 8.03867 4.27665 8.21957 4.25462 8.41733C4.23258 8.61508 4.29001 8.8135 4.41426 8.96891L6.41426 11.4689C6.4888 11.5622 6.58453 11.6363 6.6935 11.6852C6.80246 11.734 6.92152 11.7561 7.04075 11.7497C7.15998 11.7432 7.27595 11.7084 7.37901 11.6481C7.48207 11.5877 7.56923 11.5037 7.63326 11.4029L11.1333 5.90291Z" fill="white"/>
</g>
<defs>
<clipPath id="clip0_0_5244">
<rect width="16" height="16" fill="white"/>
</clipPath>
</defs>
</svg>
